<ttFont>
          <CharString index="0">
            -27 callgsubr
            -13 -22 -6 -18 -18 vvcurveto
            -31 19 -19 50 70 48 -20 callgsubr
            54 -71 vlineto
            69 437 rlineto
            -62 hlineto
            -32 -37 rlineto
            12 -24 -48 21 -103 callgsubr
            return
          </CharString>
          <CharString index="1">
            69 78 33 46 38 19 callsubr
            -23 -31 -44 -16 -30 hhcurveto
            -69 -30 25 87 hvcurveto
            1 28 rlineto
            140 28 116 31 147 vvcurveto
            51 -42 52 -92 -161 -73 -219 -151 -115 48 -38 103 vhcurveto
            -33 264 rmoveto
            6 80 26 79 16 21 rrcurveto
            6 4 19 5 22 hhcurveto
            37 14 -22 -33 -63 -12 -36 -132 -37 hvcurveto
            return
          </CharString>
          <CharString index="2">
            rmoveto
            226 112 178 235 140 -73 118 -181 -190 -139 -160 -253 -169 104 -89 141 hvcurveto
            23 61 rmoveto
            -90 -49 50 151 236 53 113 132 89 52 -47 -149 -238 -52 -116 -135 hvcurveto
            return
          </CharString>
          <CharString index="3">
            rmoveto
            -83 callsubr
            -34 callgsubr
            -23 callsubr
            -38 21 -15 49 50 47 22 9 17 vhcurveto
            49 callgsubr
            -25 -25 -55 -48 -39 hhcurveto
            -23 -8 13 21 16 6 32 2 16 hvcurveto
            42 253 -61 callgsubr
            -52 vlineto
            return
          </CharString>
          <CharString index="4">
            rmoveto
            63 4 1 14 5 4 21 8 rlinecurve
            35 12 37 23 37 vvcurveto
            43 -46 23 -75 -58 -19 -17 -21 -7 2 -12 9 -13 vhcurveto
            5 19 20 3 22 hhcurveto
            24 12 -6 -13 -11 -10 -9 -23 -9 hvcurveto
            -37 -14 -7 -9 -16 vvcurveto
            -5 2 -7 3 -7 vhcurveto
            return
          </CharString>
          <CharString index="5">
            rmoveto
            26 -37 118 59 111 -63 37 46 -78 70 rlineto
            15 -16 -28 27 -13 hhcurveto
            -11 -19 -17 -34 -44 hvcurveto
            return
          </CharString>
          <CharString index="6">
            rmoveto
            -7 -53 78 -15 -37 -279 rlineto
            -25 -30 -35 -12 -45 hhcurveto
            -87 -20 52 65 21 4 41 6 40 hvcurveto
            14 98 76 14 7 53 rlineto
            -266 hlineto
            -8 -53 73 -14 -14 -106 rlineto
            -4 -37 -4 -33 -30 vvcurveto
            -98 41 -78 159 47 39 8 18 37 vhcurveto
            -122 -19 -38 -55 -100 hhcurveto
            -45 -38 9 14 -28 hvcurveto
            -14 120 rlineto
            -62 hlineto
            -23 -167 rlineto
            -23 48 79 -15 78 hhcurveto
            185 74 85 184 25 hvcurveto
            43 326 72 14 7 53 rlineto
            endchar
          </CharString>
          <CharString index="7">
            rmoveto
            41 -25 14 -8 6 vhcurveto
            -67 -44 rlineto
            -15 vlineto
            10 -8 7 -7 -16 vvcurveto
            -41 -45 -42 -48 -31 vhcurveto
            24 144 -78 callgsubr
            -34 callgsubr
            -23 callsubr
            -38 21 -15 49 50 47 22 9 17 vhcurveto
            54 -71 vlineto
            41 242 rlineto
            143 78 40 63 46 vvcurveto
            return
          </CharString>
          <CharString index="8">
            rmoveto
            143 98 74 124 20 hvcurveto
            81 489 rlineto
            -59 hlineto
            -32 -38 rlineto
            22 -40 -45 12 -39 hhcurveto
            -107 -109 -163 -160 -103 39 -55 76 53 64 47 69 40 hvcurveto
            3 -2 -14 -30 -8 -33 -11 -55 rlinecurve
            -96 -18 -10 -34 -83 hhcurveto
            -35 -43 13 17 -22 hvcurveto
            90 -48 vlineto
            -19 -6 -31 -56 -29 vvcurveto
            -63 55 -34 101 vhcurveto
            63 285 rmoveto
            -25 -14 31 61 80 23 101 27 46 hvcurveto
            4 3 6 1 14 hhcurveto
            36 45 -21 -34 40 hvcurveto
            -32 -179 rlineto
            -55 -44 -48 -35 -31 hhcurveto
            endchar
          </CharString>
          <CharString index="9">
            rmoveto
            41 -24 14 -8 6 vhcurveto
            -67 -45 -13 callgsubr
            -22 -8 -45 vhcurveto
            -130 -83 callgsubr
            184 61 88 201 28 vhcurveto
            41 299 rlineto
            115 37 25 61 42 vvcurveto
            return
          </CharString>
          <CharString index="10">
            rmoveto
            47 20 11 46 30 hvcurveto
            71 107 rlineto
            122 144 131 215 105 vvcurveto
            39 -61 20 -54 -8 callgsubr
            69 -43 -17 -114 -30 -74 -103 -154 rlinecurve
            -4 54 hlineto
            -25 373 -176 -16 rlineto
            -53 vlineto
            74 -19 28 -306 rlineto
            -125 vlineto
            -59 -78 rlineto
            -112 -54 hlineto
            -19 29 36 -11 36 hhcurveto
            return
          </CharString>
          <CharString index="11">
            -36 callgsubr
            218 hlineto
            5 51 -70 14 60 418 rlineto
            4 hlineto
            2 -14 193 -469 rlineto
            101 hlineto
            81 583 71 -10 callsubr
            -215 -35 callgsubr
            70 -14 -57 -399 rlineto
            -14 -5 vlineto
            -3 15 -190 463 rlineto
            -176 hlineto
            -7 -51 69 -14 36 callgsubr
            return
          </CharString>
          <CharString index="12">
            rmoveto
            104 9 49 57 43 65 33 61 rlinecurve
            5 -64 rlineto
            -128 vlineto
            104 9 rlineto
            153 173 98 210 76 vvcurveto
            41 -63 19 -5 callsubr
            -12 -115 -52 -103 -87 -125 rlinecurve
            -6 53 hlineto
            -12 211 rlineto
            18 46 10 44 23 vvcurveto
            39 -37 15 -51 -26 -22 -8 -1 -5 vhcurveto
            14 -203 -25 -69 -41 -72 -51 -78 rlinecurve
            -6 53 hlineto
            -24 375 -173 -16 rlineto
            -53 vlineto
            75 -20 23 -305 rlineto
            endchar
          </CharString>
          <CharString index="13">
            -28 22 rlineto
            -25 -25 -46 -40 -72 hhcurveto
            -46 -25 32 30 -16 hvcurveto
            -32 -12 -28 -20 -19 vvcurveto
            -49 61 -47 69 117 59 107 21 12 vhcurveto
            return
          </CharString>
          <CharString index="14">
            9 9 24 4 19 hhcurveto
            57 22 -20 -115 -119 -25 -89 -19 -33 hvcurveto
            return
          </CharString>
          <CharString index="15">
            rmoveto
            87 hlineto
            188 403 58 -403 rlineto
            89 hlineto
            265 598 62 callsubr
            -207 hlineto
            -5 -45 71 -16 -5 -17 -169 -404 -9 -31 -3 -1 -3 32 -47 404 rlineto
            18 vlineto
            72 15 5 45 rlineto
            -255 hlineto
            -6 -45 60 -12 11 -71 -158 -357 -9 -29 -4 -1 -1 30 -40 404 -1 21 72 15 5 45 rlineto
            -255 hlineto
            -6 -45 60 -12 rlineto
            endchar
          </CharString>
          <CharString index="16">
            76 -17 -61 -392 -9 -60 -14 -24 -7 -11 rlinecurve
            -5 -3 -22 -6 -28 hhcurveto
            -76 hlineto
            -1 -1 -14 -17 -26 vvcurveto
            -34 19 -13 42 115 90 85 125 18 vhcurveto
            54 380 rlineto
            88 vlineto
            return
          </CharString>
          <CharString index="17">
            730 rmoveto
            27 -30 81 37 91 -31 rlineto
            -9 24 23 -7 23 hhcurveto
            21 21 15 25 21 hvcurveto
            46 53 -27 30 -82 -37 -91 30 rlineto
            9 -24 -23 8 -23 hhcurveto
            -21 -22 -15 -25 -20 hvcurveto
            return
          </CharString>
          <CharString index="18">
            -89 callgsubr
            184 61 88 201 28 vhcurveto
            return
          </CharString>
          <CharString index="19">
            rmoveto
            -60 -319 rlineto
            -3 8 callgsubr
            31 0 vhcurveto
            -63 callsubr
            endchar
          </CharString>
          <CharString index="20">
            -22 34 rlineto
            0 -53 -37 -48 -62 -33 21 111 114 31 91 14 26 vhcurveto
            9 7 29 2 16 hhcurveto
            39 26 -10 0 hvcurveto
            8 -100 rlineto
            39 hlineto
            0 46 38 59 vvcurveto
            65 -63 21 -68 -167 -71 -200 -162 return
          </CharString>
          <CharString index="21">
            22 -17 -13 18 -15 hhcurveto
            -14 -24 -24 -28 -29 hvcurveto
            return
          </CharString>
          <CharString index="22">
            rmoveto
            -33 -114 rlineto
            -11 -13 -39 -17 -47 hhcurveto
            -102 -37 52 156 230 68 112 116 43 38 -10 -19 28 hvcurveto
            5 69 callsubr
            26 166 rlineto
            11 -43 -63 9 -71 hhcurveto
            -210 -126 -183 -233 -147 69 -108 174 76 72 17 22 53 hvcurveto
            15 164 rlineto
            endchar
          </CharString>
          <CharString index="23">
            252 hlineto
            5 45 -64 16 31 216 35 -2 19 -45 21 -50 rlinecurve
            60 -148 rlineto
            -24 8 15 -8 25 hhcurveto
            125 hlineto
            4 45 -69 25 -56 130 -18 41 -18 37 -40 20 rlinecurve
            100 29 83 71 1 104 rrcurveto
            106 -74 40 -104 vhcurveto
            -252 -34 callsubr
            -74 -518 -71 -14 rlineto
            224 282 rmoveto
            36 250 rlineto
            0 13 3 32 66 19 -39 -56 -80 -41 -78 -125 vhcurveto
            return
          </CharString>
          <CharString index="24">
            -22 callsubr
            -20 -5 -36 -30 vvcurveto
            -55 25 -32 54 return
          </CharString>
          <CharString index="25">
            rmoveto
            -21 -167 rlineto
            -9 18 61 -18 55 hhcurveto
            128 44 44 93 13 hvcurveto
            63 460 71 14 5 51 rlineto
            -261 -35 callgsubr
            76 -15 -64 -469 rlineto
            -56 -8 -15 -9 -37 hhcurveto
            -27 -18 12 0 hvcurveto
            -14 120 rlineto
            endchar
          </CharString>
          <CharString index="26">
            -85 callgsubr
            59 55 58 57 36 hvcurveto
            return
          </CharString>
          <CharString index="27">
            rmoveto
            96 54 rlineto
            40 23 35 19 -68 callgsubr
            rlineto
            return
          </CharString>
          <CharString index="28">
            551 rmoveto
            46 25 -40 168 rlineto
            -44 3 -44 -26 -36 vvcurveto
            -16 8 -17 22 -32 vhcurveto
            220 -69 rmoveto
            46 25 -39 168 rlineto
            -53 1 -35 -26 -34 vvcurveto
            -16 7 -17 22 -32 vhcurveto
            return
          </CharString>
          <CharString index="29">
            rmoveto
            4 -2 rlineto
            -10 -21 -9 -19 -20 vvcurveto
            -38 19 -10 50 63 51 32 0 vhcurveto
            53 -71 vlineto
            85 538 -30 callgsubr
            82 -17 -24 -129 rlineto
            11 -24 -38 13 -40 hhcurveto
            -151 -81 -235 -128 -97 43 -63 76 70 51 53 62 34 hvcurveto
            return
          </CharString>
          <CharString index="30">
            -72 callsubr
            rlineto
            return
          </CharString>
          <CharString index="31">
            rmoveto
            79 -105 rlineto
            -21 17 12 -19 16 hhcurveto
            13 24 24 29 29 15 callsubr
            -119 -71 -99 75 rlineto
            return
          </CharString>
          <CharString index="32">
            894 rmoveto
            27 -26 81 32 91 -27 rlineto
            -7 24 23 -7 23 hhcurveto
            21 21 13 22 21 hvcurveto
            46 46 -27 26 -82 -32 -91 26 rlineto
            8 -24 -23 7 -23 hhcurveto
            -21 -22 -13 -22 -20 hvcurveto
            -19 -220 -102 callsubr
            return
          </CharString>
          <CharString index="33">
            40 callgsubr
            115 hlineto
            60 390 rlineto
            8 14 54 33 48 hhcurveto
            28 9 -15 -23 -18 -3 -20 -3 -14 hvcurveto
            -45 -244 rlineto
            return
          </CharString>
          <CharString index="34">
            vlineto
            -182 -19 rlineto
            return
          </CharString>
          <CharString index="35">
            35 callgsubr
            -74 -518 return
          </CharString>
          <CharString index="36">
            44 259 rlineto
            3 19 7 44 25 vvcurveto
            48 -22 38 -69 -55 -63 -40 -35 -46 -28 callsubr
            return
          </CharString>
          <CharString index="37">
            252 hlineto
            5 45 -64 16 31 216 35 -2 19 -45 21 -50 rlinecurve
            60 -148 rlineto
            -24 8 15 -8 25 hhcurveto
            125 hlineto
            5 45 -70 25 -56 130 -18 41 -18 37 -40 20 rlinecurve
            100 29 84 71 104 vvcurveto
            106 -74 40 -104 vhcurveto
            -252 -34 callsubr
            -74 -518 -71 -14 rlineto
            224 282 rmoveto
            36 250 rlineto
            0 13 3 32 66 20 -39 -56 -80 -42 -78 -125 vhcurveto
            return
          </CharString>
          <CharString index="38">
            rmoveto
            11 20 16 36 42 hvcurveto
            81 69 -25 37 -117 -63 -107 64 -38 35 callsubr
            16 26 -27 14 hhcurveto
            return
          </CharString>
          <CharString index="39">
            -39 callsubr
            70 -14 -74 -518 rlineto
            return
          </CharString>
          <CharString index="40">
            rmoveto
            184 61 88 201 28 hvcurveto
            42 305 72 -10 callsubr
            -218 -83 callgsubr
            vhcurveto
            endchar
          </CharString>
          <CharString index="41">
            rmoveto
            120 65 79 0 19 callsubr
            0 -54 -39 -50 -70 -29 25 87 vhcurveto
            28 vlineto
            140 28 117 31 147 vvcurveto
            51 -43 52 -91 -161 -74 -219 -151 -115 48 -38 103 vhcurveto
            -33 264 rmoveto
            7 80 25 79 16 21 rrcurveto
            6 5 19 5 21 hhcurveto
            37 14 -22 -33 -63 -11 -36 -133 -37 hvcurveto
            endchar
          </CharString>
          <CharString index="42">
            26 callgsubr
            33 234 rlineto
            225 hlineto
            -33 -234 33 callsubr
            256 hlineto
            6 51 -70 14 74 11 callgsubr
            -32 -222 rlineto
            -225 hlineto
            31 222 -68 callsubr
            return
          </CharString>
          <CharString index="43">
            rmoveto
            -71 -26 31 90 hvcurveto
            22 vlineto
            177 30 80 64 109 vvcurveto
            61 -55 42 -79 -44 -39 -16 -31 -34 vhcurveto
            29 -53 -58 18 -39 hhcurveto
            -109 -112 -185 -178 -107 39 -53 78 48 51 35 64 41 hvcurveto
            -70 13 43 -29 89 hhcurveto
            69 78 33 45 40 19 callsubr
            -22 -33 -44 -16 -29 hhcurveto
            -43 370 rmoveto
            6 5 20 5 20 hhcurveto
            34 17 -19 -36 -72 -39 -35 -106 -25 hvcurveto
            6 66 23 85 20 25 rrcurveto
            -165 -275 rmoveto
            -47 -25 -43 -37 -34 hhcurveto
            -26 -12 33 63 98 21 100 33 65 hvcurveto
            4 3 9 2 13 hhcurveto
            34 43 -19 -34 41 hvcurveto
            -34 -63 -21 -85 -2 -80 rrcurveto
            endchar
          </CharString>
          <CharString index="44">
            54 -72 vlineto
            21 callsubr
            90 -73 callsubr
            -54 vlineto
            return
          </CharString>
          <CharString index="45">
            rmoveto
            -39 -216 rlineto
            -35 -28 -50 -57 -46 hhcurveto
            -29 -10 37 59 132 35 95 22 35 hvcurveto
            3 3 12 4 8 hhcurveto
            46 42 -25 -32 34 hvcurveto
            return
          </CharString>
          <CharString index="46">
            rmoveto
            -90 -49 50 151 236 53 113 132 89 52 -47 -149 -238 -52 -116 -135 hvcurveto
            endchar
          </CharString>
          <CharString index="47">
            -57 callgsubr
            rlineto
            return
          </CharString>
          <CharString index="48">
            rmoveto
            29 68 rlineto
            -2 13 14 -1 15 hhcurveto
            160 87 160 186 79 -24 51 -46 26 hvcurveto
            25 56 -52 24 -28 -62 rlineto
            2 -12 -13 1 -13 hhcurveto
            -147 -101 -149 -201 -72 23 -51 43 -27 hvcurveto
            -27 -62 rlineto
            81 184 rmoveto
            -4 15 -1 20 25 vvcurveto
            124 37 100 13 13 vhcurveto
            9 9 24 4 19 hhcurveto
            15 12 -1 -4 11 hvcurveto
            -57 -383 rmoveto
            -18 -14 3 7 -11 hvcurveto
            136 311 rlineto
            4 -18 1 -21 -29 vvcurveto
            -119 -25 -89 -19 -33 vhcurveto
            -54 callsubr
            endchar
          </CharString>
          <CharString index="49">
            -98 callgsubr
            endchar
          </CharString>
          <CharString index="50">
            rmoveto
            41 92 rlineto
            -5 22 24 -3 25 hhcurveto
            226 112 178 235 97 -36 88 -84 43 hvcurveto
            37 80 -57 28 -40 -86 rlineto
            5 -22 -25 3 -27 hhcurveto
            -190 -139 -160 -253 -110 43 -77 70 -39 hvcurveto
            -39 -87 rlineto
            82 179 rmoveto
            -20 30 -7 45 63 vvcurveto
            236 1 52 113 132 hhcurveto
            23 20 -4 -6 17 hvcurveto
            -106 -540 rmoveto
            -24 -21 3 9 -19 hvcurveto
            221 483 rlineto
            20 -30 10 -46 -65 vvcurveto
            -238 -52 -116 -135 vhcurveto
            endchar
          </CharString>
          <CharString index="51">
            -17 80 -183 rmoveto
            37 24 24 18 8 hvcurveto
            -39 51 -12 48 36 vvcurveto
            -9 7 2 3 rlineto
            -7 12 13 -6 19 hhcurveto
            89 69 83 31 24 hvcurveto
            -27 callgsubr
            -17 62 callgsubr
            -15 48 51 47 22 9 17 vhcurveto
            54 -72 vlineto
            73 430 -109 -11 -60 -348 rlineto
            -26 -25 -52 -46 -38 hhcurveto
            -21 -15 8 24 17 6 33 3 16 hvcurveto
            54 333 rlineto
            -12 hlineto
            -107 -17 rlineto
            -73 vlineto
            -46 -263 rlineto
            -17 -90 -16 -77 -103 vvcurveto
            -43 13 -27 40 vhcurveto
            endchar
          </CharString>
          <CharString index="52">
            12 callsubr
            -36 -50 -24 -42 -39 -35 25 -28 38 hvcurveto
            return
          </CharString>
          <CharString index="53">
            -9 -6 -26 -3 -22 hhcurveto
            return
          </CharString>
          <CharString index="54">
            554 rmoveto
            96 54 rlineto
            27 15 48 27 -68 callgsubr
            rlineto
            return
          </CharString>
          <CharString index="55">
            55 -130 vlineto
            55 364 rlineto
            123 hlineto
            9 66 rlineto
            -122 hlineto
            21 122 -103 -14 -21 -108 rlineto
            -88 hlineto
            return
          </CharString>
          <CharString index="56">
            -73 callsubr
            -53 vlineto
            return
          </CharString>
          <CharString index="57">
            14 7 51 rlineto
            return
          </CharString>
          <CharString index="58">
            542 rmoveto
            80 78 rlineto
            37 36 16 20 23 vvcurveto
            30 -27 23 -30 -4 -4 0 -1 -4 vhcurveto
            -102 -181 rlineto
            return
          </CharString>
          <CharString index="59">
            217 6 hmoveto
            313 hlineto
            2 70 rlineto
            -62 53 -30 72 100 vvcurveto
            198 65 107 120 91 49 -65 -121 -178 -38 -94 -100 -72 vhcurveto
            -3 -70 rlineto
            298 hlineto
            20 172 rlineto
            -56 hlineto
            -34 -94 rlineto
            -118 hlineto
            -4 2 rlineto
            97 76 65 133 124 vvcurveto
            152 -96 95 -153 -183 -143 -155 -199 -93 44 -89 68 -43 vhcurveto
            -4 -3 rlineto
            -116 hlineto
            -15 94 rlineto
            -57 hlineto
            endchar
          </CharString>
          <CharString index="60">
            114 61 callsubr
            25 20 60 hhcurveto
            44 hlineto
            12 11 11 27 25 vvcurveto
            30 -14 15 -29 -51 -52 -60 -41 -17 vhcurveto
            -4 hlineto
            5 11 5 21 13 vvcurveto
            49 -51 callsubr
            return
          </CharString>
          <CharString index="61">
            10 -38 callsubr
            return
          </CharString>
          <CharString index="62">
            rmoveto
            -50 -24 -43 29 callsubr
            25 40 38 41 -28 26 -36 hvcurveto
            return
          </CharString>
          <CharString index="63">
            rmoveto
            47 20 11 46 30 hvcurveto
            71 107 rlineto
            122 144 131 215 105 vvcurveto
            39 -62 20 -5 callsubr
            -17 -114 -30 -74 -103 -154 rlinecurve
            -4 54 hlineto
            -25 373 -176 -16 rlineto
            -53 vlineto
            73 -19 29 -306 rlineto
            -125 vlineto
            -59 -78 rlineto
            -112 hlineto
            -1 -54 rlineto
            -19 30 35 -11 37 hhcurveto
            endchar
          </CharString>
          <CharString index="64">
            rmoveto
            18 -24 rlineto
            69 hlineto
            43 329 rlineto
            -217 hlineto
            -5 -51 107 -17 -26 -184 rlineto
            -6 -11 -33 -21 -49 hhcurveto
            -102 -34 61 137 247 71 105 113 59 40 -20 -10 17 hvcurveto
            6 69 callsubr
            25 166 rlineto
            5 -21 -71 16 -90 hhcurveto
            -223 -114 -198 -222 -172 91 -24 callsubr
            return
          </CharString>
          <CharString index="65">
            0 callsubr
            -3 -12 -2 -15 callgsubr
            return
          </CharString>
          <CharString index="66">
            -19 callgsubr
            24 39 37 38 -24 -49 callgsubr
            return
          </CharString>
          <CharString index="67">
            rmoveto
            74 37 53 51 55 -35 25 -56 -72 -40 -54 -51 -51 27 -28 65 hvcurveto
            7 48 rmoveto
            -22 -10 11 23 40 9 14 26 20 12 -8 -26 -40 -9 -14 -26 hvcurveto
            return
          </CharString>
          <CharString index="68">
            -65 callgsubr
            -255 hlineto
            -7 -51 return
          </CharString>
          <CharString index="69">
            vhcurveto
            -181 -119 return
          </CharString>
          <CharString index="70">
            518 -39 callsubr
            return
          </CharString>
          <CharString index="71">
            4 51 -73 callgsubr
            return
          </CharString>
          <CharString index="72">
            2 51 -96 callsubr
            return
          </CharString>
          <CharString index="73">
            -35 callgsubr
            69 -14 return
          </CharString>
          <CharString index="74">
            rmoveto
            21 -25 rlineto
            6 -18 callsubr
            -9 vhcurveto
            4 -29 callsubr
          </CharString>
          <CharString index="75">
            608 rmoveto
            40 23 35 19 -68 callgsubr
            30 -37 rlineto
            return
          </CharString>
          <CharString index="76">
            -37 -216 rlineto
            -38 -28 -49 -55 -42 hhcurveto
            return
          </CharString>
          <CharString index="77">
            -10 -10 -1 -1 -9 vhcurveto
            return
          </CharString>
          <CharString index="78">
            -3 17 -19 -29 vvcurveto
            -44 -36 -33 0 vhcurveto
            endchar
          </CharString>
          <CharString index="79">
            vhcurveto
            68 -51 callsubr
            return
          </CharString>
          <CharString index="80">
            6 callgsubr
            32 -12 49 hhcurveto
            51 52 22 63 30 -21 16 -24 14 hvcurveto
            -34 19 rlineto
            28 -46 vlineto
            -34 -50 rlineto
            -24 vlineto
            49 -24 rlineto
            16 -8 7 -6 -10 vvcurveto
            -11 -9 -6 -18 57 callsubr
          </CharString>
          <CharString index="81">
            -15 -19 vvcurveto
            -31 11 -25 58 66 49 32 0 vhcurveto
            54 -72 vlineto
            17 callsubr
            return
          </CharString>
          <CharString index="82">
            -146 -148 return
          </CharString>
          <CharString index="83">
            -79 141 81 20 20 15 27 hvcurveto
            return
          </CharString>
          <CharString index="84">
            vhcurveto
            -27 callgsubr
            -18 -22 -6 -19 -14 vvcurveto
            return
          </CharString>
          <CharString index="85">
            -21 callgsubr
            -4 return
          </CharString>
          <CharString index="86">
            551 rmoveto
            71 69 rlineto
            29 28 21 26 23 vvcurveto
            31 -35 19 -38 -3 vhcurveto
            -87 -168 rlineto
            207 -25 rmoveto
            71 69 29 28 21 26 1 23 rlinecurve
            31 -33 18 -41 -2 vhcurveto
            -86 -168 rlineto
            endchar
          </CharString>
          <CharString index="87">
            2 51 27 callgsubr
            217 147 166 241 159 -95 82 -175 hvcurveto
            -256 hlineto
            -7 -51 69 -14 -31 -218 rlineto
            -77 hlineto
            -9 -62 rlineto
            78 hlineto
            -34 -238 rlineto
            return
          </CharString>
          <CharString index="88">
            rmoveto
            24 -60 rlineto
            -23 callgsubr
            return
          </CharString>
          <CharString index="89">
            13 callgsubr
            -19 -12 callsubr
            return
          </CharString>
          <CharString index="90">
            69 callgsubr
            24 -34 -50 -27 -42 -42 -35 24 -23 34 hvcurveto
            endchar
          </CharString>
          <CharString index="91">
            11 21 16 36 42 hvcurveto
            81 69 -26 37 -116 -63 -108 64 return
          </CharString>
          <CharString index="92">
            4 51 -2 callsubr
            -42 -112 rlineto
            -109 hlineto
            -42 7 -60 callsubr
            return
          </CharString>
          <CharString index="93">
            rlineto
            -24 vlineto
            48 -24 rlineto
            16 -8 7 -6 -10 vvcurveto
            -11 -8 -6 -19 -37 -16 8 8 -17 vhcurveto
            return
          </CharString>
          <CharString index="94">
            rlineto
            86 vlineto
            -180 -19 rlineto
            return
          </CharString>
          <CharString index="95">
            25 -39 -26 -18 -16 -14 return
          </CharString>
          <CharString index="96">
            -133 rmoveto
            -17 callgsubr
            60 77 41 0 hvcurveto
            -52 hlineto
            -52 -24 -58 -45 -62 3 callgsubr
            endchar
          </CharString>
          <CharString index="97">
            14 6 51 rlineto
            return
          </CharString>
          <CharString index="98">
            201 225 58 13 7 51 rlineto
            -202 -35 callgsubr
            51 -12 rlineto
            -7 vlineto
            -194 -219 rlineto
            -19 hlineto
            32 224 -39 callsubr
            return
          </CharString>
          <CharString index="99">
            -81 -115 -71 42 -52 92 hvcurveto
            11 59 rmoveto
            -38 -21 16 51 107 25 26 53 37 22 -12 -49 -117 -23 -22 -55 hvcurveto
            373 -304 rmoveto
            109 return
          </CharString>
          <CharString index="100">
            rmoveto
            52 callgsubr
            51 callsubr
            hvcurveto
            endchar
          </CharString>
          <CharString index="101">
            rmoveto
            74 522 rlineto
            1 7 13 1 16 hhcurveto
            133 51 -58 -152 hvcurveto
            -202 -1 -83 -114 -145 hhcurveto
            -20 -25 1 1 -20 hvcurveto
            endchar
          </CharString>
          <CharString index="102">
            -53 -30 callsubr
            -24 -46 70 -43 return
          </CharString>
          <CharString index="103">
            60 callsubr
            -20 25 -38 -26 -19 -16 -14 -8 vhcurveto
            4 -29 callsubr
          </CharString>
          <CharString index="104">
            37 -145 148 rlineto
            -42 -8 -13 22 callgsubr
            48 -27 27 -15 vhcurveto
            return
          </CharString>
          <CharString index="105">
            -36 callgsubr
            419 44 callsubr
            -55 hlineto
            return
          </CharString>
          <CharString index="106">
            240 rlineto
            131 hlineto
            10 62 rlineto
            -132 hlineto
            31 220 rlineto
            1 7 13 1 16 hhcurveto
            118 66 -40 -170 hvcurveto
            -211 -1 return
          </CharString>
          <CharString index="107">
            rmoveto
            -74 callsubr
            return
          </CharString>
          <CharString index="108">
            rlineto
            8 13 55 33 47 16 callgsubr
            11 -25 57 return
          </CharString>
          <CharString index="109">
            rmoveto
            -10 -75 rlineto
            326 hlineto
            10 75 rlineto
            return
          </CharString>
          <CharString index="110">
            -38 -28 -49 -55 -42 hhcurveto
            -29 -10 41 55 106 23 98 32 59 hvcurveto
            4 2 9 2 14 hhcurveto
            37 40 -22 -34 38 hvcurveto
            endchar
          </CharString>
          <CharString index="111">
            5 -18 callsubr
            -8 vhcurveto
            3 -29 callsubr
          </CharString>
          <CharString index="112">
            9 callsubr
            -43 hvcurveto
            return
          </CharString>
          <CharString index="113">
            36 37 38 -25 24 -34 -44 -23 -38 -38 callgsubr
            return
          </CharString>
          <CharString index="114">
            22 63 30 -20 16 -25 14 hvcurveto
            -34 19 rlineto
            return
          </CharString>
          <CharString index="115">
            rmoveto
            109 86 68 88 64 return
          </CharString>
          <CharString index="116">
            720 rmoveto
            26 -37 118 59 111 -63 37 46 -78 70 rlineto
            15 -16 -28 27 -13 hhcurveto
            -11 -19 -17 -34 return
          </CharString>
          <CharString index="117">
            hvcurveto
            1 -3 -4 0 -3 hhcurveto
            -1 3 66 86 -29 26 rlineto
            -41 -29 -77 -76 -73 vvcurveto
            -41 21 -26 38 vhcurveto
            return
          </CharString>
          <CharString index="118">
            62 rmoveto
            110 108 rlineto
            19 18 37 41 7 vvcurveto
            11 -29 41 -13 17 vhcurveto
            -84 109 -50 -28 return
          </CharString>
          <CharString index="119">
            575 rmoveto
            50 24 -64 callgsubr
            return
          </CharString>
          <CharString index="120">
            6 45 65 callsubr
            return
          </CharString>
          <CharString index="121">
            -12 callsubr
            -8 vhcurveto
            return
          </CharString>
          <CharString index="122">
            hvcurveto
            95 91 -29 32 return
          </CharString>
          <CharString index="123">
            hvcurveto
            -35 vlineto
            64 -147 rlineto
            -34 14 22 -12 49 hhcurveto
            68 31 31 0 hvcurveto
            53 -89 vlineto
            return
          </CharString>
          <CharString index="124">
            84 538 -30 callgsubr
            return
          </CharString>
          <CharString index="125">
            58 callgsubr
            16 -25 47 return
          </CharString>
          <CharString index="126">
            hvcurveto
            -21 34 rlineto
            return
          </CharString>
          <CharString index="127">
            3 23 8 47 12 20 4 5 rlinecurve
            7 8 25 6 44 hhcurveto
            68 hlineto
            2 3 18 return
          </CharString>
          <CharString index="128">
            57 336 rlineto
            return
          </CharString>
          <CharString index="129">
            -408 -599 rlineto
            30 249 rmoveto
            109 66 72 124 69 -44 54 -89 return
          </CharString>
          <CharString index="130">
            14 callgsubr
            12 -25 57 66 49 32 0 vhcurveto
            54 -72 vlineto
            return
          </CharString>
          <CharString index="131">
            hvcurveto
            42 253 -61 callgsubr
            -52 vlineto
            76 -17 -21 callgsubr
            return
          </CharString>
          <CharString index="132">
            -36 callgsubr
            256 54 callgsubr
            return
          </CharString>
          <CharString index="133">
            35 -18 13 -35 -123 -80 -93 -111 -30 return
          </CharString>
          <CharString index="134">
            -38 64 callsubr
            return
          </CharString>
          <CharString index="135">
            15 5 45 rlineto
            -244 hlineto
            -5 -47 54 -10 124 -341 -25 -191 return
          </CharString>
          <CharString index="136">
            -60 callgsubr
            50 return
          </CharString>
          <CharString index="137">
            -5 -9 -78 rlineto
            61 hlineto
            29 143 rlineto
            -150 hlineto
            41 175 rlineto
            return
          </CharString>
          <CharString index="138">
            45 23 37 36 38 -25 24 -34 -44 -23 -37 -36 -35 -9 callgsubr
            return
          </CharString>
          <CharString index="139">
            -57 -338 15 callgsubr
            return
          </CharString>
          <CharString index="140">
            -71 68 callgsubr
            return
          </CharString>
          <CharString index="141">
            -21 32 rlineto
            -8 -12 return
          </CharString>
          <CharString index="142">
            64 callsubr
            -15 return
          </CharString>
          <CharString index="143">
            50 0 vhcurveto
            43 callgsubr
            -25 -12 11 25 return
          </CharString>
          <CharString index="144">
            693 rmoveto
            -12 callgsubr
            -34 -44 -24 -37 -36 -34 return
          </CharString>
          <CharString index="145" raw="1">
            be469979 1d0b  
          </CharString>
          <CharString index="146">
            -74 63 callgsubr
            74 vlineto
            endchar
          </CharString>
          <CharString index="147">
            67 73 124 69 -44 53 -89 -111 -65 -80 -116 -71 return
          </CharString>
          <CharString index="148">
            -22 hhcurveto
            -22 -19 -10 -21 -21 hvcurveto
            -38 -40 24 -30 68 30 107 return
          </CharString>
          <CharString index="149">
            -114 rlineto
            61 hlineto
            28 177 rlineto
            return
          </CharString>
          <CharString index="150">
            556 rmoveto
            35 36 -78 105 rlineto
            22 return
          </CharString>
          <CharString index="151">
            hlineto
            22 170 rlineto
            return
          </CharString>
          <CharString index="152">
            50 -24 28 -75 return
          </CharString>
          <CharString index="153">
            hlineto
            19 165 rlineto
            163 hlineto
            8 72 rlineto
            -163 hlineto
            return
          </CharString>
          <CharString index="154">
            72 51 31 0 return
          </CharString>
          <CharString index="155">
            rmoveto
            87 hlineto
            15 92 rlineto
            56 hlineto
            10 57 rlineto
            -57 hlineto
            return
          </CharString>
          <CharString index="156">
            43 79 vvcurveto
            34 -20 14 callsubr
            return
          </CharString>
          <CharString index="157">
            -52 rmoveto
            491 708 -58 39 -493 -707 rlineto
            return
          </CharString>
          <CharString index="158">
            50 24 -64 callgsubr
            -36 return
          </CharString>
          <CharString index="159">
            rmoveto
            41 29 77 76 72 vvcurveto
            41 return
          </CharString>
          <CharString index="160">
            64 callgsubr
            51 return
          </CharString>
          <CharString index="161">
            -16 -14 -8 vhcurveto
            3 return
          </CharString>
          <CharString index="162">
            111 rlineto
            -48 hlineto
            -18 -48 rlineto
            -107 4 hlineto
            77 return
          </CharString>
          <CharString index="163">
            -53 callgsubr
            447 hlineto
            21 170 rlineto
            -54 hlineto
            return
          </CharString>
          <CharString index="164">
            -37 -16 8 8 -17 vhcurveto
            endchar
          </CharString>
          <CharString index="165">
            99 451 648 rmoveto
            -6 -51 70 -14 -56 return
          </CharString>
          <CharString index="166">
            24 hhcurveto
            20 21 15 25 21 hvcurveto
            46 53 -27 return
          </CharString>
          <CharString index="167">
            rmoveto
            21 -25 rlineto
            6 13 callgsubr
            return
          </CharString>
          <CharString index="168">
            hlineto
            56 366 rlineto
            19 17 return
          </CharString>
          <CharString index="169">
            53 13 6 45 rlineto
            return
          </CharString>
          <CharString index="170">
            hmoveto
            28 callgsubr
            return
          </CharString>
          <CharString index="171">
            -45 77 -72 rlineto
            return
          </CharString>
          <CharString index="172">
            rlineto
            -201 hlineto
            return
          </CharString>
          <CharString index="173">
            43 callsubr
            -17 return
          </CharString>
          <CharString index="174">
            -8 -12 -22 -12 -20 hhcurveto
            -24 -13 11 25 return
          </CharString>
          <CharString index="175">
            rlineto
            -407 hlineto
            return
          </CharString>
          <CharString index="176">
            -97 rlineto
            60 hlineto
            return
          </CharString>
        <CharString name=".notdef">
          -388 endchar
        </CharString>
        <CharString name="A">
          -15 -48 51 -107 callgsubr
          endchar
        </CharString>
        <CharString name="AE">
          199 -80 51 -58 callgsubr
        </CharString>
        <CharString name="AEacute">
          199 420 676 -91 callgsubr
          -476 -669 -58 callgsubr
        </CharString>
        <CharString name="Aacute">
          -15 234 675 -91 callgsubr
          -258 -668 -107 callgsubr
          endchar
        </CharString>
        <CharString name="Abreve">
          -15 494 813 rmoveto
          -28 22 rlineto
          -25 -26 -45 -40 -72 hhcurveto
          -46 -26 32 30 -15 hvcurveto
          -33 -12 -28 -20 -19 vvcurveto
          -49 61 -47 70 117 59 107 21 12 vhcurveto
          -542 -762 -107 callgsubr
          endchar
        </CharString>
        <CharString name="Acircumflex">
          -15 172 5 callsubr
          -304 -735 -107 callgsubr
          endchar
        </CharString>
        <CharString name="Adieresis">
          -15 206 37 callsubr
          24 -27 34 hvcurveto
          219 hmoveto
          -12 callgsubr
          -35 -52 callgsubr
          -473 -642 -107 callgsubr
          endchar
        </CharString>
        <CharString name="Agrave">
          -15 246 731 rmoveto
          147 -55 24 44 -181 119 rlineto
          -20 -11 -17 -18 -32 vvcurveto
          -20 10 -14 37 -13 vhcurveto
          -294 -680 -107 callgsubr
          endchar
        </CharString>
        <CharString name="Amacron">
          -15 161 18 callgsubr
          -535 -741 -107 callgsubr
          endchar
        </CharString>
        <CharString name="Aogonek">
          -15 427 hmoveto
          100 hlineto
          4 51 -63 13 -115 590 rlineto
          -75 hlineto
          -270 -589 -56 68 callgsubr
          208 hlineto
          6 51 -74 12 rlineto
          10 vlineto
          48 108 rlineto
          196 hlineto
          18 -105 rlineto
          -14 vlineto
          -66 -11 -4 -51 rlineto
          92 hlineto
          -43 -26 -37 -39 -50 3 callgsubr
          -21 32 rlineto
          67 callsubr
          40 30 28 23 17 hvcurveto
          -266 243 rmoveto
          104 230 9 26 3 1 2 -25 39 -232 rlineto
          endchar
        </CharString>
        <CharString name="Aring">
          -15 312 663 -55 callgsubr
          -367 -658 -107 callgsubr
          endchar
        </CharString>
        <CharString name="Aringacute">
          -15 315 864 -91 callgsubr
          36 -245 -55 callgsubr
          -382 -658 -107 callgsubr
          endchar
        </CharString>
        <CharString name="Atilde">
          -15 129 730 rmoveto
          27 -30 81 37 92 -31 rlineto
          -9 23 23 -7 59 callsubr
          30 -81 -37 -92 30 rlineto
          9 -23 -24 8 -23 hhcurveto
          -20 -23 -15 -25 -20 hvcurveto
          -222 -732 -107 callgsubr
          endchar
        </CharString>
        <CharString name="B">
          4 4 51 -36 callgsubr
          239 hlineto
          147 108 80 126 84 -71 36 -67 13 hvcurveto
          88 27 73 64 85 vvcurveto
          94 -73 39 -127 vhcurveto
          -228 -77 callsubr
          155 292 rmoveto
          34 226 rlineto
          0 13 4 20 63 34 -23 -61 -80 -47 -50 -117 -16 vhcurveto
          -40 -296 rmoveto
          34 245 rlineto
          98 -3 43 -37 -76 vvcurveto
          -75 -35 -59 -93 -24 -16 3 2 -7 vhcurveto
          endchar
        </CharString>
        <CharString name="C">
          0 435 192 -85 callsubr
        </CharString>
        <CharString name="Cacute">
          0 286 676 -26 callgsubr
          34 13 13 13 22 vvcurveto
          25 -14 22 -23 13 -38 callsubr
          rlineto
          173 -528 rmoveto
          -33 -114 rlineto
          -17 -20 -40 -11 -39 hhcurveto
          -103 -36 54 154 223 64 119 120 41 38 -10 -19 30 hvcurveto
          5 69 callsubr
          26 166 rlineto
          13 -48 -63 7 -66 hhcurveto
          -199 -137 -170 -246 -165 86 -90 157 69 73 14 25 59 hvcurveto
          15 164 rlineto
          endchar
        </CharString>
        <CharString name="Cacute.loclPLK">
          0 362 -40 callgsubr
          -49 -667 -85 callsubr
        </CharString>
        <CharString name="Ccaron">
          0 227 793 rmoveto
          19 callgsubr
          -16 callsubr
          rlineto
          171 -646 -85 callsubr
        </CharString>
        <CharString name="Ccedilla">
          0 202 6 callgsubr
          33 -12 48 hhcurveto
          51 52 7 callsubr
          18 vlineto
          66 3 60 16 46 19 15 164 rcurveline
          -59 hlineto
          -33 -114 rlineto
          -11 -13 -39 -17 -47 hhcurveto
          -102 -37 52 156 230 68 112 116 43 38 -10 -19 28 hvcurveto
          5 69 callsubr
          26 166 rlineto
          11 -43 -63 9 -71 hhcurveto
          -210 -126 -183 -233 -141 62 -104 157 -9 hvcurveto
          -26 -40 -14 callsubr
          endchar
        </CharString>
        <CharString name="Ccircumflex">
          0 254 720 -102 callsubr
          98 -594 -85 callsubr
        </CharString>
        <CharString name="Cdotaccent">
          0 393 -39 callgsubr
          42 -495 -85 callsubr
        </CharString>
        <CharString name="D">
          -37 callgsubr
          endchar
        </CharString>
        <CharString name="Dcaron">
          93 246 838 rmoveto
          27 callsubr
          -21 22 22 -21 12 hhcurveto
          12 23 20 32 38 hvcurveto
          81 69 -25 37 -117 -63 rlineto
          -351 -723 27 callgsubr
          217 147 166 241 158 -93 83 -177 hvcurveto
          -256 hlineto
          -7 -51 69 -14 36 callgsubr
          116 -2 rmoveto
          73 522 rlineto
          1 7 13 1 16 hhcurveto
          134 50 -58 -152 hvcurveto
          -202 -1 -83 -114 -145 hhcurveto
          -20 -25 1 1 -19 hvcurveto
          endchar
        </CharString>
        <CharString name="Dcroat">
          93 -20 callsubr
          116 -2 rmoveto
          33 -1 callsubr
          -89 -105 -139 hhcurveto
          -20 -25 1 1 -19 hvcurveto
          endchar
        </CharString>
        <CharString name="E">
          -24 4 51 -106 callgsubr
          endchar
        </CharString>
        <CharString name="Eacute">
          -26 249 -2 callgsubr
          31 -19 19 -17 -46 callsubr
          rlineto
          -222 -669 -106 callgsubr
          endchar
        </CharString>
        <CharString name="Ebreve">
          -24 493 813 -88 callgsubr
          -489 -762 -106 callgsubr
          endchar
        </CharString>
        <CharString name="Ecaron">
          -26 191 794 rmoveto
          19 callgsubr
          11 21 15 37 42 hvcurveto
          81 69 -26 37 -116 -64 -108 64 rlineto
          -224 -787 -106 callgsubr
          endchar
        </CharString>
        <CharString name="Ecircumflex">
          -26 186 720 -102 callsubr
          -265 -735 -106 callgsubr
          endchar
        </CharString>
        <CharString name="Edieresis">
          -26 218 689 rmoveto
          45 23 6 callsubr
          219 hmoveto
          45 23 6 callsubr
          -433 -638 -106 callgsubr
          endchar
        </CharString>
        <CharString name="Edotaccent">
          -26 326 20 callgsubr
          -322 -636 -106 callgsubr
          endchar
        </CharString>
        <CharString name="Egrave">
          -26 251 731 -84 callgsubr
          -247 -680 -106 callgsubr
          endchar
        </CharString>
        <CharString name="Emacron">
          -26 173 18 callgsubr
          -495 -741 -106 callgsubr
          endchar
        </CharString>
        <CharString name="Eng">
          58 callsubr
          -393 -1 -20 rlineto
          -5 hlineto
          -5 20 -188 458 rlineto
          -176 hlineto
          -7 -51 69 -14 -73 -518 33 callsubr
          218 hlineto
          5 51 -70 14 60 418 rlineto
          4 hlineto
          3 -16 187 -452 -9 -52 -13 -21 -6 -10 rlinecurve
          -5 -3 -22 -6 -28 hhcurveto
          -77 hlineto
          0 -14 -17 -27 vvcurveto
          -34 18 -13 43 115 91 86 125 17 vhcurveto
          75 542 71 -10 callsubr
          endchar
        </CharString>
        <CharString name="Eogonek">
          -26 495 474 rmoveto
          26 174 rlineto
          -435 -72 callsubr
          33 callsubr
          360 hlineto
          -42 -26 -37 -39 -50 64 callgsubr
          50 65 43 36 callsubr
          40 30 28 22 17 hvcurveto
          29 hlineto
          21 170 rlineto
          -54 hlineto
          -39 -109 rlineto
          -97 hlineto
          -30 1 -30 3 -24 2 34 239 rcurveline
          124 hlineto
          2 -65 rlineto
          50 hlineto
          25 184 rlineto
          -52 hlineto
          -22 -62 rlineto
          -120 hlineto
          32 218 66 6 rlineto
          105 -113 hlineto
          endchar
        </CharString>
        <CharString name="Eth">
          92 -20 callsubr
          115 -2 rmoveto
          34 -1 callsubr
          -90 -105 -138 hhcurveto
          -20 -25 1 1 -20 hvcurveto
          endchar
        </CharString>
        <CharString name="Euro">
          16 394 660 rmoveto
          -164 -94 -108 -141 -42 hvcurveto
          -51 hlineto
          -30 -69 rlineto
          349 hlineto
          30 69 rlineto
          -185 hlineto
          98 20 45 91 93 hhcurveto
          33 35 -11 -18 23 hvcurveto
          5 69 callsubr
          26 166 rlineto
          12 -42 -68 8 -43 hhcurveto
          -582 vmoveto
          -19 -22 -37 -9 -28 hhcurveto
          -89 -25 84 90 -5 hvcurveto
          123 hlineto
          32 70 rlineto
          -314 hlineto
          -31 -70 rlineto
          71 hlineto
          -140 12 70 -95 139 hhcurveto
          57 73 17 22 51 hvcurveto
          15 164 rlineto
          -60 hlineto
          endchar
        </CharString>
        <CharString name="Euro.osf">
          -10 75 348 rmoveto
          -30 -70 rlineto
          316 hlineto
          31 70 rlineto
          -171 hlineto
          82 18 47 31 80 hhcurveto
          42 29 -8 -3 10 hvcurveto
          6 -88 rlineto
          57 hlineto
          17 147 rlineto
          11 -32 -40 12 -85 hhcurveto
          -128 -94 -69 -115 -41 hvcurveto
          -80 -117 rmoveto
          -32 -70 rlineto
          86 hlineto
          -131 84 -41 132 86 60 21 15 34 vhcurveto
          16 146 rlineto
          -56 hlineto
          -28 -95 rlineto
          -5 -11 -29 -15 -49 hhcurveto
          -61 -56 18 87 hvcurveto
          106 hlineto
          31 70 rlineto
          endchar
        </CharString>
        <CharString name="F">
          -52 4 51 -36 callgsubr
          285 hlineto
          5 49 -97 13 32 220 rlineto
          132 hlineto
          2 -66 rlineto
          48 hlineto
          27 190 rlineto
          -50 hlineto
          -19 -62 rlineto
          -133 hlineto
          34 234 67 8 rlineto
          108 -110 61 hlineto
          27 172 rlineto
          -440 -77 callsubr
          endchar
        </CharString>
        <CharString name="G">
          37 405 24 -94 callgsubr
        </CharString>
        <CharString name="G_tilde.loclGUA">
          37 209 -90 callsubr
          151 -759 -94 callgsubr
        </CharString>
        <CharString name="Gbreve">
          34 541 813 rmoveto
          -28 22 rlineto
          -25 -26 -45 -40 -72 hhcurveto
          -46 -25 32 30 -16 hvcurveto
          -33 -12 -28 -20 -19 vvcurveto
          -49 61 -47 70 117 59 107 21 12 vhcurveto
          -139 -789 -43 callsubr
          endchar
        </CharString>
        <CharString name="Gcaron">
          37 387 679 -69 callsubr
          18 -655 -94 callgsubr
        </CharString>
        <CharString name="Gcircumflex">
          37 252 720 -102 callsubr
          70 -762 -94 callgsubr
        </CharString>
        <CharString name="Gcommaaccent">
          34 402 24 -43 callsubr
          -185 -209 -3 callgsubr
        </CharString>
        <CharString name="Gdotaccent">
          37 391 -39 callgsubr
          14 -663 -94 callgsubr
        </CharString>
        <CharString name="H">
          124 3 51 -65 callsubr
          endchar
        </CharString>
        <CharString name="Hbar">
          124 673 597 rmoveto
          51 callgsubr
          -225 hlineto
          13 93 71 14 51 callgsubr
          -67 hlineto
          -9 -61 rlineto
          68 hlineto
          -52 -364 -71 -14 12 callgsubr
          28 201 rlineto
          225 hlineto
          -28 -201 33 callsubr
          256 hlineto
          6 51 -70 14 53 364 rlineto
          67 hlineto
          9 61 rlineto
          -68 hlineto
          13 93 rlineto
          -151 -255 rmoveto
          -225 hlineto
          15 101 rlineto
          225 hlineto
          endchar
        </CharString>
        <CharString name="Hcircumflex">
          124 253 720 -102 callsubr
          -333 -735 -65 callsubr
          endchar
        </CharString>
        <CharString name="I">
          -215 4 51 -80 callgsubr
          endchar
        </CharString>
        <CharString name="IJ">
          198 4 51 -80 callgsubr
          263 115 -82 callsubr
        </CharString>
        <CharString name="Iacute">
          -215 151 -2 callgsubr
          31 -18 -48 callgsubr
          rlineto
          -124 -669 -36 callgsubr
          255 hlineto
          7 51 -69 14 -60 callsubr
          endchar
        </CharString>
        <CharString name="Iacute_J.loclNLD">
          198 193 676 -91 callgsubr
          458 -44 -91 callgsubr
          -599 -669 -80 callgsubr
          263 115 -82 callsubr
        </CharString>
        <CharString name="Ibreve">
          -215 391 813 -88 callgsubr
          -387 -762 -80 callgsubr
          endchar
        </CharString>
        <CharString name="Icircumflex">
          -220 76 5 callsubr
          -161 -735 1 callgsubr
        </CharString>
        <CharString name="Idieresis">
          -215 117 689 rmoveto
          44 24 6 callsubr
          211 63 callsubr
          38 -24 24 -34 -44 -24 -38 -36 -34 24 -27 34 hvcurveto
          -324 -638 -36 callgsubr
          255 hlineto
          7 51 -69 14 -60 callsubr
          endchar
        </CharString>
        <CharString name="Idotaccent">
          -217 226 20 callgsubr
          -224 -636 1 callgsubr
        </CharString>
        <CharString name="Igrave">
          -215 154 731 34 callgsubr
          44 -181 119 rlineto
          -19 -11 -17 -18 -32 vvcurveto
          -20 10 30 callgsubr
          -150 -680 -36 callgsubr
          255 hlineto
          7 51 -69 14 -60 callsubr
          endchar
        </CharString>
        <CharString name="Imacron">
          -215 79 792 rmoveto
          -10 -75 rlineto
          299 hlineto
          9 75 rlineto
          -373 -741 -36 callgsubr
          255 hlineto
          7 51 -69 14 -60 callsubr
          endchar
        </CharString>
        <CharString name="Iogonek">
          -215 4 51 -36 callgsubr
          111 hlineto
          -42 -25 -37 -39 -51 vvcurveto
          -49 38 -19 51 64 44 36 callsubr
          39 30 29 22 17 hvcurveto
          86 hlineto
          7 51 -69 14 -60 callsubr
          endchar
        </CharString>
        <CharString name="Itilde">
          -215 43 -90 callsubr
          -84 -732 -80 callgsubr
          endchar
        </CharString>
        <CharString name="J">
          -134 6 180 -82 callsubr
        </CharString>
        <CharString name="Jcircumflex">
          -134 188 720 -102 callsubr
          -265 -606 -82 callsubr
        </CharString>
        <CharString name="K">
          0 4 17 callgsubr
          34 239 rlineto
          19 hlineto
          129 -264 rlineto
          -27 13 11 -13 29 hhcurveto
          124 hlineto
          7 51 -71 15 -150 293 -9 callsubr
          70 -14 -74 -518 rlineto
          endchar
        </CharString>
        <CharString name="Kcommaaccent">
          0 2 51 -36 callgsubr
          255 hlineto
          7 51 -69 14 34 239 rlineto
          17 hlineto
          130 -264 rlineto
          -27 13 11 -13 29 hhcurveto
          125 hlineto
          7 51 -72 16 -149 292 -9 callsubr
          69 -14 36 callgsubr
          130 -250 rmoveto
          22 -25 rlineto
          5 2 100 43 79 vvcurveto
          34 -20 -29 callgsubr
        </CharString>
        <CharString name="L">
          -97 -15 callsubr
          endchar
        </CharString>
        <CharString name="Lacute">
          -97 150 -2 callgsubr
          31 -19 19 -17 -46 callsubr
          rlineto
          -125 -669 -43 callgsubr
          endchar
        </CharString>
        <CharString name="Lcaron">
          -97 384 570 rmoveto
          21 -24 rlineto
          6 2 88 47 83 vvcurveto
          28 -15 22 -36 -26 -14 -15 -14 -8 vhcurveto
          4 -5 8 -17 -25 vvcurveto
          -48 -28 -34 0 vhcurveto
          -382 -519 -43 callgsubr
          endchar
        </CharString>
        <CharString name="Lcommaaccent">
          -97 2 51 -43 callgsubr
          67 -250 rmoveto
          22 -25 rlineto
          4 callsubr
        </CharString>
        <CharString name="Ldot">
          -97 -15 callsubr
          291 240 rmoveto
          49 28 -17 callsubr
        </CharString>
        <CharString name="Lslash">
          -98 2 51 -2 callsubr
          -41 -112 rlineto
          -109 hlineto
          -43 7 34 241 112 44 rlineto
          66 vlineto
          -103 -42 30 209 -39 callsubr
          69 -14 -36 -257 -90 -36 rlineto
          -63 vlineto
          80 31 -27 -193 rlineto
          endchar
        </CharString>
        <CharString name="M">
          223 5 51 -36 callgsubr
          218 hlineto
          5 51 -70 14 57 400 1 25 rlineto
          4 hlineto
          77 -490 rlineto
          63 hlineto
          218 493 rlineto
          5 hlineto
          -7 -33 -57 -395 33 callsubr
          255 hlineto
          7 51 -69 47 callgsubr
          71 -10 callsubr
          -211 hlineto
          -194 -435 -9 -33 -3 -1 -2 34 -64 435 rlineto
          -207 hlineto
          -7 -51 69 -14 36 callgsubr
          endchar
        </CharString>
        <CharString name="N">
          99 -35 callsubr
          endchar
        </CharString>
        <CharString name="Nacute">
          99 317 678 rmoveto
          147 54 rlineto
          37 53 callgsubr
          -27 10 vhcurveto
          -171 -119 rlineto
          -292 -670 -96 callsubr
          endchar
        </CharString>
        <CharString name="Nacute.loclPLK">
          99 357 -40 callgsubr
          -477 -808 -96 callsubr
          endchar
        </CharString>
        <CharString name="Ncaron">
          99 248 793 rmoveto
          77 -72 rlineto
          -15 16 26 -27 14 hhcurveto
          11 20 16 36 42 hvcurveto
          81 69 -25 37 -117 -63 -107 64 rlineto
          -284 -787 -96 callsubr
          endchar
        </CharString>
        <CharString name="Ncommaaccent">
          99 -35 callsubr
          142 -250 -33 callsubr
        </CharString>
        <CharString name="Ntilde">
          99 212 -90 callsubr
          -255 -732 -96 callsubr
          endchar
        </CharString>
        <CharString name="O">
          106 280 -11 -105 callsubr
          endchar
        </CharString>
        <CharString name="OE">
          248 263 hmoveto
          462 hlineto
          21 170 rlineto
          -54 hlineto
          -40 -109 rlineto
          -97 hlineto
          -29 1 -31 3 -23 2 33 239 rcurveline
          124 hlineto
          2 -65 rlineto
          51 hlineto
          24 184 rlineto
          -51 hlineto
          -22 -62 rlineto
          -120 hlineto
          31 218 56 callgsubr
          -441 hlineto
          -200 -135 -172 -229 -169 97 -78 141 hvcurveto
          31 59 rmoveto
          -119 -21 98 94 hvcurveto
          236 1 70 103 120 hhcurveto
          33 28 -3 -4 23 hvcurveto
          36 callgsubr
          -3 -19 -20 -3 -23 hhcurveto
          endchar
        </CharString>
        <CharString name="Oacute">
          106 277 726 rmoveto
          23 -43 148 54 rlineto
          36 13 10 15 20 vvcurveto
          31 -18 20 -18 9 vhcurveto
          -178 -856 -105 callsubr
          endchar
        </CharString>
        <CharString name="Oacute.loclPLK">
          106 342 -40 callgsubr
          -184 -870 -105 callsubr
          endchar
        </CharString>
        <CharString name="Obreve">
          106 539 813 -88 callgsubr
          -259 -824 -105 callsubr
          endchar
        </CharString>
        <CharString name="Ocircumflex">
          106 235 726 rmoveto
          25 -37 119 60 110 -63 37 45 -77 71 -17 14 -27 27 -14 1 rlinecurve
          -11 -19 -17 -34 -43 hvcurveto
          -38 -804 -105 callsubr
          endchar
        </CharString>
        <CharString name="Odieresis">
          106 268 695 rmoveto
          31 callsubr
          219 hmoveto
          31 callsubr
          -207 -706 -105 callsubr
          endchar
        </CharString>
        <CharString name="Ograve">
          106 305 737 rmoveto
          148 -54 23 43 -181 119 rlineto
          -20 -11 -17 -18 -31 vvcurveto
          -20 11 -15 36 -13 vhcurveto
          -25 -748 -105 callsubr
          endchar
        </CharString>
        <CharString name="Ohorn">
          106 779 663 -92 callgsubr
        </CharString>
        <CharString name="Ohungarumlaut">
          106 247 667 rmoveto
          88 61 rlineto
          24 16 22 23 24 vvcurveto
          24 -26 25 -36 2 vhcurveto
          -106 -144 rlineto
          211 -31 rmoveto
          87 61 24 16 22 23 1 24 rlinecurve
          24 -27 25 -36 2 vhcurveto
          -106 -144 rlineto
          -109 -709 -105 callsubr
          endchar
        </CharString>
        <CharString name="Omacron">
          106 219 792 2 callsubr
          -265 -803 -105 callsubr
          endchar
        </CharString>
        <CharString name="Oslash">
          106 168 -95 -57 callsubr
        </CharString>
        <CharString name="Oslashacute">
          106 266 676 -91 callgsubr
          -74 -815 -57 callsubr
        </CharString>
        <CharString name="Otilde">
          106 193 736 rmoveto
          27 -30 81 38 91 -32 rlineto
          -8 24 23 -8 59 callsubr
          31 -81 -38 -92 31 rlineto
          8 -23 -24 8 -23 hhcurveto
          -21 -22 -15 -25 -20 hvcurveto
          42 -800 -105 callsubr
          endchar
        </CharString>
        <CharString name="P">
          -31 -3 hmoveto
          275 hlineto
          6 51 -87 47 callgsubr
          rlineto
          2 11 15 2 10 hhcurveto
          70 35 -26 -80 -93 -34 -72 -121 -9 hvcurveto
          -44 13 vlineto
          193 2 73 104 115 vvcurveto
          115 -74 49 -137 vhcurveto
          -232 -34 callsubr
          -74 -518 -71 -14 rlineto
          endchar
        </CharString>
        <CharString name="Q">
          106 158 -112 rmoveto
          31 -39 55 25 179 -40 rlineto
          -6 27 25 -7 17 hhcurveto
          22 19 9 16 12 hvcurveto
          48 62 -25 26 -59 -30 -177 41 -17 4 -18 4 -15 2 rlinecurve
          34 35 rlineto
          201 18 101 172 222 vvcurveto
          140 -73 118 -181 -190 -139 -160 -253 -160 92 -89 132 -8 vhcurveto
          44 60 -61 callsubr
        </CharString>
        <CharString name="R">
          -9 -3 hmoveto
          -84 callsubr
          endchar
        </CharString>
        <CharString name="Racute">
          -13 250 676 rmoveto
          148 25 callgsubr
          -232 -720 rmoveto
          -70 callsubr
          endchar
        </CharString>
        <CharString name="Rcaron">
          -13 309 679 rmoveto
          -16 callsubr
          -37 -45 19 callgsubr
          -314 -679 rmoveto
          -70 callsubr
          endchar
        </CharString>
        <CharString name="Rcommaaccent">
          -13 -5 hmoveto
          -70 callsubr
          -15 -543 rmoveto
          4 callsubr
        </CharString>
        <CharString name="S">
          -100 177 -11 -81 callgsubr
          endchar
        </CharString>
        <CharString name="Sacute">
          -100 216 -2 callgsubr
          30 -18 20 -18 9 vhcurveto
          -181 -118 rlineto
          -16 -731 rmoveto
          136 92 78 126 80 -68 60 -67 58 hvcurveto
          -74 64 -34 33 39 vvcurveto
          40 19 33 67 54 42 -18 -7 11 -63 callgsubr
          -80 51 -43 93 -81 hvcurveto
          78 -66 20 -28 -50 10 callgsubr
          endchar
        </CharString>
        <CharString name="Sacute.loclPLK">
          -100 258 -40 callgsubr
          -203 -870 -81 callgsubr
          endchar
        </CharString>
        <CharString name="Scaron">
          -100 282 680 rmoveto
          11 20 15 36 42 hvcurveto
          81 70 -25 37 -117 -64 -107 64 -38 35 callsubr
          16 26 -26 14 hhcurveto
          -105 -691 rmoveto
          136 92 78 126 82 -72 61 -69 60 hvcurveto
          -72 62 -30 31 38 -59 callgsubr
          -79 49 -42 93 -81 hvcurveto
          78 -67 22 -28 -51 vvcurveto
          -46 -32 -39 -70 -44 -45 14 19 -20 vhcurveto
          -11 116 rlineto
          -63 hlineto
          -18 -165 rlineto
          -16 21 70 -29 86 hhcurveto
          endchar
        </CharString>
        <CharString name="Scedilla">
          -100 173 -192 rmoveto
          51 52 7 callsubr
          18 vlineto
          125 7 83 76 120 vvcurveto
          80 -66 58 -65 57 vhcurveto
          -75 65 -37 34 40 vvcurveto
          40 19 33 67 54 42 -18 -7 11 -63 callgsubr
          -81 53 -44 95 -82 hvcurveto
          76 -66 18 -26 -49 vvcurveto
          -46 -32 -39 -70 -76 -33 33 0 vhcurveto
          -11 116 rlineto
          -63 hlineto
          -18 -165 18 -14 55 -23 71 -6 rlinecurve
          -26 -41 -14 callsubr
          -24 -41 rlineto
          -16 24 33 -12 48 hhcurveto
          endchar
        </CharString>
        <CharString name="Scircumflex">
          -100 150 720 -102 callsubr
          -56 -797 -81 callgsubr
          endchar
        </CharString>
        <CharString name="Scommaaccent">
          -100 177 -11 rmoveto
          136 92 78 126 80 -67 59 -67 59 hvcurveto
          -75 64 -34 32 40 vvcurveto
          40 19 33 67 54 42 -18 -7 11 -63 callgsubr
          -80 52 -44 94 -81 hvcurveto
          77 -67 19 -27 -49 10 callgsubr
          -52 -199 rmoveto
          6 2 99 43 79 vvcurveto
          34 -20 -29 callgsubr
        </CharString>
        <CharString name="T">
          -24 callgsubr
          endchar
        </CharString>
        <CharString name="Tbar">
          -50 517 471 rmoveto
          28 177 rlineto
          -497 hlineto
          -19 -177 rlineto
          58 hlineto
          37 114 rlineto
          113 hlineto
          -31 -220 rlineto
          -167 hlineto
          -9 -62 rlineto
          167 hlineto
          -34 -238 33 callsubr
          256 54 callgsubr
          33 238 rlineto
          171 hlineto
          10 62 rlineto
          -172 hlineto
          30 220 rlineto
          108 hlineto
          -2 -114 rlineto
          endchar
        </CharString>
        <CharString name="Tcaron">
          -50 302 679 rmoveto
          -16 callsubr
          -37 35 callsubr
          15 27 -27 13 hhcurveto
          -219 -679 rmoveto
          255 hlineto
          -41 callgsubr
          -71 -14 rlineto
          endchar
        </CharString>
        <CharString name="Thorn">
          -41 -4 hmoveto
          255 hlineto
          7 51 -70 14 13 86 rlineto
          -1 12 14 -1 18 hhcurveto
          181 76 88 130 101 -76 44 -128 hvcurveto
          -47 hlineto
          11 71 -51 callgsubr
          -71 -14 rlineto
          235 150 rmoveto
          -10 -10 2 1 -10 hvcurveto
          34 244 rlineto
          2 13 13 1 13 hhcurveto
          62 35 -21 -80 -93 -32 -56 -108 hvcurveto
          endchar
        </CharString>
        <CharString name="U">
          85 121 583 -104 callgsubr
          endchar
        </CharString>
        <CharString name="Uacute">
          82 317 680 55 callgsubr
          36 13 10 14 20 vvcurveto
          31 -18 20 -18 9 -38 callsubr
          rlineto
          -23 -734 -67 callsubr
        </CharString>
        <CharString name="Ubreve">
          85 547 813 -88 callgsubr
          -426 -230 -104 callgsubr
          endchar
        </CharString>
        <CharString name="Ucircumflex">
          82 239 723 rmoveto
          26 -37 118 60 111 -63 37 45 -78 71 -16 14 -28 27 -13 1 rlinecurve
          -11 -19 -17 -34 -43 hvcurveto
          -202 -207 -104 callgsubr
          endchar
        </CharString>
        <CharString name="Udieresis">
          82 276 693 rmoveto
          44 24 36 37 37 -25 24 -34 -52 callgsubr
          219 hmoveto
          44 24 36 37 37 -25 24 -34 -44 -24 -37 -36 -34 24 -27 35 hvcurveto
          -374 -110 -104 callgsubr
          endchar
        </CharString>
        <CharString name="Ugrave">
          82 310 735 34 callgsubr
          43 -181 119 rlineto
          -20 -11 -17 -18 -31 vvcurveto
          -20 11 30 callgsubr
          -189 -152 -104 callgsubr
          endchar
        </CharString>
        <CharString name="Uhorn">
          85 725 717 -98 callsubr
          endchar
        </CharString>
        <CharString name="Uhungarumlaut">
          82 265 667 rmoveto
          87 61 24 16 22 23 1 24 rlinecurve
          -4 callgsubr
          -136 -709 -67 callsubr
        </CharString>
        <CharString name="Umacron">
          82 225 18 callgsubr
          -430 -209 -104 callgsubr
          endchar
        </CharString>
        <CharString name="Uogonek">
          82 325 -183 rmoveto
          64 43 50 0 hvcurveto
          -17 callgsubr
          41 33 30 23 16 hvcurveto
          103 32 44 87 21 157 42 305 rcurveline
          72 -10 callsubr
          -218 -83 callgsubr
          11 11 3 1 6 vhcurveto
          1 -3 rlineto
          -35 -25 -30 -36 -44 53 callsubr
          vhcurveto
          endchar
        </CharString>
        <CharString name="Uring">
          82 382 663 -55 callgsubr
          -118 -720 -67 callsubr
        </CharString>
        <CharString name="Utilde">
          85 199 -90 callsubr
          -123 -200 -104 callgsubr
          endchar
        </CharString>
        <CharString name="V">
          -28 184 -9 rmoveto
          73 hlineto
          268 592 55 -50 callsubr
          -208 -35 callgsubr
          75 -12 rlineto
          -10 vlineto
          -173 -394 -9 -27 -3 -1 -2 29 -66 390 rlineto
          14 vlineto
          67 11 5 51 rlineto
          -251 hlineto
          -4 -51 62 -13 rlineto
          endchar
        </CharString>
        <CharString name="W">
          266 147 -8 -92 callsubr
        </CharString>
        <CharString name="Wacute">
          266 439 676 -91 callgsubr
          -268 -728 -92 callsubr
        </CharString>
        <CharString name="Wcircumflex">
          266 332 720 -102 callsubr
          -268 -794 -92 callsubr
        </CharString>
        <CharString name="Wdieresis">
          266 363 693 -76 callgsubr
          -435 -701 -92 callsubr
        </CharString>
        <CharString name="Wgrave">
          266 369 731 -84 callgsubr
          -222 -739 -92 callsubr
        </CharString>
        <CharString name="X">
          5 -47 45 rmoveto
          -7 -45 rlineto
          223 hlineto
          5 45 -53 14 rlineto
          16 vlineto
          134 176 78 -170 rlineto
          -20 vlineto
          -62 -16 -3 -45 rlineto
          249 hlineto
          4 45 -59 16 -126 283 189 241 56 15 6 48 rlineto
          -203 hlineto
          -6 -47 53 -12 rlineto
          -16 vlineto
          -124 -162 -69 157 rlineto
          20 vlineto
          65 15 5 45 rlineto
          -256 hlineto
          -5 -45 53 -11 123 -272 -199 -257 rlineto
          endchar
        </CharString>
        <CharString name="Y">
          -54 97 45 -93 callgsubr
          endchar
        </CharString>
        <CharString name="Y.loclGUA">
          88 397 648 -101 callsubr
        </CharString>
        <CharString name="Yacute">
          -54 237 680 55 callgsubr
          36 13 11 14 20 vvcurveto
          31 -19 20 -18 9 -38 callsubr
          rlineto
          -124 -723 rmoveto
          256 hlineto
          5 45 -70 14 29 204 178 327 53 13 13 callsubr
          -5 -45 65 -14 rlineto
          -12 vlineto
          -129 -250 rlineto
          -7 hlineto
          -80 239 rlineto
          22 vlineto
          68 28 callsubr
          -72 -14 rlineto
          endchar
        </CharString>
        <CharString name="Yacute.loclGUA">
          88 349 676 -91 callgsubr
          72 -72 -101 callsubr
        </CharString>
        <CharString name="Ycircumflex">
          -54 177 720 -102 callsubr
          -163 -741 -93 callgsubr
          endchar
        </CharString>
        <CharString name="Ycircumflex.loclGUA">
          88 242 720 -102 callsubr
          72 -138 -101 callsubr
        </CharString>
        <CharString name="Ydieresis">
          -54 197 37 callsubr
          23 -27 35 hvcurveto
          219 hmoveto
          -12 callgsubr
          -35 -52 callgsubr
          -321 -648 rmoveto
          -5 -45 rlineto
          256 hlineto
          5 45 -70 14 29 204 178 327 53 13 13 callsubr
          -5 -45 65 -14 rlineto
          -12 vlineto
          -129 -250 rlineto
          -7 hlineto
          -80 239 rlineto
          22 vlineto
          68 28 callsubr
          rlineto
          endchar
        </CharString>
        <CharString name="Ydieresis.loclGUA">
          88 273 693 -76 callgsubr
          -95 -45 -101 callsubr
        </CharString>
        <CharString name="Ygrave">
          -54 214 731 -84 callgsubr
          -117 -686 -93 callgsubr
          endchar
        </CharString>
        <CharString name="Ygrave.loclGUA">
          88 279 731 -84 callgsubr
          118 -83 -101 callsubr
        </CharString>
        <CharString name="Z">
          -31 -8 60 -71 callgsubr
          endchar
        </CharString>
        <CharString name="Zacute">
          -31 228 676 rmoveto
          147 25 callgsubr
          -190 -720 rmoveto
          -45 callgsubr
          -385 -510 rlineto
          endchar
        </CharString>
        <CharString name="Zacute.loclPLK">
          -31 292 -40 callgsubr
          -422 -799 -71 callgsubr
          endchar
        </CharString>
        <CharString name="Zcaron">
          -31 295 679 rmoveto
          -16 callsubr
          -37 -45 19 callgsubr
          -281 -679 rmoveto
          -45 callgsubr
          -385 -510 rlineto
          endchar
        </CharString>
        <CharString name="Zdotaccent">
          -31 292 -39 callgsubr
          -302 -627 rmoveto
          24 -60 rlineto
          -45 callgsubr
          rlineto
          endchar
        </CharString>
        <CharString name="a">
          -35 298 105 rmoveto
          -107 callsubr
          endchar
        </CharString>
        <CharString name="aacute">
          -29 268 -53 callsubr
          -90 -601 -95 callgsubr
        </CharString>
        <CharString name="abreve">
          -31 289 562 rmoveto
          145 37 143 0 hvcurveto
          -34 17 rlineto
          0 -44 -81 -78 -57 -20 41 42 -5 vhcurveto
          -12 -40 -12 -11 -11 hvcurveto
          -6 -4 -5 -6 -15 vvcurveto
          -47 45 -67 85 vhcurveto
          -141 -572 -95 callgsubr
        </CharString>
        <CharString name="acircumflex">
          -31 401 66 callsubr
          -12 18 -16 hhcurveto
          -14 -24 -24 -28 -28 hvcurveto
          -96 -93 30 -32 119 69 rlineto
          -152 -639 -95 callgsubr
        </CharString>
        <CharString name="acute">
          -345 84 554 -80 callsubr
          endchar
        </CharString>
        <CharString name="acutecomb">
          -118 554 -80 callsubr
          endchar
        </CharString>
        <CharString name="acutecomb.case">
          -121 676 -91 callgsubr
          endchar
        </CharString>
        <CharString name="adieresis">
          -31 204 -41 callsubr
          -254 -592 -95 callgsubr
        </CharString>
        <CharString name="ae">
          115 494 64 -64 callsubr
        </CharString>
        <CharString name="aeacute">
          115 488 -32 callsubr
          102 -490 -64 callsubr
        </CharString>
        <CharString name="agrave">
          -31 274 608 rmoveto
          96 -54 29 -3 callsubr
          24 -503 -47 callgsubr
        </CharString>
        <CharString name="amacron">
          -31 155 685 rmoveto
          -10 -76 rlineto
          314 hlineto
          9 76 rlineto
          -170 -580 -47 callgsubr
        </CharString>
        <CharString name="ampersand">
          70 645 445 rmoveto
          -80 -38 -100 22 -11 2 -15 5 -13 2 rlinecurve
          15 24 7 28 31 vvcurveto
          79 -62 50 -99 -108 -86 -79 -98 -47 12 -28 50 -66 vhcurveto
          -81 -41 -55 -81 -78 vvcurveto
          -94 68 -49 129 68 60 19 37 48 vhcurveto
          49 -60 7 -93 rlineto
          57 hlineto
          12 89 rlineto
          3 32 1 9 2 vvcurveto
          20 -5 17 -18 23 vhcurveto
          -33 40 36 57 18 67 1 70 rlinecurve
          13 vlineto
          -3 12 7 -1 13 hhcurveto
          29 23 11 23 19 hvcurveto
          46 52 rlineto
          -250 -233 rmoveto
          -180 222 rlineto
          -35 43 -14 31 32 vvcurveto
          50 34 33 53 55 26 -27 -53 -59 -8 -16 -67 -71 vhcurveto
          26 -32 76 35 51 -15 rlineto
          2 -27 0 -17 -16 vvcurveto
          -42 -6 -38 -13 -33 vhcurveto
          -181 -130 rmoveto
          -74 -37 37 74 51 22 52 37 31 hvcurveto
          169 -205 rlineto
          -26 -33 -41 -14 -43 hhcurveto
          endchar
        </CharString>
        <CharString name="aogonek">
          -36 463 -101 rmoveto
          -8 -12 65 callgsubr
          -25 -13 11 25 52 57 38 16 8 hvcurveto
          25 13 rlineto
          54 -71 vlineto
          69 437 rlineto
          -62 hlineto
          -32 -37 rlineto
          13 -24 -48 20 -81 callsubr
          -27 callgsubr
          -13 -22 -6 -18 -18 vvcurveto
          -31 19 -19 51 vhcurveto
          7 hlineto
          -39 -25 -33 -37 -48 64 callgsubr
          50 65 43 50 0 vhcurveto
          -182 301 rmoveto
          3 callsubr
        </CharString>
        <CharString name="approxequal">
          -31 367 289 rmoveto
          21 19 10 20 21 hvcurveto
          39 41 -23 30 -69 -31 -120 23 rlineto
          5 -25 -38 5 41 callsubr
          -18 rlineto
          -6 28 44 -8 26 hhcurveto
          -150 vmoveto
          21 19 10 21 21 hvcurveto
          39 40 -23 31 -69 -31 -120 23 rlineto
          4 -25 -38 6 41 callsubr
          -19 rlineto
          -6 28 44 -8 26 hhcurveto
          endchar
        </CharString>
        <CharString name="aring">
          -36 305 559 rmoveto
          74 36 53 51 55 -35 25 -56 -72 -40 -54 -51 -51 28 -28 65 hvcurveto
          7 48 rmoveto
          -23 -10 11 23 40 9 14 26 20 13 -8 -26 -40 -10 -14 -25 hvcurveto
          -164 -617 -95 callgsubr
        </CharString>
        <CharString name="aringacute">
          -35 307 803 -80 callsubr
          27 -281 -40 callsubr
          -13 -502 rmoveto
          -107 callsubr
          endchar
        </CharString>
        <CharString name="asciicircum">
          -17 283 649 rmoveto
          -238 -387 rlineto
          86 hlineto
          172 279 99 -279 rlineto
          86 hlineto
          -143 387 rlineto
          endchar
        </CharString>
        <CharString name="asciitilde">
          -78 36 254 rmoveto
          26 -30 79 36 104 -32 rlineto
          -8 27 19 -5 28 hhcurveto
          21 23 13 25 21 hvcurveto
          45 53 -25 31 -80 -37 -104 31 rlineto
          7 -26 -24 7 -25 hhcurveto
          -22 -23 -14 -25 -20 hvcurveto
          endchar
        </CharString>
        <CharString name="asterisk">
          -163 162 346 rmoveto
          34 8 46 25 6 hvcurveto
          16 68 96 -96 rlineto
          36 23 14 16 18 vvcurveto
          29 -30 11 -23 13 vhcurveto
          -60 33 127 65 rlineto
          47 -13 -12 17 -21 hhcurveto
          -21 -17 -18 -13 -16 hvcurveto
          -59 -54 -13 139 rlineto
          -26 hlineto
          -46 -10 -21 -20 -16 9 -18 7 -17 hvcurveto
          27 -65 -137 22 rlineto
          -11 -24 -5 -17 -12 vvcurveto
          -30 26 -6 17 9 19 2 1 9 vhcurveto
          71 9 -66 -126 rlineto
          -20 24 17 -11 14 hhcurveto
          58 159 rmoveto
          -30 9 2 32 29 11 17 -26 rlineto
          endchar
        </CharString>
        <CharString name="at">
          215 369 -111 rmoveto
          72 151 46 22 hvcurveto
          -20 41 rlineto
          -15 -36 -73 -22 -75 hhcurveto
          -169 -95 89 159 223 113 127 197 132 85 -85 -133 -148 -33 -75 -64 -25 -16 16 26 8 1 14 2 7 hvcurveto
          44 267 rlineto
          -51 hlineto
          -9 -7 -9 -10 -10 -9 rrcurveto
          9 -23 -34 7 -27 hhcurveto
          -100 -88 -115 -131 -88 38 -51 66 38 46 24 37 33 hvcurveto
          -44 14 45 -28 58 hhcurveto
          122 80 121 182 166 -121 111 -184 -241 -182 -187 -248 -193 127 -113 221 hvcurveto
          -18 252 rmoveto
          -34 -14 22 54 69 13 58 20 20 hvcurveto
          6 6 14 4 16 hhcurveto
          27 32 -9 -13 19 hvcurveto
          -27 -184 rlineto
          -16 -19 -29 -11 -24 hhcurveto
          endchar
        </CharString>
        <CharString name="atilde">
          -31 384 583 rmoveto
          20 20 14 25 21 hvcurveto
          42 45 callsubr
          -36 -88 30 rlineto
          7 -21 -22 6 -18 hhcurveto
          -24 -17 -13 -26 -20 hvcurveto
          -43 -51 25 -27 75 36 76 -27 rlineto
          -8 23 24 -8 26 hhcurveto
          -236 -593 -95 callgsubr
        </CharString>
        <CharString name="b">
          -61 129 616 rmoveto
          -99 -579 104 -34 rlineto
          0 42 -13 57 165 61 256 112 110 -46 45 -72 -63 -55 -53 -42 -32 vhcurveto
          -2 3 3 5 11 12 2 12 rlinecurve
          27 167 rlineto
          87 vlineto
          -179 -19 rlineto
          -52 vlineto
          96 -532 rmoveto
          42 272 rlineto
          24 26 43 33 36 hhcurveto
          34 19 -14 -91 -108 -25 -99 -28 -51 hvcurveto
          -3 -2 -6 -2 -21 hhcurveto
          -61 -32 20 19 -25 hvcurveto
          endchar
        </CharString>
        <CharString name="backslash">
          -215 298 -166 rmoveto
          76 33 -362 828 -74 -33 rlineto
          endchar
        </CharString>
        <CharString name="bar">
          -186 140 699 rmoveto
          -855 80 855 vlineto
          endchar
        </CharString>
        <CharString name="braceleft">
          -312 135 -154 rmoveto
          26 53 rlineto
          -39 23 -12 18 32 vvcurveto
          9 1 11 2 12 vhcurveto
          41 207 rlineto
          1 5 1 9 4 vvcurveto
          31 -19 15 -10 7 vhcurveto
          13 8 28 16 5 41 15 199 rcurveline
          6 53 13 23 60 30 -14 50 rcurveline
          -92 -16 -71 -62 -90 vvcurveto
          -206 vlineto
          -20 -9 -28 -11 -17 -7 rrcurveto
          -45 vlineto
          15 -6 19 -9 17 -9 -57 -213 rcurveline
          -3 -11 -3 -20 -10 vvcurveto
          -68 52 -49 70 -15 vhcurveto
          endchar
        </CharString>
        <CharString name="braceright">
          -312 -16 -154 rmoveto
          91 16 72 62 90 vvcurveto
          206 vlineto
          20 9 27 11 18 7 rrcurveto
          45 vlineto
          -15 6 -19 9 -17 9 57 213 rcurveline
          2 11 4 20 10 vvcurveto
          68 -53 49 -69 15 vhcurveto
          -27 -53 rlineto
          39 -23 12 -18 -32 vvcurveto
          -9 0 -11 -3 -12 vhcurveto
          -41 -207 rlineto
          -1 -5 -1 -9 -4 vvcurveto
          -32 20 -14 10 -7 vhcurveto
          -13 -8 -29 -16 -5 -41 -14 -199 rcurveline
          -6 -53 -14 -23 -59 -30 rrcurveto
          endchar
        </CharString>
        <CharString name="bracketleft">
          -302 126 702 rmoveto
          -120 -853 rlineto
          181 hlineto
          16 57 -98 17 100 704 102 18 8 57 rlineto
          endchar
        </CharString>
        <CharString name="bracketright">
          -302 -58 -94 rmoveto
          -8 -57 rlineto
          189 hlineto
          120 853 rlineto
          -189 hlineto
          -8 -56 97 -18 -99 -704 rlineto
          endchar
        </CharString>
        <CharString name="breve">
          -230 194 562 -58 callsubr
        </CharString>
        <CharString name="brokenbar">
          -186 140 699 rmoveto
          -365 80 365 vlineto
          -80 -490 rmoveto
          -365 80 365 vlineto
          endchar
        </CharString>
        <CharString name="bullet">
          -134 90 305 rmoveto
          -63 50 -50 63 63 51 50 63 63 -51 51 -63 -63 -50 -51 -63 vhcurveto
          endchar
        </CharString>
        <CharString name="c">
          -149 359 69 rmoveto
          -87 callsubr
          -111 41 -50 99 136 56 79 0 vhcurveto
          endchar
        </CharString>
        <CharString name="cacute">
          -149 205 -53 callsubr
          -8 -601 rmoveto
          136 56 79 0 hvcurveto
          -87 callsubr
          -111 41 -50 99 vhcurveto
          endchar
        </CharString>
        <CharString name="cacute.loclPLK">
          -149 277 -49 callsubr
          120 -501 rmoveto
          -87 callsubr
          -111 41 -50 99 136 56 79 0 vhcurveto
          endchar
        </CharString>
        <CharString name="caron">
          -258 65 701 -76 callsubr
          endchar
        </CharString>
        <CharString name="ccaron">
          -149 132 29 callgsubr
          94 91 -29 32 -119 -71 -99 75 rlineto
          189 -667 rmoveto
          -87 callsubr
          -111 41 -50 99 136 56 79 0 vhcurveto
          endchar
        </CharString>
        <CharString name="ccedilla">
          -149 90 6 callgsubr
          32 -12 49 hhcurveto
          51 52 22 63 30 -21 16 -24 14 hvcurveto
          -34 19 rlineto
          19 vlineto
          115 10 49 68 0 vvcurveto
          -87 callsubr
          -101 34 -51 81 -8 vhcurveto
          -27 -41 rlineto
          -24 vlineto
          49 -24 rlineto
          16 -8 7 -6 -10 vvcurveto
          -11 -9 -6 -18 57 callsubr
        </CharString>
        <CharString name="ccircumflex">
          -149 383 556 rmoveto
          -101 callgsubr
          76 -560 rmoveto
          -87 callsubr
          -111 41 -50 99 136 56 79 0 vhcurveto
          endchar
        </CharString>
        <CharString name="cdotaccent">
          -149 280 -55 callsubr
          79 -506 rmoveto
          -87 callsubr
          -111 41 -50 99 136 56 79 0 vhcurveto
          endchar
        </CharString>
        <CharString name="cedilla">
          -336 -29 -27 callsubr
        </CharString>
        <CharString name="cent">
          -127 153 53 rmoveto
          -12 -110 65 -11 60 callgsubr
          32 rlineto
          0 -57 -42 -43 -63 -31 21 110 114 51 110 14 26 vhcurveto
          9 7 29 2 16 hhcurveto
          39 26 -9 0 hvcurveto
          9 -100 rlineto
          38 hlineto
          0 47 38 59 vvcurveto
          52 -39 24 -52 7 23 callgsubr
          -101 33 -51 81 -8 vhcurveto
          endchar
        </CharString>
        <CharString name="cent.osf">
          -127 145 -9 rmoveto
          -12 -111 65 -10 60 callgsubr
          31 rlineto
          0 -57 -42 -43 -63 -31 21 111 114 51 110 14 26 vhcurveto
          9 7 29 2 16 hhcurveto
          39 26 -10 0 hvcurveto
          9 -100 rlineto
          38 hlineto
          0 47 38 59 vvcurveto
          52 -39 24 -52 8 23 callgsubr
          -102 33 -50 81 -8 vhcurveto
          endchar
        </CharString>
        <CharString name="circumflex">
          -258 299 556 rmoveto
          -101 callgsubr
          endchar
        </CharString>
        <CharString name="colon">
          -355 107 308 rmoveto
          49 28 69 callgsubr
          24 -34 -50 -27 -43 -41 -36 24 -22 34 hvcurveto
          -42 -319 rmoveto
          48 29 -17 callsubr
        </CharString>
        <CharString name="comma">
          -375 2 -128 41 callgsubr
          -32 19 -15 18 -4 vhcurveto
          7 -1 5 1 4 2 1 -2 rcurveline
          -67 -104 rlineto
          endchar
        </CharString>
        <CharString name="copyright">
          112 7 325 rmoveto
          -181 146 -146 182 180 146 146 181 181 -146 146 -180 -182 -146 -146 -181 vhcurveto
          326 -267 rmoveto
          -148 -108 119 147 147 108 119 148 147 113 -119 -147 -147 -113 -119 -147 hvcurveto
          80 223 rmoveto
          -11 -58 rlineto
          -3 -6 -15 -8 -31 hhcurveto
          -62 -32 22 89 88 24 27 69 26 18 -6 -2 6 hvcurveto
          11 -52 rlineto
          41 104 hlineto
          6 -22 -46 8 -49 hhcurveto
          -102 -67 -76 -98 -106 52 -61 107 67 40 14 8 22 hvcurveto
          104 vlineto
          endchar
        </CharString>
        <CharString name="currency">
          -17 90 189 rmoveto
          -81 -88 52 -52 88 83 rlineto
          -21 33 38 -12 43 hhcurveto
          44 41 13 24 34 hvcurveto
          92 -87 53 52 -88 92 rlineto
          20 32 15 41 43 vvcurveto
          42 -14 38 -20 32 vhcurveto
          87 92 -53 52 -91 -85 rlineto
          23 -33 -43 15 -44 hhcurveto
          -43 -40 -12 -22 -32 hvcurveto
          -86 81 -53 -52 81 -85 rlineto
          -23 -34 -13 -41 -44 vvcurveto
          -45 13 -42 23 -33 vhcurveto
          62 120 rmoveto
          60 51 53 60 61 52 -52 -60 -60 -52 -51 -61 -60 -51 51 59 vhcurveto
          endchar
        </CharString>
        <CharString name="d">
          -36 304 105 -78 callsubr
          41 278 -62 callsubr
          endchar
        </CharString>
        <CharString name="dagger">
          -131 108 -109 rmoveto
          72 hlineto
          81 419 rlineto
          124 vlineto
          81 30 callsubr
          -121 -175 -160 hlineto
          -12 -143 rlineto
          63 hlineto
          17 78 79 5 -34 -125 rlineto
          endchar
        </CharString>
        <CharString name="daggerdbl">
          -113 101 -111 rmoveto
          123 175 158 hlineto
          11 143 rlineto
          -62 hlineto
          -16 -78 -79 -5 42 156 rlineto
          154 vlineto
          80 30 callsubr
          -123 -175 -159 hlineto
          -11 -143 rlineto
          63 hlineto
          17 78 78 5 -42 -155 rlineto
          -155 vlineto
          -79 5 8 78 rlineto
          -62 hlineto
          -29 -143 rlineto
          151 hlineto
          endchar
        </CharString>
        <CharString name="dcaron">
          -33 510 571 rmoveto
          23 -24 rlineto
          5 2 89 49 84 vvcurveto
          28 -15 22 -36 -26 -14 54 callsubr
          -5 9 -17 -24 vvcurveto
          -49 -30 -36 0 vhcurveto
          -206 -466 -78 callsubr
          41 278 -62 callsubr
          endchar
        </CharString>
        <CharString name="dcroat">
          -33 149 -10 rmoveto
          70 51 53 62 34 hvcurveto
          4 -2 rlineto
          -10 -21 -9 -19 -20 vvcurveto
          -38 19 -10 50 63 51 32 0 vhcurveto
          53 -71 vlineto
          75 470 rlineto
          49 67 -40 hlineto
          2 16 6 71 -157 -16 rlineto
          -30 vlineto
          56 -21 -4 -20 rlineto
          -181 -67 169 hlineto
          -13 -70 rlineto
          10 -25 -37 11 -40 hhcurveto
          -151 -80 -223 -128 -97 43 -63 76 hvcurveto
          33 85 rmoveto
          -29 -10 37 59 132 34 84 22 34 hvcurveto
          4 2 12 3 8 hhcurveto
          47 42 -22 -30 34 hvcurveto
          -38 -209 rlineto
          -35 -27 -51 -57 -46 hhcurveto
          endchar
        </CharString>
        <CharString name="degree">
          -269 130 485 rmoveto
          64 53 52 65 56 -42 44 -58 -64 -53 -53 -64 -57 41 -43 59 hvcurveto
          4 63 rmoveto
          -22 -17 19 21 26 21 22 27 22 17 -17 -21 -27 -19 -23 -29 hvcurveto
          endchar
        </CharString>
        <CharString name="dieresis">
          -216 115 582 -86 callgsubr
          endchar
        </CharString>
        <CharString name="divide">
          -36 275 365 rmoveto
          51 26 42 40 39 -26 25 -37 -49 -27 -43 -41 -35 25 -27 37 hvcurveto
          -224 -132 rmoveto
          400 hlineto
          9 72 rlineto
          -400 hlineto
          166 -283 rmoveto
          51 26 42 40 39 -26 25 -37 -50 -26 -43 -41 -35 25 -27 37 hvcurveto
          endchar
        </CharString>
        <CharString name="dollar">
          -67 266 585 rmoveto
          39 44 -10 -15 25 hvcurveto
          9 -106 rlineto
          60 hlineto
          17 169 -27 10 -44 7 -46 3 rlinecurve
          7 105 -70 6 -18 -110 rlineto
          -112 -11 -70 -64 -95 vvcurveto
          -78 42 -37 107 -91 vhcurveto
          70 -57 23 -26 -53 vvcurveto
          -48 -41 -33 -59 -46 -46 14 19 -19 vhcurveto
          -11 116 rlineto
          -63 hlineto
          -18 -165 30 -22 63 -17 59 -5 rlinecurve
          -8 -114 67 -6 20 123 rlineto
          104 18 68 74 100 vvcurveto
          70 -43 51 -91 78 vhcurveto
          -73 59 -34 31 41 vvcurveto
          46 29 23 56 vhcurveto
          endchar
        </CharString>
        <CharString name="dollar.osf">
          -67 174 -9 rmoveto
          -8 -115 67 -5 20 123 rlineto
          83 13 81 41 115 166 -243 -36 102 vvcurveto
          45 26 18 66 59 24 -14 0 vhcurveto
          10 -75 rlineto
          59 hlineto
          17 144 -14 5 -50 10 -52 3 rlinecurve
          9 112 -70 6 -19 -120 rlineto
          -101 -16 -69 -58 -91 -165 243 31 -100 vvcurveto
          -58 -25 -14 -72 -57 -39 23 2 -2 vhcurveto
          -2 83 rlineto
          -64 hlineto
          -19 -141 22 -15 59 -16 61 -3 rlinecurve
          endchar
        </CharString>
        <CharString name="dotaccent">
          -407 120 -55 callsubr
          endchar
        </CharString>
        <CharString name="dotbelowcomb">
          -126 -184 -99 callgsubr
        </CharString>
        <CharString name="dotlessi">
          -251 120 417 -88 callsubr
        </CharString>
        <CharString name="e">
          -138 184 -10 rmoveto
          -106 callsubr
          endchar
        </CharString>
        <CharString name="eacute">
          -138 214 -16 callgsubr
          -601 vmoveto
          -106 callsubr
          endchar
        </CharString>
        <CharString name="ebreve">
          -138 252 562 -98 callgsubr
          -68 -572 rmoveto
          -106 callsubr
          endchar
        </CharString>
        <CharString name="ecaron">
          -138 256 556 rmoveto
          13 24 24 29 30 hvcurveto
          94 91 -29 32 -119 -71 -99 75 -38 -35 79 -105 rlineto
          -21 17 12 -19 16 hhcurveto
          -75 -566 -66 callsubr
        </CharString>
        <CharString name="ecircumflex">
          -138 373 43 callsubr
          -16 -13 18 -15 hhcurveto
          -15 -24 -24 -28 -28 hvcurveto
          -96 -93 30 -32 120 69 rlineto
          -89 -639 rmoveto
          -106 callsubr
          endchar
        </CharString>
        <CharString name="edieresis">
          -138 166 582 rmoveto
          -46 callgsubr
          -23 -42 -37 -32 22 -26 35 9 callgsubr
          24 39 37 38 -24 -49 callgsubr
          -180 -592 rmoveto
          -106 callsubr
          endchar
        </CharString>
        <CharString name="edotaccent">
          -138 273 -28 callgsubr
          -92 -585 -66 callsubr
        </CharString>
        <CharString name="egrave">
          -138 332 554 rmoveto
          30 -3 callsubr
          -53 -618 rmoveto
          -106 callsubr
          endchar
        </CharString>
        <CharString name="eight">
          -58 -11 61 547 63 hstemhm
          21 110 -51 108 147 102 hintmask 11101000
          208 -11 rmoveto
          144 85 89 100 83 -43 36 -70 58 hvcurveto
          69 36 68 61 80 vvcurveto
          74 -55 54 -115 vhcurveto
          hintmask 11011000
          -105 -106 -64 -109 -63 42 -51 58 -48 hvcurveto
          hintmask 11101000
          -83 -42 -76 -70 -88 vvcurveto
          -72 50 -64 137 vhcurveto
          80 395 rmoveto
          hintmask 11011000
          -58 45 -42 41 52 vvcurveto
          47 33 28 55 65 22 -36 -46 -56 -35 -45 -40 -30 vhcurveto
          -59 -334 rmoveto
          hintmask 11101000
          -71 -27 37 51 54 16 58 68 47 hvcurveto
          82 -71 38 -29 -51 vvcurveto
          -61 -36 -35 -70 vhcurveto
          endchar
        </CharString>
        <CharString name="eight.osf">
          -54 185 326 rmoveto
          -81 -39 -78 -71 -89 vvcurveto
          -78 48 -60 142 139 91 77 124 63 -49 49 -64 53 vhcurveto
          70 33 63 52 94 vvcurveto
          70 -51 56 -121 -103 -104 -61 -116 -63 40 -46 58 -48 vhcurveto
          111 59 rmoveto
          -8 6 rlineto
          -67 54 -26 27 48 vvcurveto
          48 36 28 51 61 26 -38 -47 -60 -32 -37 -41 -29 vhcurveto
          -75 -88 rmoveto
          57 -45 63 -47 -48 vvcurveto
          -69 -38 -38 -71 -66 -31 33 58 52 18 57 68 47 vhcurveto
          endchar
        </CharString>
        <CharString name="ellipsis">
          -12 49 -9 rmoveto
          48 28 40 43 33 -24 24 -33 -49 -27 -42 -41 -35 24 -22 33 hvcurveto
          182 hmoveto
          48 28 40 43 33 -24 24 -33 -49 -26 -42 -41 -35 23 -22 33 hvcurveto
          183 hmoveto
          47 29 40 43 33 -24 24 -34 -48 -27 -42 -41 -35 23 -22 34 hvcurveto
          endchar
        </CharString>
        <CharString name="emacron">
          -138 111 609 rmoveto
          313 hlineto
          9 76 rlineto
          -313 hlineto
          61 -695 -66 callsubr
        </CharString>
        <CharString name="emdash">
          372 9 310 rmoveto
          -88 900 88 vlineto
          endchar
        </CharString>
        <CharString name="endash">
          -88 8 309 rmoveto
          -88 444 88 vlineto
          endchar
        </CharString>
        <CharString name="eng">
          -16 207 -170 rmoveto
          115 91 85 125 18 hvcurveto
          43 299 rlineto
          7 49 3 23 16 vvcurveto
          57 -31 29 -60 -43 -56 -26 -49 -65 -28 callsubr
          77 -17 40 callgsubr
          115 hlineto
          60 390 rlineto
          15 25 51 26 40 hhcurveto
          25 12 -13 -25 -12 -2 -14 -2 -18 hvcurveto
          -50 -322 -7 -45 -11 -32 -12 -18 rlinecurve
          -6 -5 -24 -5 -24 hhcurveto
          -77 hlineto
          -7 -8 -7 -20 -16 vvcurveto
          -33 17 -14 43 vhcurveto
          endchar
        </CharString>
        <CharString name="eogonek">
          -138 221 -183 rmoveto
          64 44 50 0 hvcurveto
          -22 32 rlineto
          -8 -11 65 callgsubr
          -25 -12 11 25 53 58 37 14 8 hvcurveto
          49 23 28 32 1 vvcurveto
          -21 34 rlineto
          0 -54 -39 -50 -70 -29 25 87 vhcurveto
          28 vlineto
          140 28 117 31 147 vvcurveto
          51 -43 52 -91 -161 -74 -219 -151 -115 48 -38 103 5 6 0 1 5 vhcurveto
          -37 -25 -28 -36 -45 vvcurveto
          -49 38 -19 51 vhcurveto
          -73 437 rmoveto
          7 80 25 79 16 21 rrcurveto
          6 5 19 5 21 hhcurveto
          37 14 -22 -33 -63 -11 -36 -133 -37 hvcurveto
          endchar
        </CharString>
        <CharString name="equal">
          -36 68 369 rmoveto
          -10 -72 rlineto
          399 hlineto
          10 72 rlineto
          -419 -155 rmoveto
          -10 39 callgsubr
        </CharString>
        <CharString name="estimated">
          202 382 -16 rmoveto
          119 100 65 79 63 hvcurveto
          -75 hlineto
          -54 -54 -60 -35 -92 hhcurveto
          -76 -61 27 42 -39 hvcurveto
          201 508 vlineto
          208 -3 -130 145 -204 hhcurveto
          -191 -147 -152 -188 -187 150 -151 192 hvcurveto
          -175 380 rmoveto
          179 vlineto
          40 41 57 24 75 hhcurveto
          72 62 -28 -34 36 hvcurveto
          -181 vlineto
          endchar
        </CharString>
        <CharString name="eth">
          -74 193 -10 rmoveto
          150 99 142 217 136 -42 98 -85 57 hvcurveto
          59 38 -33 49 -87 -56 rlineto
          16 -43 -48 7 -53 hhcurveto
          -22 -24 -1 -3 -16 hvcurveto
          -53 vlineto
          49 41 -5 -12 38 hvcurveto
          -82 -53 33 -49 110 72 26 -17 18 -24 19 -39 rlinecurve
          1 -9 -13 2 -11 hhcurveto
          -130 -107 -157 -192 -114 56 -60 107 hvcurveto
          34 67 rmoveto
          -61 -21 34 95 86 28 136 22 24 hvcurveto
          4 4 15 4 19 hhcurveto
          34 31 -8 -16 23 hvcurveto
          4 -32 2 -31 -38 vvcurveto
          -100 -20 -104 -25 -42 vhcurveto
          -8 -6 -21 -4 -28 hhcurveto
          endchar
        </CharString>
        <CharString name="exclam">
          -346 108 667 rmoveto
          -49 -507 rlineto
          70 hlineto
          76 360 14 59 6 24 rrcurveto
          5 26 2 10 9 vvcurveto
          19 -11 15 -46 -46 -21 -15 0 vhcurveto
          -40 -685 rmoveto
          46 29 39 42 33 -24 23 -32 -48 -26 -41 -40 -34 23 -22 32 hvcurveto
          endchar
        </CharString>
        <CharString name="exclamdown">
          -346 130 393 rmoveto
          47 27 41 40 34 -23 22 -33 -46 -28 -39 -42 -33 24 -23 32 hvcurveto
          -89 -563 rmoveto
          47 21 15 0 hvcurveto
          49 507 rlineto
          -70 hlineto
          -77 -360 -13 -59 -6 -24 rrcurveto
          -6 -26 -1 -10 -9 vvcurveto
          -19 10 -15 46 vhcurveto
          endchar
        </CharString>
        <CharString name="f">
          -259 61 callgsubr
          85 611 rlineto
          106 hlineto
          16 33 rlineto
          33 -113 vlineto
          3 21 8 49 11 20 5 5 rlinecurve
          7 8 25 6 44 hhcurveto
          68 hlineto
          -1 21 21 27 26 callsubr
          hvcurveto
          39 callsubr
        </CharString>
        <CharString name="f_f">
          26 61 callgsubr
          85 611 rlineto
          184 hlineto
          -75 -453 115 12 61 441 rlineto
          106 hlineto
          16 33 rlineto
          33 -113 vlineto
          20 callsubr
          22 23 vvcurveto
          26 callsubr
          vhcurveto
          -191 hlineto
          20 callsubr
          21 24 vvcurveto
          26 callsubr
          vhcurveto
          39 callsubr
        </CharString>
        <CharString name="fi">
          -16 20 -178 rmoveto
          114 8 86 611 rlineto
          75 hlineto
          75 -19 -61 -326 rlineto
          -2 8 callgsubr
          31 0 vhcurveto
          54 -72 vlineto
          57 338 rlineto
          91 -246 vlineto
          5 29 6 45 12 22 5 4 rlinecurve
          7 7 19 3 20 hhcurveto
          64 8 -18 -6 56 hvcurveto
          29 26 19 39 45 -25 18 -70 -140 -84 -95 -112 -31 hvcurveto
          -76 63 callgsubr
          75 vlineto
          endchar
        </CharString>
        <CharString name="five">
          -92 -11 61 413 99 -9 129 hstemhm
          172 116 hintmask 11010000
          157 -11 rmoveto
          125 131 81 162 122 -102 50 -156 20 hvcurveto
          hintmask 10110000
          20 129 rlineto
          261 hlineto
          22 143 rlineto
          -62 hlineto
          -21 -48 rlineto
          -252 hlineto
          -55 -286 rlineto
          178 -21 46 -49 -89 vvcurveto
          -99 -34 -54 -86 -71 -22 25 0 vhcurveto
          -8 96 rlineto
          -38 hlineto
          -1 -49 -39 -52 -65 69 -26 105 hvcurveto
          endchar
        </CharString>
        <CharString name="five.osf">
          -103 90 -166 rmoveto
          166 134 97 165 143 -121 32 -136 11 hvcurveto
          27 147 rlineto
          258 hlineto
          21 143 rlineto
          -61 hlineto
          -22 -48 rlineto
          -248 hlineto
          -62 -306 rlineto
          171 -7 49 -32 -95 vvcurveto
          -165 -128 -29 -162 vhcurveto
          -48 vlineto
          -5 23 47 -3 44 hhcurveto
          endchar
        </CharString>
        <CharString name="fl">
          -5 20 -178 rmoveto
          114 8 85 611 rlineto
          87 hlineto
          16 33 rlineto
          33 -93 vlineto
          3 23 8 49 16 24 4 4 rlinecurve
          5 5 20 9 49 hhcurveto
          30 15 -1 -2 30 hvcurveto
          -90 33 callgsubr
          12 -25 57 66 50 32 0 vhcurveto
          54 -73 vlineto
          81 538 rlineto
          86 vlineto
          0 -46 7 -43 -168 -85 -93 -111 -31 vhcurveto
          -74 63 callgsubr
          75 vlineto
          endchar
        </CharString>
        <CharString name="florin">
          -150 145 391 rmoveto
          -28 -328 rlineto
          -70 -5 -5 -31 -52 hhcurveto
          -30 -24 10 12 -23 hvcurveto
          0 -41 -12 -40 vvcurveto
          -36 31 -18 57 115 75 74 127 12 vhcurveto
          22 312 rlineto
          115 hlineto
          3 67 rlineto
          -112 hlineto
          9 61 rlineto
          46 8 15 9 27 hhcurveto
          44 33 -9 -11 22 hvcurveto
          0 41 8 42 vvcurveto
          38 -34 18 -55 -120 -71 -83 -119 -19 vhcurveto
          -82 -17 -6 -50 rlineto
          endchar
        </CharString>
        <CharString name="four">
          -38 0 152 9 76 436 -20 hstem
          241 hmoveto
          110 hlineto
          22 161 rlineto
          83 hlineto
          9 76 rlineto
          -82 hlineto
          56 415 -79 21 -375 -444 24 -68 rlineto
          255 hlineto
          -171 76 rmoveto
          -3 7 213 259 8 13 rlineto
          3 hlineto
          -3 -13 -38 -266 rlineto
          endchar
        </CharString>
        <CharString name="four.osf">
          -24 240 -164 rmoveto
          114 hlineto
          27 177 rlineto
          83 hlineto
          12 76 rlineto
          -84 hlineto
          69 424 -80 21 -388 -453 22 -68 rlineto
          252 hlineto
          15 76 rmoveto
          -182 hlineto
          -1 6 221 268 8 14 5 -2 -4 -12 rlineto
          endchar
        </CharString>
        <CharString name="fraction">
          -185 411 694 rmoveto
          -492 -707 59 -39 491 708 rlineto
          endchar
        </CharString>
        <CharString name="g">
          -55 130 -170 -99 callsubr
        </CharString>
        <CharString name="g_tilde.loclGUA">
          -55 375 -87 callgsubr
          -245 -753 -99 callsubr
        </CharString>
        <CharString name="gbreve">
          -55 295 562 rmoveto
          146 36 143 0 hvcurveto
          -34 17 rlineto
          0 -44 -81 -77 -58 -19 41 42 -6 vhcurveto
          -12 -41 -13 -11 -11 hvcurveto
          -6 -4 -4 -6 -14 vvcurveto
          -47 45 -67 85 vhcurveto
          -165 -732 -56 callgsubr
        </CharString>
        <CharString name="gcaron">
          -55 160 701 -76 callsubr
          -68 -906 -99 callsubr
        </CharString>
        <CharString name="gcircumflex">
          -55 400 556 rmoveto
          -101 callgsubr
          -170 -799 -99 callsubr
        </CharString>
        <CharString name="gcommaaccent">
          -55 313 554 rmoveto
          26 18 16 14 8 hvcurveto
          -3 3 -17 19 29 vvcurveto
          44 35 33 1 1 vhcurveto
          -21 24 rlineto
          -6 -2 -99 -43 -79 vvcurveto
          -33 19 -26 39 vhcurveto
          -183 -724 -56 callgsubr
        </CharString>
        <CharString name="gdotaccent">
          -55 297 -55 callsubr
          -167 -745 -99 callsubr
        </CharString>
        <CharString name="germandbls">
          9 99 453 rmoveto
          -96 -634 113 11 96 677 rlineto
          76 11 17 51 83 hhcurveto
          53 28 -34 -44 -89 -29 -30 -85 -46 hvcurveto
          -17 -108 rlineto
          140 -98 34 -21 -50 vvcurveto
          -52 -47 -5 -30 -56 -21 15 0 vhcurveto
          -9 98 rlineto
          -39 hlineto
          -1 -48 -41 -51 -72 68 -16 79 102 92 50 115 80 -44 26 -131 97 hvcurveto
          81 38 77 47 116 vvcurveto
          79 -65 63 -113 -139 -80 -95 -153 -24 vhcurveto
          endchar
        </CharString>
        <CharString name="grave">
          -339 133 608 -82 callgsubr
          endchar
        </CharString>
        <CharString name="gravecomb">
          -75 608 -82 callgsubr
          endchar
        </CharString>
        <CharString name="gravecomb.case">
          -105 731 -84 callgsubr
          endchar
        </CharString>
        <CharString name="greater">
          -17 24 85 rmoveto
          30 -81 464 218 7 62 -401 219 -46 -81 320 -171 rlineto
          endchar
        </CharString>
        <CharString name="greaterequal">
          -17 24 157 rmoveto
          -16 -94 500 198 6 62 -438 209 -13 -90 325 -154 rlineto
          -381 -227 rmoveto
          -9 -72 rlineto
          477 hlineto
          9 72 rlineto
          endchar
        </CharString>
        <CharString name="guillemotleft">
          -151 143 65 rmoveto
          50 28 -68 148 96 143 -38 33 -110 -108 rlineto
          -19 -18 -37 -41 -7 vvcurveto
          -11 30 -41 12 -17 vhcurveto
          255 -109 rmoveto
          50 28 -69 148 96 143 -37 33 -110 -108 rlineto
          -19 -18 -38 -41 -7 vvcurveto
          -11 30 -41 13 -17 vhcurveto
          endchar
        </CharString>
        <CharString name="guillemotright">
          -151 36 11 callsubr
          68 -148 -95 -143 rlineto
          207 -33 rmoveto
          110 108 rlineto
          19 18 38 41 7 vvcurveto
          11 -30 41 -12 17 vhcurveto
          -84 109 -50 -28 68 -148 -96 -143 rlineto
          endchar
        </CharString>
        <CharString name="guilsinglleft">
          -324 150 64 rmoveto
          50 27 -64 148 92 144 -37 34 -110 -109 rlineto
          -19 -18 -38 -41 -7 vvcurveto
          -11 30 -41 12 -17 vhcurveto
          endchar
        </CharString>
        <CharString name="guilsinglright">
          -324 47 11 callsubr
          64 -148 -91 -143 rlineto
          endchar
        </CharString>
        <CharString name="h">
          -11 147 618 -67 callgsubr
          endchar
        </CharString>
        <CharString name="hbar">
          -11 374 -5 rmoveto
          66 51 31 0 hvcurveto
          54 -73 vlineto
          43 247 rlineto
          3 19 6 41 27 vvcurveto
          47 -18 40 -72 -51 -64 -39 -36 -48 vhcurveto
          17 118 rlineto
          148 67 -139 hlineto
          3 19 8 74 -159 -16 rlineto
          -30 vlineto
          57 -21 -5 -26 rlineto
          -83 -67 71 hlineto
          -96 -544 rlineto
          112 hlineto
          59 378 rlineto
          10 16 53 30 46 hhcurveto
          28 8 -15 -23 -16 -3 -22 -2 -14 hvcurveto
          -45 -231 rlineto
          -2 -12 -3 -16 -19 vvcurveto
          -30 11 -25 57 vhcurveto
          endchar
        </CharString>
        <CharString name="hcircumflex">
          -11 319 710 rmoveto
          -101 callgsubr
          -72 -165 -67 callgsubr
          endchar
        </CharString>
        <CharString name="hookabovecomb">
          -120 536 -102 callgsubr
          endchar
        </CharString>
        <CharString name="hookabovecomb.case">
          -108 676 -103 callsubr
          endchar
        </CharString>
        <CharString name="hungarumlaut">
          -219 93 -21 callsubr
        </CharString>
        <CharString name="hyphen">
          32 callgsubr
        </CharString>
        <CharString name="i">
          -32 callgsubr
          endchar
        </CharString>
        <CharString name="i.loclTRK">
          -251 199 -55 callsubr
          -79 -158 -88 callsubr
        </CharString>
        <CharString name="iacute">
          -251 96 554 rmoveto
          96 54 rlineto
          26 15 48 27 32 vvcurveto
          24 -13 25 -42 8 vhcurveto
          -145 -148 rlineto
          50 -596 rmoveto
          73 50 31 0 hvcurveto
          54 -72 vlineto
          21 callsubr
          90 vlineto
          -181 -19 rlineto
          -54 vlineto
          76 -16 -60 -319 rlineto
          -3 58 callgsubr
          17 -25 46 vhcurveto
          endchar
        </CharString>
        <CharString name="iacute_j.loclNLD">
          26 270 -32 callsubr
          412 185 rmoveto
          -25 callsubr
          30 -37 96 54 rlineto
          40 23 35 19 -54 callgsubr
          -238 -303 rmoveto
          -91 callsubr
          -179 -19 rlineto
          -108 -409 rmoveto
          -72 hlineto
          5 callgsubr
          72 66 callgsubr
          endchar
        </CharString>
        <CharString name="ibreve">
          -251 178 562 -98 callgsubr
          -58 -145 -88 callsubr
        </CharString>
        <CharString name="icircumflex">
          -251 262 558 rmoveto
          36 36 -75 104 rlineto
          21 -16 -13 19 -15 hhcurveto
          -15 -24 -24 -29 -28 hvcurveto
          -93 -92 31 -31 116 67 rlineto
          -49 -634 -10 callgsubr
        </CharString>
        <CharString name="idieresis">
          -251 77 582 -86 callgsubr
          -158 -587 -10 callgsubr
        </CharString>
        <CharString name="igrave">
          -251 140 608 -62 callgsubr
          -14 22 callgsubr
          48 -27 27 -15 vhcurveto
          -20 -191 -88 callsubr
        </CharString>
        <CharString name="ij">
          8 184 -28 callgsubr
          287 142 -45 callsubr
          -141 -281 rmoveto
          -91 callsubr
          -179 -19 rlineto
          -84 -409 rmoveto
          -72 hlineto
          21 callsubr
          89 -51 callsubr
          77 -17 -61 -320 rlineto
          -2 8 callgsubr
          33 0 vhcurveto
          endchar
        </CharString>
        <CharString name="imacron">
          -251 30 683 rmoveto
          -10 -75 rlineto
          281 hlineto
          10 75 rlineto
          -191 -266 -88 callsubr
        </CharString>
        <CharString name="infinity">
          253 390 176 rmoveto
          -86 54 48 -28 70 hhcurveto
          109 99 88 135 100 -68 64 -93 -70 -51 -27 -87 -79 hvcurveto
          87 -57 -46 27 -71 hhcurveto
          -108 -100 -88 -134 -102 67 -63 94 70 55 28 86 77 hvcurveto
          -46 78 rmoveto
          -52 -43 -50 -54 -52 hhcurveto
          -45 -35 33 55 77 41 51 61 58 36 -57 -53 29 hvcurveto
          111 hmoveto
          53 40 45 55 58 hhcurveto
          51 29 -32 -54 -79 -51 -48 -54 -50 -38 55 50 -30 hvcurveto
          endchar
        </CharString>
        <CharString name="integral">
          -211 149 521 rmoveto
          -77 -566 rlineto
          -17 -2 -6 -13 -23 hhcurveto
          -33 -10 12 12 -27 hvcurveto
          -3 -3 -38 -17 -44 vvcurveto
          -36 33 -12 41 106 60 73 118 16 vhcurveto
          76 566 rlineto
          18 3 5 12 24 hhcurveto
          29 14 -12 -12 27 hvcurveto
          4 3 37 17 45 vvcurveto
          35 -33 12 -41 -93 -74 -77 -114 -15 vhcurveto
          endchar
        </CharString>
        <CharString name="iogonek">
          -251 178 -55 callsubr
          58 -676 rmoveto
          67 callsubr
          57 50 31 18 10 hvcurveto
          27 13 rlineto
          -63 callsubr
          77 -16 -60 -321 rlineto
          -3 -12 -3 -17 -19 vvcurveto
          -31 17 -25 47 vhcurveto
          11 hlineto
          -38 -24 -31 -37 -46 3 callgsubr
          endchar
        </CharString>
        <CharString name="itilde">
          -251 277 -87 callgsubr
          -157 -166 -88 callsubr
        </CharString>
        <CharString name="j">
          -270 193 717 -45 callsubr
          -141 -281 rmoveto
          -91 callsubr
          -179 -19 rlineto
          endchar
        </CharString>
        <CharString name="jcircumflex">
          -270 260 697 rmoveto
          -86 callsubr
          -96 -93 31 -32 119 69 100 -73 36 36 rlineto
          -286 -156 rmoveto
          -91 callsubr
          -179 -19 rlineto
          endchar
        </CharString>
        <CharString name="k">
          -58 141 618 rmoveto
          -108 -618 rlineto
          112 hlineto
          59 392 rlineto
          10 18 55 29 42 hhcurveto
          29 11 -14 -26 -51 -52 -54 -88 -62 16 callsubr
          -66 140 rlineto
          65 42 93 24 callgsubr
          -180 -19 rlineto
          -53 vlineto
          endchar
        </CharString>
        <CharString name="kcommaaccent">
          -68 136 618 rmoveto
          -108 -618 rlineto
          112 hlineto
          60 392 rlineto
          10 18 54 29 42 hhcurveto
          30 11 -14 -26 -51 -53 -54 -88 -62 hvcurveto
          -35 vlineto
          64 -147 rlineto
          -34 14 23 -12 49 hhcurveto
          67 31 31 0 hvcurveto
          53 -89 vlineto
          -65 140 rlineto
          65 42 92 24 callgsubr
          -179 -19 rlineto
          -53 vlineto
          95 -817 -4 callsubr
        </CharString>
        <CharString name="kgreenlandic">
          -44 326 220 rmoveto
          65 42 93 60 96 vvcurveto
          58 -33 37 -65 -59 -70 -53 -21 -28 vhcurveto
          67 -51 callsubr
          77 -17 40 callgsubr
          112 hlineto
          63 389 rlineto
          15 24 48 27 39 hhcurveto
          25 16 -12 -27 -48 -54 -59 -87 -61 16 callsubr
          endchar
        </CharString>
        <CharString name="l">
          -264 150 618 rmoveto
          -93 -522 rlineto
          -2 -12 -3 -26 callsubr
          endchar
        </CharString>
        <CharString name="lacute">
          -271 77 699 rmoveto
          167 48 rlineto
          38 11 11 12 32 vvcurveto
          20 -13 20 -18 11 vhcurveto
          -203 -111 rlineto
          57 -748 rmoveto
          66 49 32 0 hvcurveto
          54 -72 vlineto
          85 538 rlineto
          88 vlineto
          -181 -21 rlineto
          -50 vlineto
          82 -17 59 callgsubr
          12 -25 57 vhcurveto
          endchar
        </CharString>
        <CharString name="lcaron">
          -271 269 -33 callgsubr
          -124 45 rmoveto
          -93 -522 23 callsubr
          85 538 rlineto
          86 vlineto
          -181 -19 rlineto
          -50 vlineto
          endchar
        </CharString>
        <CharString name="lcommaaccent">
          -271 138 618 rmoveto
          -93 -522 rlineto
          -3 -12 -2 -26 callsubr
          -25 -820 rmoveto
          22 -25 rlineto
          5 2 99 43 79 vvcurveto
          34 -19 -29 callgsubr
        </CharString>
        <CharString name="ldot">
          -264 150 618 rmoveto
          -93 -522 rlineto
          -2 -12 -3 -26 callsubr
          219 -330 rmoveto
          49 28 -17 callsubr
        </CharString>
        <CharString name="less">
          -17 37 282 rmoveto
          -6 -62 401 -216 46 80 -320 170 374 167 -31 82 rlineto
          endchar
        </CharString>
        <CharString name="lessequal">
          -36 480 65 rmoveto
          13 90 -325 154 358 128 20 93 -498 -194 -7 -62 rlineto
          -32 -285 rmoveto
          461 hlineto
          9 72 rlineto
          -460 hlineto
          endchar
        </CharString>
        <CharString name="logicalnot">
          -17 37 364 rmoveto
          -79 356 -169 72 248 vlineto
          endchar
        </CharString>
        <CharString name="longs">
          -259 61 callgsubr
          96 689 6 44 10 29 9 10 rlinecurve
          8 9 29 5 39 hhcurveto
          68 hlineto
          8 10 12 18 20 vvcurveto
          33 -16 15 -37 -109 -87 -76 -128 -37 vhcurveto
          39 callsubr
        </CharString>
        <CharString name="lozenge">
          -64 31 326 rmoveto
          131 -326 rlineto
          62 hlineto
          234 326 -134 323 rlineto
          -62 hlineto
          95 -324 rmoveto
          -147 -224 -77 225 144 218 rlineto
          endchar
        </CharString>
        <CharString name="lslash">
          -276 83 275 rmoveto
          -31 -179 23 callsubr
          37 239 105 41 rlineto
          66 vlineto
          -94 -38 37 230 rlineto
          86 vlineto
          -181 -19 rlineto
          -50 vlineto
          82 -17 -49 -275 -108 -43 rlineto
          -63 vlineto
          endchar
        </CharString>
        <CharString name="m">
          253 126 417 rmoveto
          -78 -417 rlineto
          114 hlineto
          61 388 rlineto
          6 12 60 37 41 hhcurveto
          27 9 -17 -18 -18 -3 -22 -3 -18 hvcurveto
          -60 -338 rlineto
          111 hlineto
          55 345 1 10 3 17 2 17 rlinecurve
          13 21 52 29 37 hhcurveto
          27 10 -17 -18 -18 -4 -22 -3 -18 hvcurveto
          -43 -241 rlineto
          -3 -12 -2 -16 -19 vvcurveto
          -30 9 -25 64 66 45 -20 callgsubr
          54 -71 vlineto
          42 265 rlineto
          3 20 7 47 22 vvcurveto
          44 -18 36 -70 -54 -69 -45 -33 -43 vhcurveto
          41 -2 -17 37 -71 hhcurveto
          -56 -67 -48 -28 -37 hvcurveto
          68 vlineto
          -181 -19 rlineto
          -54 vlineto
          endchar
        </CharString>
        <CharString name="macron">
          -217 69 -25 callgsubr
          endchar
        </CharString>
        <CharString name="minus">
          -36 68 298 rmoveto
          -9 39 callgsubr
        </CharString>
        <CharString name="multiply">
          -36 63 147 rmoveto
          49 -58 133 117 102 -116 59 50 -101 118 135 118 -48 57 -137 -118 -102 117 -59 -51 102 -117 rlineto
          endchar
        </CharString>
        <CharString name="n">
          2 124 417 -77 callgsubr
        </CharString>
        <CharString name="nacute">
          2 280 -53 callsubr
          139 -596 rmoveto
          66 50 31 0 hvcurveto
          54 -73 vlineto
          -71 callsubr
          77 -17 -74 callsubr
          -3 -12 -2 -18 -17 vvcurveto
          -30 10 -25 58 vhcurveto
          endchar
        </CharString>
        <CharString name="nacute.loclPLK">
          2 323 -49 callsubr
          -161 -153 -77 callgsubr
        </CharString>
        <CharString name="napostrophe">
          53 58 -33 callgsubr
          66 -156 -77 callgsubr
        </CharString>
        <CharString name="ncaron">
          2 190 29 callgsubr
          95 91 -30 32 -119 -71 -99 75 rlineto
          -102 -319 -42 callsubr
          endchar
        </CharString>
        <CharString name="ncommaaccent">
          2 126 417 -42 callsubr
          126 -619 rmoveto
          22 -25 rlineto
          5 2 100 43 79 vvcurveto
          34 -20 -29 callgsubr
        </CharString>
        <CharString name="nine">
          -36 -10 50 185 75 300 60 hstem
          43 122 199 123 vstem
          127 -10 rmoveto
          214 146 179 241 168 -77 82 -139 -131 -97 -109 -140 -119 74 -67 93 66 41 28 18 19 hvcurveto
          4 3 3 4 2 4 3 -1 rcurveline
          -168 -33 -95 -74 -134 hhcurveto
          -15 -14 1 2 -16 hvcurveto
          -7 -46 rlineto
          -5 26 30 -1 37 hhcurveto
          136 310 rmoveto
          -62 -36 33 100 114 38 53 61 66 34 -37 -99 -44 -4 -52 -6 -34 hvcurveto
          -9 -10 -34 -25 -47 hhcurveto
          endchar
        </CharString>
        <CharString name="nine.osf">
          -28 112 -169 rmoveto
          221 147 195 293 140 -67 73 -129 -147 -100 -110 -162 -99 60 -65 93 58 63 24 33 28 hvcurveto
          -193 -34 -89 -74 -188 hhcurveto
          -2 -48 rlineto
          -5 25 22 -2 39 hhcurveto
          133 340 rmoveto
          -57 -29 41 79 121 31 53 71 65 32 -41 -82 -64 -3 -42 -8 -31 hvcurveto
          -20 -25 -43 -14 -34 hhcurveto
          endchar
        </CharString>
        <CharString name="notequal">
          -36 151 142 rmoveto
          -79 -120 55 -35 100 155 rlineto
          224 hlineto
          9 72 rlineto
          -187 hlineto
          53 83 rlineto
          144 hlineto
          10 72 rlineto
          -107 hlineto
          72 112 -52 34 -95 -146 rlineto
          -217 hlineto
          -10 -72 rlineto
          180 hlineto
          -54 -83 rlineto
          -136 hlineto
          -10 -72 rlineto
          endchar
        </CharString>
        <CharString name="ntilde">
          4 393 589 rmoveto
          20 20 14 25 20 hvcurveto
          43 45 callsubr
          -37 -88 31 rlineto
          7 -21 -22 6 -18 hhcurveto
          -25 -17 -13 -26 -19 hvcurveto
          -43 -51 24 -27 75 36 -42 callgsubr
          -5 -594 rmoveto
          66 50 31 0 hvcurveto
          54 -72 vlineto
          43 259 rlineto
          3 19 8 44 25 vvcurveto
          48 -22 38 -70 -55 -62 -40 -35 -46 -28 callsubr
          76 -17 40 callgsubr
          115 hlineto
          61 390 1 callsubr
          vhcurveto
          endchar
        </CharString>
        <CharString name="numbersign">
          -17 97 118 rmoveto
          -29 -149 rlineto
          82 hlineto
          29 149 rlineto
          107 hlineto
          -28 -149 rlineto
          82 hlineto
          29 149 rlineto
          120 80 -105 hlineto
          20 105 rlineto
          107 81 -91 hlineto
          26 135 rlineto
          -82 hlineto
          -27 -135 rlineto
          -107 hlineto
          26 135 rlineto
          -82 hlineto
          -26 -135 rlineto
          -128 -81 112 hlineto
          -20 -105 rlineto
          -113 -80 hlineto
          302 80 rmoveto
          -107 hlineto
          21 105 rlineto
          107 hlineto
          endchar
        </CharString>
        <CharString name="o">
          -75 194 -10 rmoveto
          -105 callgsubr
          endchar
        </CharString>
        <CharString name="oacute">
          -75 216 -53 callsubr
          8 -601 rmoveto
          -105 callgsubr
          endchar
        </CharString>
        <CharString name="oacute.loclPLK">
          -75 290 -49 callsubr
          -58 -580 rmoveto
          -105 callgsubr
          endchar
        </CharString>
        <CharString name="obreve">
          -75 272 562 -98 callgsubr
          -78 -572 rmoveto
          -105 callgsubr
          endchar
        </CharString>
        <CharString name="ocircumflex">
          -75 386 556 rmoveto
          35 36 -78 105 rlineto
          -86 callsubr
          -95 -93 30 -32 119 69 rlineto
          -91 -639 rmoveto
          -105 callgsubr
          endchar
        </CharString>
        <CharString name="odieresis">
          -75 181 -41 callsubr
          -185 -592 rmoveto
          -105 callgsubr
          endchar
        </CharString>
        <CharString name="oe">
          147 194 -10 rmoveto
          56 50 20 39 39 hvcurveto
          -40 21 42 -19 69 hhcurveto
          68 78 32 44 38 19 callsubr
          -21 -32 -43 -15 -29 hhcurveto
          -74 -27 29 83 hvcurveto
          1 28 rlineto
          187 38 69 55 113 vvcurveto
          61 -54 42 -79 -52 -48 -23 -45 -38 vhcurveto
          46 -25 -45 22 -67 hhcurveto
          -145 -103 -145 -205 -114 56 -59 108 hvcurveto
          34 67 rmoveto
          -62 -21 35 103 86 27 126 23 25 hvcurveto
          7 7 24 6 21 hhcurveto
          62 17 -30 -105 -96 -19 -104 -25 -41 hvcurveto
          -8 -5 -21 -4 -28 hhcurveto
          209 197 rmoveto
          9 78 20 79 18 23 rrcurveto
          6 5 20 5 20 hhcurveto
          34 17 -19 -36 -75 -30 -29 -113 -32 hvcurveto
          endchar
        </CharString>
        <CharString name="ogonek">
          -349 145 -11 callsubr
        </CharString>
        <CharString name="ograve">
          -75 352 553 rmoveto
          30 38 -146 148 rlineto
          -41 -8 -14 -25 -25 vvcurveto
          -31 48 -27 27 -15 vhcurveto
          -62 -618 rmoveto
          -105 callgsubr
          endchar
        </CharString>
        <CharString name="ohorn">
          -75 577 509 -97 callgsubr
          endchar
        </CharString>
        <CharString name="ohungarumlaut">
          -75 169 -7 callgsubr
          -36 19 -37 -3 vhcurveto
          -87 -168 rlineto
          -105 -586 rmoveto
          149 98 146 200 118 -51 59 -112 -148 -100 -149 -201 -113 56 -60 108 hvcurveto
          34 67 rmoveto
          -62 -21 34 104 97 30 118 20 22 hvcurveto
          8 8 24 5 20 hhcurveto
          63 16 -31 -104 -106 -23 -96 -21 -39 hvcurveto
          -9 -6 -24 -3 -24 hhcurveto
          endchar
        </CharString>
        <CharString name="omacron">
          -75 115 609 rmoveto
          313 hlineto
          10 76 rlineto
          -314 hlineto
          70 -695 rmoveto
          -105 callgsubr
          endchar
        </CharString>
        <CharString name="one">
          -154 21 -21 651 -20 hstem
          124 67 rmoveto
          -126 -16 -6 -51 rlineto
          357 hlineto
          7 53 -120 14 82 584 rlineto
          -64 hlineto
          -206 -43 rlineto
          -52 144 vlineto
          endchar
        </CharString>
        <CharString name="one.osf">
          -154 29 52 rmoveto
          -6 -52 rlineto
          314 hlineto
          6 52 -97 13 67 461 rlineto
          -68 hlineto
          -177 -41 rlineto
          -56 114 vlineto
          -52 -364 rlineto
          endchar
        </CharString>
        <CharString name="onehalf">
          205 156 50 callsubr
          -81 323 rmoveto
          254 hlineto
          6 46 -80 14 42 281 rlineto
          -75 hlineto
          -106 -10 -7 -50 rlineto
          90 hlineto
          -32 -220 -87 -13 rlineto
          420 -359 rmoveto
          257 hlineto
          15 55 callsubr
          54 rlineto
          65 45 28 34 52 vvcurveto
          73 -58 21 -64 -88 -48 -65 0 vhcurveto
          33 -31 rlineto
          0 35 33 41 36 15 -15 -24 -29 -12 -16 -39 -34 vhcurveto
          -137 -121 rlineto
          endchar
        </CharString>
        <CharString name="onequarter">
          234 158 -52 rmoveto
          491 708 -64 39 -487 -707 rlineto
          -82 323 rmoveto
          254 hlineto
          5 46 -79 14 41 67 callgsubr
          91 hlineto
          -33 -220 -86 -13 rlineto
          527 -361 48 callsubr
          28 196 -60 46 callgsubr
          -2 5 107 116 -19 -121 rlineto
          endchar
        </CharString>
        <CharString name="ordfeminine">
          -209 199 432 rmoveto
          -27 callgsubr
          -10 -14 -5 -12 -12 vvcurveto
          -21 15 -13 34 48 33 24 0 vhcurveto
          45 -40 vlineto
          45 283 rlineto
          -52 hlineto
          -20 -23 rlineto
          7 -16 -32 13 -35 hhcurveto
          -105 -45 -153 -91 -72 29 -36 49 43 36 39 38 25 hvcurveto
          27 184 rmoveto
          -23 -132 rlineto
          -24 -18 -30 -32 -26 hhcurveto
          -17 -8 18 31 69 12 56 16 35 hvcurveto
          2 17 2 7 25 20 -5 -20 25 vhcurveto
          endchar
        </CharString>
        <CharString name="ordmasculine">
          -214 143 356 rmoveto
          107 64 107 120 87 -50 37 -71 -105 -69 -100 -129 -84 54 -38 70 hvcurveto
          20 59 rmoveto
          -32 -22 12 72 76 19 56 7 9 hvcurveto
          4 3 20 2 11 hhcurveto
          32 23 -10 -69 -73 -9 -51 -12 -21 hvcurveto
          -4 -3 -23 -3 -14 hhcurveto
          endchar
        </CharString>
        <CharString name="oslash">
          -75 123 -75 -59 callsubr
        </CharString>
        <CharString name="oslashacute">
          -75 233 554 -80 callsubr
          -80 -666 -59 callsubr
        </CharString>
        <CharString name="otilde">
          -75 357 583 rmoveto
          19 21 14 25 20 hvcurveto
          43 45 callsubr
          -36 -88 30 rlineto
          7 -21 -22 6 -18 hhcurveto
          -25 -17 -13 -26 -19 hvcurveto
          -43 -51 25 -27 74 36 -42 callgsubr
          -163 -593 rmoveto
          -105 callgsubr
          endchar
        </CharString>
        <CharString name="p">
          -36 115 417 rmoveto
          -108 -598 116 11 29 184 rlineto
          -7 27 39 -7 38 hhcurveto
          160 66 252 111 103 -44 47 -74 -64 -61 -62 -36 -30 hvcurveto
          -2 3 rlineto
          8 8 4 12 13 vvcurveto
          55 vlineto
          -181 -20 rlineto
          -52 vlineto
          130 -319 rmoveto
          41 256 rlineto
          23 27 47 36 37 hhcurveto
          34 16 -24 -66 -107 -23 -112 -29 -42 hvcurveto
          -4 -3 -17 -2 -15 hhcurveto
          -49 -41 24 18 -25 hvcurveto
          endchar
        </CharString>
        <CharString name="paragraph">
          23 256 196 rmoveto
          63 452 rlineto
          -80 -190 -47 -210 -151 135 -43 72 -1 hvcurveto
          -194 -360 rmoveto
          161 hlineto
          111 59 63 83 11 hvcurveto
          85 594 92 18 6 54 rlineto
          -192 hlineto
          -89 -631 -9 -63 -21 -29 -85 -12 rlinecurve
          -127 -17 rlineto
          endchar
        </CharString>
        <CharString name="parenleft">
          -315 149 -151 rmoveto
          26 45 rlineto
          -51 34 -17 28 127 vvcurveto
          243 57 263 147 63 vhcurveto
          -13 47 rlineto
          -222 -64 -72 -351 -186 vvcurveto
          -121 33 -105 112 -23 vhcurveto
          endchar
        </CharString>
        <CharString name="parenright">
          -315 -80 -104 rmoveto
          13 -47 rlineto
          223 64 71 351 186 vvcurveto
          121 -33 105 -112 23 vhcurveto
          -25 -45 rlineto
          51 -34 17 -28 -127 vvcurveto
          -243 -58 -263 -147 -63 vhcurveto
          endchar
        </CharString>
        <CharString name="partialdiff">
          -17 232 -10 rmoveto
          185 114 168 272 174 -79 94 -145 -62 -75 -30 -42 -44 hvcurveto
          26 -40 rlineto
          22 44 45 13 30 hhcurveto
          87 45 -56 -115 4 hvcurveto
          1 -6 0 -6 -7 vvcurveto
          -6 0 -6 -1 -7 vhcurveto
          13 -23 -46 11 -39 hhcurveto
          -156 -111 -112 -158 -111 74 -65 126 hvcurveto
          19 67 rmoveto
          -60 -33 44 81 124 42 51 101 36 44 -7 -11 23 hvcurveto
          -193 -15 -48 -89 -90 hhcurveto
          endchar
        </CharString>
        <CharString name="percent">
          159 180 -54 rmoveto
          406 599 -60 41 22 callsubr
          -110 -66 -8 callsubr
          40 callsubr
          41 -52 92 hvcurveto
          11 60 rmoveto
          -38 -20 16 51 107 25 26 53 36 23 -12 -49 -118 -24 -21 -55 hvcurveto
          endchar
        </CharString>
        <CharString name="period">
          -387 47 -9 rmoveto
          49 28 69 callgsubr
          24 -34 -49 -27 -42 -42 -35 23 -23 34 hvcurveto
          endchar
        </CharString>
        <CharString name="periodcentered">
          -353 92 199 rmoveto
          49 28 -17 callsubr
        </CharString>
        <CharString name="perthousand">
          527 181 -53 rmoveto
          406 600 -58 39 22 callsubr
          -111 -65 -8 callsubr
          66 73 124 69 -44 53 -88 -111 -65 -80 -116 -71 41 -52 92 hvcurveto
          343 hmoveto
          108 40 callsubr
          42 -52 92 hvcurveto
          -332 60 rmoveto
          -38 -20 16 51 107 24 26 53 37 23 -12 -49 -118 -24 -21 -55 hvcurveto
          343 hmoveto
          -39 -20 16 51 107 25 26 53 37 22 -12 -49 -118 -24 -21 -54 hvcurveto
          endchar
        </CharString>
        <CharString name="pi">
          24 395 -5 rmoveto
          51 55 35 0 hvcurveto
          50 -73 vlineto
          59 346 rlineto
          3 hlineto
          44 2 23 15 38 37 40 38 rcurveline
          -32 43 -87 -43 rlineto
          -330 hlineto
          -66 -11 -15 -43 -43 hvcurveto
          -38 -37 32 -42 90 46 -67 -355 -54 -19 rlineto
          -53 85 vlineto
          51 4 12 22 7 39 66 362 rcurveline
          133 hlineto
          -53 -286 rlineto
          -5 -25 -7 -41 -20 vvcurveto
          -45 23 -15 54 vhcurveto
          endchar
        </CharString>
        <CharString name="plus">
          -42 206 226 rmoveto
          -19 -165 rlineto
          75 46 callsubr
          20 161 rlineto
          -76 hlineto
          -19 -161 rlineto
          -162 hlineto
          -8 -72 rlineto
          endchar
        </CharString>
        <CharString name="plusminus">
          -36 217 299 rmoveto
          -19 -165 rlineto
          76 46 callsubr
          19 161 rlineto
          -75 hlineto
          -20 -161 rlineto
          -161 hlineto
          -8 -72 rlineto
          -29 -212 rmoveto
          -9 39 callgsubr
        </CharString>
        <CharString name="product">
          113 2 53 rmoveto
          -8 -53 rlineto
          264 hlineto
          7 53 -73 14 72 514 rlineto
          220 hlineto
          -72 -514 -76 -14 -8 -53 rlineto
          265 hlineto
          7 53 -74 14 73 514 76 14 7 53 rlineto
          -600 hlineto
          -7 -53 75 -14 -72 -514 rlineto
          endchar
        </CharString>
        <CharString name="q">
          -60 278 22 rmoveto
          -35 -203 115 11 110 689 rlineto
          -61 hlineto
          -27 -40 rlineto
          13 -23 -48 21 -52 hhcurveto
          -151 -79 -235 -128 -97 37 -62 82 68 55 58 61 37 hvcurveto
          3 -2 -11 -15 -14 -34 -6 -37 rlinecurve
          63 361 rmoveto
          -40 -226 rlineto
          -34 -25 -46 -48 -45 hhcurveto
          -35 -11 41 55 112 26 97 28 51 hvcurveto
          5 2 9 4 19 hhcurveto
          43 41 -25 -32 34 hvcurveto
          endchar
        </CharString>
        <CharString name="question">
          -186 70 159 rmoveto
          60 hlineto
          31 117 45 16 rlineto
          87 30 58 56 107 vvcurveto
          115 -76 65 -120 -81 -40 -24 -38 -33 19 -13 0 vhcurveto
          3 8 39 8 38 hhcurveto
          81 41 -39 -78 -47 -15 -32 -81 -28 hvcurveto
          -89 -32 rlineto
          3 -330 rmoveto
          46 26 37 41 34 -23 24 -34 -46 -25 -38 -39 -38 23 -21 33 hvcurveto
          endchar
        </CharString>
        <CharString name="questiondown">
          -186 271 392 rmoveto
          46 26 38 39 38 -23 21 -34 -45 -27 -37 -41 -34 24 -24 33 hvcurveto
          -62 -547 rmoveto
          82 39 24 38 33 -18 13 0 hvcurveto
          -3 -9 -39 -8 -38 hhcurveto
          -81 -40 39 78 45 15 34 80 28 hvcurveto
          90 32 4 153 rlineto
          -60 hlineto
          -31 -117 -45 -16 rlineto
          -87 -30 -58 -56 -107 vvcurveto
          -115 77 -65 119 vhcurveto
          endchar
        </CharString>
        <CharString name="quotedbl">
          -213 58 492 2 callgsubr
          -23 -28 -11 -3 -8 vhcurveto
          125 -214 2 callgsubr
          -24 -27 -11 -3 -8 vhcurveto
          endchar
        </CharString>
        <CharString name="quotedblbase">
          -197 25 -117 52 callsubr
          -21 27 -38 -43 -29 -39 -39 -30 18 -15 20 -6 vhcurveto
          -1 4 3 0 4 hhcurveto
          -3 vlineto
          -65 -86 rlineto
          194 -26 52 callsubr
          -21 27 -39 -42 -29 -39 -39 -30 18 -15 20 42 callgsubr
        </CharString>
        <CharString name="quotedblleft">
          -226 112 473 rmoveto
          43 29 38 40 30 -18 15 -21 6 10 callsubr
          165 hmoveto
          43 29 38 40 30 -20 14 -19 7 10 callsubr
          endchar
        </CharString>
        <CharString name="quotedblright">
          -197 70 473 rmoveto
          42 29 77 76 72 vvcurveto
          41 -21 27 -39 -42 -30 -39 -39 -30 20 -14 19 -7 vhcurveto
          -2 4 3 1 4 hhcurveto
          -3 vlineto
          -66 -86 rlineto
          194 -26 52 callsubr
          -20 27 -39 -43 -29 -39 -39 -30 18 -15 21 42 callgsubr
        </CharString>
        <CharString name="quoteleft">
          -387 102 466 rmoveto
          45 27 39 39 30 -17 16 -20 7 hvcurveto
          -3 -4 1 -1 -3 hvcurveto
          -1 3 66 90 -29 25 rlineto
          -39 -30 -81 -76 -75 vvcurveto
          -41 21 -27 38 vhcurveto
          endchar
        </CharString>
        <CharString name="quoteright">
          -397 73 469 rmoveto
          39 30 81 76 76 vvcurveto
          41 -21 26 -39 -44 -27 -38 -40 -30 18 -15 19 -8 vhcurveto
          -1 4 3 1 4 hhcurveto
          -3 vlineto
          -67 -89 rlineto
          endchar
        </CharString>
        <CharString name="quotesinglbase">
          -373 29 -121 rmoveto
          40 29 80 76 76 vvcurveto
          41 -20 27 -39 -45 -27 -39 -39 -31 18 -15 20 -7 vhcurveto
          3 -1 4 0 3 1 1 -3 rcurveline
          -67 -90 rlineto
          endchar
        </CharString>
        <CharString name="quotesingle">
          -340 75 492 2 callgsubr
          -24 -27 -11 -3 -8 vhcurveto
          endchar
        </CharString>
        <CharString name="r">
          -205 124 417 -66 callgsubr
          endchar
        </CharString>
        <CharString name="racute">
          -204 204 -53 callsubr
          -125 -591 rmoveto
          -47 callsubr
          76 -17 rlineto
          endchar
        </CharString>
        <CharString name="radical">
          -17 208 -6 rmoveto
          91 hlineto
          315 712 99 14 2 51 rlineto
          -148 hlineto
          -269 -617 -12 -41 -3 42 -61 340 rlineto
          -172 hlineto
          -2 -50 62 -14 rlineto
          endchar
        </CharString>
        <CharString name="rcaron">
          -204 111 50 callgsubr
          24 24 29 29 15 callsubr
          -119 -71 -100 75 rlineto
          -23 -319 rmoveto
          -76 -417 rlineto
          -47 callsubr
          endchar
        </CharString>
        <CharString name="rcommaaccent">
          -204 125 417 rmoveto
          -76 -417 rlineto
          -47 callsubr
          -10 -619 -33 callsubr
        </CharString>
        <CharString name="registered">
          130 343 787 rmoveto
          -157 -127 -127 -157 -157 127 -127 157 157 127 127 157 157 -127 127 -157 hvcurveto
          167 -426 rmoveto
          30 vlineto
          -42 9 -58 82 rlineto
          36 12 25 36 38 vvcurveto
          50 -37 30 -61 vhcurveto
          -188 -41 hlineto
          37 -6 rlineto
          -203 vlineto
          -43 -7 rlineto
          -33 vlineto
          -31 39 -19 50 56 vvcurveto
          125 93 97 121 120 96 -98 -124 -54 -18 -49 -31 -39 vhcurveto
          -205 150 rmoveto
          87 vlineto
          2 10 13 1 10 hhcurveto
          33 13 -12 -29 -33 -18 -16 -38 hvcurveto
          15 -230 rmoveto
          -66 -58 29 47 -39 hvcurveto
          169 34 hlineto
          -44 7 rlineto
          67 29 vlineto
          61 -94 rlineto
          -8 4 9 -5 11 hhcurveto
          88 hlineto
          -47 -39 -59 -30 -66 hhcurveto
          endchar
        </CharString>
        <CharString name="ring">
          -345 148 559 -40 callsubr
          endchar
        </CharString>
        <CharString name="s">
          -147 160 -10 -90 callgsubr
          endchar
        </CharString>
        <CharString name="sacute">
          -141 199 554 rmoveto
          96 54 rlineto
          50 28 25 24 22 vvcurveto
          30 -20 21 -35 6 vhcurveto
          -25 callsubr
          rlineto
          -9 -601 8 callsubr
          -39 41 -74 53 hvcurveto
          -65 46 -32 25 30 vvcurveto
          28 23 13 51 26 30 -5 -7 16 vhcurveto
          8 -90 rlineto
          40 hlineto
          26 14 21 37 28 vvcurveto
          59 -48 32 -88 -107 -86 -67 -84 -64 41 -37 87 -58 vhcurveto
          56 -40 25 -22 -32 vvcurveto
          -39 -22 -14 -62 -34 -35 6 9 -11 vhcurveto
          -9 98 rlineto
          -38 hlineto
          -15 -35 -65 -27 -61 47 -27 108 hvcurveto
          endchar
        </CharString>
        <CharString name="sacute.loclPLK">
          -147 248 -49 callsubr
          -50 -580 -90 callgsubr
          endchar
        </CharString>
        <CharString name="scaron">
          -141 245 556 rmoveto
          14 23 24 29 30 15 callsubr
          -120 -71 -99 75 -37 -35 79 -105 rlineto
          -21 17 11 -19 16 hhcurveto
          -85 -566 -90 callgsubr
          endchar
        </CharString>
        <CharString name="scedilla">
          -147 148 -192 rmoveto
          64 39 32 53 24 -14 18 -31 18 hvcurveto
          -34 19 rlineto
          18 vlineto
          104 4 79 68 84 vvcurveto
          64 -38 41 -75 53 vhcurveto
          -65 46 -31 25 30 vvcurveto
          28 22 13 52 25 30 -5 -7 16 vhcurveto
          9 -90 rlineto
          39 hlineto
          26 14 22 37 28 vvcurveto
          59 -48 32 -88 -107 -86 -67 -84 -63 40 -37 86 -59 vhcurveto
          57 -39 25 -23 -32 vvcurveto
          -39 -21 -14 -62 -35 -34 6 9 -12 vhcurveto
          -8 98 rlineto
          -39 hlineto
          -14 -35 -65 -27 -54 35 -26 79 -6 hvcurveto
          -28 -42 rlineto
          -24 vlineto
          49 -24 rlineto
          18 -9 5 -6 -9 vvcurveto
          -11 -9 -6 -18 -34 -17 7 9 -19 vhcurveto
          -24 -41 rlineto
          -19 27 33 -9 45 hhcurveto
          endchar
        </CharString>
        <CharString name="scircumflex">
          -147 354 556 rmoveto
          -101 callgsubr
          -94 -639 -90 callgsubr
          endchar
        </CharString>
        <CharString name="scommaaccent">
          -147 160 -10 8 callsubr
          -38 41 -75 52 hvcurveto
          -65 46 -32 26 30 vvcurveto
          28 23 13 51 25 30 -5 -7 17 vhcurveto
          8 -90 rlineto
          40 hlineto
          26 14 21 37 28 vvcurveto
          59 -48 32 -88 -107 -86 -67 -84 -62 38 -37 86 -58 vhcurveto
          58 -40 27 -23 -33 vvcurveto
          -39 -22 -14 -62 -34 -35 6 9 -11 vhcurveto
          -9 98 rlineto
          -38 hlineto
          -15 -35 -65 -27 -61 47 -27 108 hvcurveto
          -52 -200 rmoveto
          58 23 46 55 46 vvcurveto
          36 -22 23 -36 -20 -20 -11 -19 -11 vhcurveto
          13 -13 8 -19 -19 vvcurveto
          -25 -16 -32 -22 -20 vhcurveto
          endchar
        </CharString>
        <CharString name="section">
          -21 417 211 rmoveto
          65 82 -190 141 rlineto
          -67 54 -28 22 41 vvcurveto
          47 29 21 66 59 56 -17 0 vhcurveto
          9 -100 rlineto
          59 44 callsubr
          3 -7 -75 22 -90 hhcurveto
          -158 -76 -82 -92 -80 56 -37 91 -66 hvcurveto
          -27 -505 rmoveto
          128 90 74 109 64 -40 41 -66 46 hvcurveto
          -210 149 -66 -79 187 -135 rlineto
          46 -33 49 -35 -46 vvcurveto
          -55 -42 -25 -62 -95 -34 37 3 -3 vhcurveto
          -10 104 rlineto
          -60 hlineto
          -20 -173 rlineto
          -7 9 84 -39 115 hhcurveto
          endchar
        </CharString>
        <CharString name="semicolon">
          -353 111 308 rmoveto
          48 29 69 callgsubr
          24 -34 -50 -27 -43 -41 -36 24 -22 34 hvcurveto
          -85 -436 41 callgsubr
          -29 18 -23 26 2 4 1 1 2 vhcurveto
          1 -3 -66 -102 rlineto
          endchar
        </CharString>
        <CharString name="seven">
          -103 21 -21 299 122 132 95 hstem
          386 553 rmoveto
          -12 vlineto
          -334 -492 rlineto
          -49 80 vlineto
          335 553 rlineto
          95 -425 -176 58 vlineto
          19 81 rlineto
          endchar
        </CharString>
        <CharString name="seven.osf">
          -103 357 415 rmoveto
          -352 -550 41 -29 rlineto
          70 hlineto
          322 593 3 95 rlineto
          -411 -176 58 hlineto
          19 81 rlineto
          250 hlineto
          endchar
        </CharString>
        <CharString name="six">
          -27 -11 65 273 77 253 -20 hstem
          27 122 201 118 vstem
          237 -11 rmoveto
          144 86 122 120 124 -65 49 -98 -81 -51 -45 0 hvcurveto
          37 122 94 97 181 36 -4 43 rcurveline
          -276 -11 -177 -208 -217 vvcurveto
          -162 81 -70 129 vhcurveto
          8 65 rmoveto
          -71 -25 57 93 32 1 36 8 30 hvcurveto
          6 8 32 19 51 hhcurveto
          72 29 -34 -86 -102 -25 -51 -80 hvcurveto
          endchar
        </CharString>
        <CharString name="six.osf">
          -11 245 -11 rmoveto
          159 91 114 135 112 -61 54 -103 -81 -53 -36 0 hvcurveto
          39 115 88 90 179 34 -1 46 rcurveline
          -268 -187 -241 -204 -146 77 -73 121 hvcurveto
          21 69 rmoveto
          -63 -32 49 92 31 1 36 9 42 hvcurveto
          0 37 19 63 61 32 -28 -86 -94 -24 -61 -84 vhcurveto
          endchar
        </CharString>
        <CharString name="slash">
          21 callgsubr
        </CharString>
        <CharString name="space">
          -390 endchar
        </CharString>
        <CharString name="sterling">
          -36 337 586 rmoveto
          25 26 -3 -7 20 hvcurveto
          13 -89 rlineto
          62 hlineto
          18 149 rlineto
          11 -32 -66 11 -58 hhcurveto
          -137 -70 -64 -163 -21 hvcurveto
          -8 -67 rlineto
          -61 hlineto
          -9 -76 rlineto
          60 hlineto
          -12 -97 -6 -49 -9 -31 -16 -22 rlinecurve
          -17 -25 -18 -20 -15 -16 7 -13 10 -14 14 -8 26 9 29 17 26 16 180 -35 rcurveline
          -7 33 21 -4 13 hhcurveto
          25 17 11 26 20 hvcurveto
          43 53 -30 34 -71 -40 -193 39 13 25 3 36 4 30 rlinecurve
          11 85 rlineto
          149 hlineto
          10 76 rlineto
          -150 hlineto
          9 72 13 105 18 43 81 2 rlinecurve
          endchar
        </CharString>
        <CharString name="sterling.osf">
          -60 355 -9 rmoveto
          20 20 12 24 21 hvcurveto
          46 55 -31 34 -77 -39 -168 35 10 18 5 22 2 22 rlinecurve
          6 54 rlineto
          107 hlineto
          10 77 rlineto
          -106 hlineto
          6 46 rlineto
          77 10 18 32 61 hhcurveto
          40 20 -9 0 hvcurveto
          8 -90 rlineto
          62 hlineto
          18 150 rlineto
          3 -9 -64 19 -69 hhcurveto
          -108 -75 -40 -140 -19 hvcurveto
          -7 -48 rlineto
          -51 hlineto
          -9 -77 rlineto
          50 hlineto
          -7 -54 -3 -29 -11 -44 -20 -22 rlinecurve
          -16 -19 -16 -18 -14 -13 7 -13 10 -14 14 -8 23 9 28 15 26 18 157 -34 rcurveline
          -6 24 27 -5 24 hhcurveto
          endchar
        </CharString>
        <CharString name="summation">
          -82 -15 hmoveto
          437 hlineto
          17 183 rlineto
          -58 hlineto
          -37 -104 rlineto
          -247 hlineto
          6 14 195 264 -114 212 -3 12 rlineto
          214 hlineto
          12 -110 rlineto
          58 hlineto
          24 177 rlineto
          -423 hlineto
          -11 -56 139 -256 -209 -279 rlineto
          endchar
        </CharString>
        <CharString name="t">
          -215 129 441 57 callgsubr
          25 -19 69 79 69 29 0 vhcurveto
          -52 callsubr
          -9 -66 rlineto
          endchar
        </CharString>
        <CharString name="tbar">
          -215 357 441 rmoveto
          9 66 rlineto
          -122 hlineto
          21 122 -103 -14 -21 -108 rlineto
          -88 hlineto
          -9 -66 rlineto
          85 hlineto
          -19 -113 rlineto
          -78 hlineto
          -9 -60 rlineto
          77 hlineto
          -28 -165 15 callgsubr
          -46 25 -19 69 79 69 29 0 vhcurveto
          55 -130 vlineto
          29 191 rlineto
          119 hlineto
          9 60 rlineto
          -119 hlineto
          17 113 rlineto
          endchar
        </CharString>
        <CharString name="tcaron">
          -220 293 571 rmoveto
          22 -24 rlineto
          5 2 89 49 84 vvcurveto
          28 -15 22 -36 -26 -14 -16 -14 -8 vhcurveto
          4 -5 8 -17 -24 vvcurveto
          -49 -29 -36 0 vhcurveto
          -169 -130 57 callgsubr
          24 -19 70 78 70 29 0 vhcurveto
          -52 callsubr
          -10 -66 rlineto
          endchar
        </CharString>
        <CharString name="thorn">
          -49 -66 -166 rmoveto
          244 hlineto
          7 50 -66 15 17 113 rlineto
          -9 30 43 -6 32 hhcurveto
          118 111 177 187 100 -41 52 -78 -51 -56 -33 -56 -44 hvcurveto
          -4 2 5 8 4 8 1 7 rlinecurve
          26 169 -30 callgsubr
          82 -17 -126 -719 -67 -15 rlineto
          333 187 rmoveto
          -39 -43 15 26 -40 hvcurveto
          41 254 rlineto
          41 44 42 23 27 hhcurveto
          37 15 -27 -65 -113 -21 -100 -32 -48 hvcurveto
          -5 -3 -7 -1 -21 hhcurveto
          endchar
        </CharString>
        <CharString name="three">
          -99 -10 74 242 70 201 83 hstem
          287 120 vstem
          151 -11 rmoveto
          150 106 94 131 65 -42 51 -70 21 hvcurveto
          6 vlineto
          74 30 47 64 69 vvcurveto
          90 -61 50 -111 -71 -87 -48 -60 -35 vhcurveto
          31 -24 rlineto
          32 35 44 17 44 hhcurveto
          64 31 -25 -53 -78 -68 -50 -106 -1 hvcurveto
          -15 -35 hlineto
          16 -29 rlineto
          37 hlineto
          83 40 -36 -76 -92 -43 -46 -83 -39 -38 8 11 -11 hvcurveto
          -8 96 rlineto
          -39 hlineto
          -15 -35 -65 -27 -60 59 -30 116 hvcurveto
          endchar
        </CharString>
        <CharString name="three.osf">
          -107 -29 -112 rmoveto
          -2 -47 rlineto
          0 34 -7 73 173 129 91 163 91 -53 37 -56 8 vhcurveto
          7 vlineto
          64 30 52 53 82 vvcurveto
          71 -38 64 -135 -126 -59 -96 0 vhcurveto
          32 -26 rlineto
          0 51 40 65 62 31 -18 -54 -67 -77 -56 -102 -16 vhcurveto
          -5 -33 18 -32 rlineto
          38 hlineto
          85 35 -28 -67 -132 -98 -58 -191 hvcurveto
          endchar
        </CharString>
        <CharString name="threequarters">
          243 176 50 callsubr
          27 317 rmoveto
          80 78 40 79 53 -51 9 -26 3 hvcurveto
          4 vlineto
          30 8 56 26 57 vvcurveto
          45 -45 29 -66 0 callgsubr
          -22 -25 -58 -36 -25 18 0 hvcurveto
          -27 -36 rlineto
          0 25 -37 78 vhcurveto
          412 -307 48 callsubr
          29 196 -61 46 callgsubr
          -1 5 106 116 -18 -121 rlineto
          endchar
        </CharString>
        <CharString name="tilde">
          -192 306 -87 callgsubr
          endchar
        </CharString>
        <CharString name="tildecomb">
          -49 -87 callgsubr
          endchar
        </CharString>
        <CharString name="tildecomb.case">
          -303 -90 callsubr
          endchar
        </CharString>
        <CharString name="trademark">
          392 98 399 rmoveto
          -41 195 41 vlineto
          -50 7 rlineto
          243 64 vlineto
          15 -58 rlineto
          45 113 -344 -113 45 hlineto
          15 58 rlineto
          65 -243 hlineto
          246 -11 rmoveto
          -37 155 37 vlineto
          -42 8 rlineto
          235 6 vlineto
          84 -280 rlineto
          88 hlineto
          86 278 rlineto
          6 -232 hlineto
          -43 -7 rlineto
          -39 189 39 vlineto
          -51 7 rlineto
          248 vlineto
          51 7 rlineto
          45 -195 vlineto
          -63 -214 -8 -42 -8 42 -62 214 rlineto
          -188 -45 hlineto
          46 -5 rlineto
          -251 vlineto
          endchar
        </CharString>
        <CharString name="two">
          -58 0 85 490 85 hstem
          321 121 vstem
          -3 hmoveto
          411 hlineto
          30 176 -54 9 -40 -101 -235 1 -11 -4 -2 4 146 130 rlineto
          148 132 53 81 94 vvcurveto
          79 -62 59 -111 -116 -75 -81 -47 -28 vhcurveto
          30 -24 rlineto
          39 43 39 28 60 hhcurveto
          65 33 -35 -48 -53 -10 -50 -122 -120 hvcurveto
          -217 -215 rlineto
          endchar
        </CharString>
        <CharString name="two.osf">
          -50 29 hmoveto
          397 hlineto
          22 161 -52 10 -38 -88 rlineto
          -194 hlineto
          -19 -7 -4 7 115 84 rlineto
          114 83 72 50 94 vvcurveto
          85 -61 52 -109 -152 -61 -122 0 vhcurveto
          30 -24 rlineto
          10 13 51 52 84 hhcurveto
          58 23 -32 -34 -44 -10 -27 -98 -80 hvcurveto
          -205 -167 rlineto
          endchar
        </CharString>
        <CharString name="u">
          -8 117 420 -104 callsubr
          endchar
        </CharString>
        <CharString name="uacute">
          -8 269 -16 callgsubr
          -98 -600 rmoveto
          -34 callgsubr
          hvcurveto
          -27 callgsubr
          -18 62 callgsubr
          -15 49 50 47 22 9 17 vhcurveto
          54 -71 vlineto
          72 430 -78 callgsubr
          vhcurveto
          endchar
        </CharString>
        <CharString name="ubreve">
          -8 300 562 -98 callgsubr
          -183 -142 -104 callsubr
          endchar
        </CharString>
        <CharString name="ucircumflex">
          -8 414 556 rmoveto
          35 36 -78 105 rlineto
          -86 callsubr
          -96 -93 31 -32 119 69 rlineto
          -172 -638 rmoveto
          -34 callgsubr
          hvcurveto
          -27 callgsubr
          -18 62 callgsubr
          -15 49 50 47 22 9 17 vhcurveto
          54 -71 vlineto
          72 430 -78 callgsubr
          vhcurveto
          endchar
        </CharString>
        <CharString name="udieresis">
          -8 207 582 rmoveto
          31 callgsubr
          198 hmoveto
          31 callgsubr
          -264 -594 rmoveto
          87 74 83 31 25 hvcurveto
          -27 callgsubr
          -17 62 callgsubr
          -16 48 51 46 22 10 18 vhcurveto
          54 -72 vlineto
          72 430 -108 -11 -61 -347 rlineto
          -25 -25 -55 -48 -38 hhcurveto
          -24 -8 12 22 16 6 32 3 16 hvcurveto
          41 253 rlineto
          78 -51 callsubr
          76 -17 -45 -255 rlineto
          -4 -20 -6 -36 -31 vvcurveto
          -54 26 -32 54 vhcurveto
          endchar
        </CharString>
        <CharString name="ugrave">
          -8 284 608 rmoveto
          95 -54 30 -3 callsubr
          -167 -188 -104 callsubr
          endchar
        </CharString>
        <CharString name="uhorn">
          -8 644 509 -100 callsubr
          endchar
        </CharString>
        <CharString name="uhungarumlaut">
          -8 204 -7 callgsubr
          -33 18 -40 -2 vhcurveto
          -87 -168 rlineto
          -193 -585 rmoveto
          68 71 57 57 48 hvcurveto
          -27 callgsubr
          -16 -20 -8 -19 -16 vvcurveto
          -38 21 -15 49 44 47 18 13 23 vhcurveto
          49 callgsubr
          -35 -35 -51 -38 -33 hhcurveto
          -22 -9 11 23 13 4 21 4 30 24 callsubr
          -5 -25 -4 -34 -27 vvcurveto
          -60 30 -27 49 vhcurveto
          endchar
        </CharString>
        <CharString name="umacron">
          -8 166 -25 callgsubr
          -362 -265 -104 callsubr
          endchar
        </CharString>
        <CharString name="underscore">
          -91 6 hmoveto
          -81 444 81 vlineto
          endchar
        </CharString>
        <CharString name="uni00A0">
          -390 endchar
        </CharString>
        <CharString name="uni00AD">
          32 callgsubr
        </CharString>
        <CharString name="uni00B2">
          -224 5 404 rmoveto
          17 -43 rlineto
          258 hlineto
          14 55 callsubr
          53 rlineto
          65 46 28 33 53 vvcurveto
          72 -58 22 -64 -88 -48 -66 0 vhcurveto
          33 -30 rlineto
          0 35 32 41 36 16 -15 -23 -29 -13 -17 -39 -34 vhcurveto
          endchar
        </CharString>
        <CharString name="uni00B3">
          -251 31 428 rmoveto
          -27 -36 rlineto
          0 25 -37 78 80 78 40 79 53 -51 9 -26 3 vhcurveto
          4 vlineto
          30 8 56 26 57 vvcurveto
          45 -46 29 -65 0 callgsubr
          -23 -25 -57 -37 -24 18 0 hvcurveto
          endchar
        </CharString>
        <CharString name="uni00B5">
          -56 callsubr
        </CharString>
        <CharString name="uni00B9">
          -247 24 409 rmoveto
          -6 -48 rlineto
          255 hlineto
          5 46 -80 14 42 67 callgsubr
          90 hlineto
          -32 -220 rlineto
          endchar
        </CharString>
        <CharString name="uni0162">
          -50 124 6 callgsubr
          33 -12 48 hhcurveto
          51 52 7 callsubr
          28 109 vlineto
          -41 callgsubr
          -71 -14 -6 -51 rlineto
          100 hlineto
          -33 -50 -14 callsubr
          endchar
        </CharString>
        <CharString name="uni0163">
          -220 69 6 callgsubr
          33 -12 49 hhcurveto
          51 51 7 callsubr
          22 vlineto
          71 3 59 25 0 vvcurveto
          -52 callsubr
          -10 -66 rlineto
          86 hlineto
          32 callsubr
          -39 17 -19 45 -5 vhcurveto
          -29 -45 rlineto
          -24 vlineto
          49 -24 rlineto
          15 -8 8 -6 -10 vvcurveto
          -11 -9 -6 -19 -36 -17 8 8 -17 vhcurveto
          endchar
        </CharString>
        <CharString name="uni018F">
          75 264 -11 rmoveto
          216 107 183 221 173 -89 94 -180 -77 -75 -17 -22 -56 hvcurveto
          -15 -164 rlineto
          59 hlineto
          33 114 rlineto
          11 15 38 17 57 hhcurveto
          122 38 -55 -150 1 hvcurveto
          -33 -413 vlineto
          -6 -35 -4 -39 -40 vvcurveto
          -169 97 -89 132 vhcurveto
          23 61 rmoveto
          -81 -43 50 151 17 0 15 1 16 hvcurveto
          290 hlineto
          -167 -13 -50 -82 -104 hhcurveto
          endchar
        </CharString>
        <CharString name="uni019D">
          58 callsubr
          -394 -1 -19 rlineto
          -5 hlineto
          -5 20 -188 458 rlineto
          -176 hlineto
          -7 -51 69 -14 -79 -556 -9 -57 -10 -23 -11 -14 rlinecurve
          -5 -6 -19 -7 -28 hhcurveto
          -77 hlineto
          0 -14 -16 -28 vvcurveto
          -35 19 -12 42 98 77 85 125 17 vhcurveto
          62 443 rlineto
          4 hlineto
          3 -16 192 -467 rlineto
          101 hlineto
          81 583 71 -10 callsubr
          endchar
        </CharString>
        <CharString name="uni01C4">
          612 935 679 -69 callsubr
          -931 -628 27 callgsubr
          216 148 166 241 158 -94 83 -176 hvcurveto
          -257 -1 callgsubr
          560 -5 -71 callgsubr
          -829 -507 -6 callsubr
        </CharString>
        <CharString name="uni01C5">
          494 750 701 -76 callsubr
          -784 -685 -73 callgsubr
          706 310 rmoveto
          -280 -345 42 -35 48 32 114 -22 rlineto
          -8 41 36 -5 38 hhcurveto
          38 -96 callgsubr
          endchar
        </CharString>
        <CharString name="uni01C6">
          362 632 702 -76 callsubr
          -366 -632 -78 callsubr
          460 268 rmoveto
          -280 -345 42 -35 48 32 114 -22 rlineto
          -8 41 36 -5 38 hhcurveto
          38 -96 callgsubr
          -419 -1 -62 callsubr
          endchar
        </CharString>
        <CharString name="uni01C7">
          329 -15 callsubr
          394 115 -82 callsubr
        </CharString>
        <CharString name="uni01C8">
          180 643 717 -45 callsubr
          -205 -547 rmoveto
          -55 hlineto
          -42 -112 rlineto
          -109 hlineto
          -42 7 -57 callgsubr
          33 callsubr
          419 hlineto
          86 436 rmoveto
          -91 callsubr
          -179 -19 rlineto
          endchar
        </CharString>
        <CharString name="uni01C9">
          13 476 717 -45 callsubr
          -240 -637 rmoveto
          -72 hlineto
          17 callsubr
          82 -17 59 callgsubr
          11 -25 58 66 49 32 0 vhcurveto
          99 410 rmoveto
          -91 callsubr
          -179 -19 rlineto
          endchar
        </CharString>
        <CharString name="uni01CA">
          512 -35 callsubr
          579 115 -82 callsubr
        </CharString>
        <CharString name="uni01CB">
          376 839 717 -45 callsubr
          -179 -120 rmoveto
          6 51 rlineto
          -215 -35 callgsubr
          70 -14 -57 -399 rlineto
          -14 -5 vlineto
          -3 15 -190 463 rlineto
          -176 hlineto
          -7 -51 69 -14 -73 -518 33 callsubr
          218 hlineto
          5 51 -70 14 60 418 rlineto
          4 hlineto
          2 -14 193 -469 rlineto
          101 hlineto
          81 583 rlineto
          109 -147 rmoveto
          -91 callsubr
          -179 -19 rlineto
          endchar
        </CharString>
        <CharString name="uni01CC">
          279 742 717 -45 callsubr
          -239 -637 rmoveto
          -73 hlineto
          -71 callsubr
          77 -17 -69 callgsubr
          98 410 rmoveto
          -91 callsubr
          -179 -19 rlineto
          endchar
        </CharString>
        <CharString name="uni01CD">
          -15 327 679 -69 callsubr
          -375 -628 -107 callgsubr
          endchar
        </CharString>
        <CharString name="uni01CE">
          -35 170 701 -76 callsubr
          90 -631 rmoveto
          -107 callsubr
          endchar
        </CharString>
        <CharString name="uni01CF">
          -215 221 679 -69 callsubr
          -217 -628 -80 callgsubr
          endchar
        </CharString>
        <CharString name="uni01D0">
          -251 62 701 -76 callsubr
          20 -319 -88 callsubr
        </CharString>
        <CharString name="uni01D1">
          106 369 679 -69 callsubr
          -89 -690 -105 callsubr
          endchar
        </CharString>
        <CharString name="uni01D2">
          -75 156 701 -76 callsubr
          -746 vmoveto
          -105 callgsubr
          endchar
        </CharString>
        <CharString name="uni01D3">
          85 377 679 -69 callsubr
          -256 -96 -104 callgsubr
          endchar
        </CharString>
        <CharString name="uni01D4">
          -8 184 701 -76 callsubr
          -105 -316 -104 callsubr
          endchar
        </CharString>
        <CharString name="uni01D5">
          85 247 971 2 callsubr
          -300 -278 -76 callgsubr
          -371 -110 -104 callgsubr
          endchar
        </CharString>
        <CharString name="uni01D6">
          -8 199 910 rmoveto
          -9 -76 rlineto
          313 hlineto
          9 76 rlineto
          -292 -328 -86 callgsubr
          -301 -162 -104 callsubr
          endchar
        </CharString>
        <CharString name="uni01D7">
          85 367 855 -91 callgsubr
          -70 -206 -76 callgsubr
          -371 -110 -104 callgsubr
          endchar
        </CharString>
        <CharString name="uni01D8">
          -8 320 779 -80 callsubr
          -70 -234 -86 callgsubr
          -301 -162 -104 callsubr
          endchar
        </CharString>
        <CharString name="uni01D9">
          85 395 858 -69 callsubr
          -122 -165 -76 callgsubr
          -371 -110 -104 callgsubr
          endchar
        </CharString>
        <CharString name="uni01DA">
          -8 208 926 -76 callsubr
          -26 -379 -86 callgsubr
          -301 -162 -104 callsubr
          endchar
        </CharString>
        <CharString name="uni01DB">
          85 297 910 -84 callgsubr
          -24 -217 -76 callgsubr
          -371 -110 -104 callgsubr
          endchar
        </CharString>
        <CharString name="uni01DC">
          -8 285 833 -82 callgsubr
          -65 -251 -86 callgsubr
          -301 -162 -104 callsubr
          endchar
        </CharString>
        <CharString name="uni01EA">
          106 417 15 rmoveto
          134 58 67 147 182 vvcurveto
          140 -73 118 -181 -190 -139 -160 -253 -169 104 -89 141 15 14 1 1 14 vhcurveto
          -37 -25 -30 -36 -45 3 callgsubr
          -17 callgsubr
          55 65 39 11 6 hvcurveto
          -253 236 rmoveto
          236 53 113 132 89 52 -47 -149 -238 -52 -116 -135 -90 -49 50 151 vhcurveto
          endchar
        </CharString>
        <CharString name="uni01EB">
          -75 289 12 rmoveto
          99 50 53 129 145 vvcurveto
          122 -56 55 -107 -147 -101 -149 -201 -116 59 -57 105 vhcurveto
          5 hlineto
          -36 -25 -29 -36 -44 3 callgsubr
          -17 callgsubr
          49 51 36 19 12 hvcurveto
          -144 183 rmoveto
          124 37 100 13 13 vhcurveto
          -93 callsubr
          -54 callsubr
          -65 -18 39 99 hvcurveto
          endchar
        </CharString>
        <CharString name="uni01F1">
          612 4 51 27 callgsubr
          216 148 166 241 158 -94 83 -176 hvcurveto
          -257 -1 callgsubr
          560 -5 -71 callgsubr
          -829 -507 -6 callsubr
        </CharString>
        <CharString name="uni01F2">
          494 -36 callsubr
          706 310 rmoveto
          -280 -345 42 -35 48 32 114 -22 rlineto
          -8 41 36 -5 38 hhcurveto
          38 -96 callgsubr
          endchar
        </CharString>
        <CharString name="uni01F3">
          362 304 105 -78 callsubr
          460 268 rmoveto
          -280 -345 42 -35 48 32 114 -22 rlineto
          -8 41 36 -5 38 hhcurveto
          38 -96 callgsubr
          -419 -1 -62 callsubr
          endchar
        </CharString>
        <CharString name="uni01F4">
          37 359 676 -91 callgsubr
          70 -696 -94 callgsubr
        </CharString>
        <CharString name="uni01F5">
          -55 272 554 -80 callsubr
          -112 -761 -99 callsubr
        </CharString>
        <CharString name="uni0200">
          -15 231 -79 callgsubr
          -384 -677 -107 callgsubr
          endchar
        </CharString>
        <CharString name="uni0201">
          -35 210 -79 callsubr
          -28 -515 rmoveto
          -107 callsubr
          endchar
        </CharString>
        <CharString name="uni0202">
          -15 179 -72 callgsubr
          -227 -657 -107 callgsubr
          endchar
        </CharString>
        <CharString name="uni0203">
          -35 190 -74 callgsubr
          142 -476 rmoveto
          -107 callsubr
          endchar
        </CharString>
        <CharString name="uni0204">
          -24 227 -79 callgsubr
          -328 -677 -106 callgsubr
          endchar
        </CharString>
        <CharString name="uni0205">
          -138 176 -79 callsubr
          -108 -630 rmoveto
          -106 callsubr
          endchar
        </CharString>
        <CharString name="uni0206">
          -24 175 -72 callgsubr
          -171 -657 -106 callgsubr
          endchar
        </CharString>
        <CharString name="uni0207">
          -138 156 -74 callgsubr
          62 -591 rmoveto
          -106 callsubr
          endchar
        </CharString>
        <CharString name="uni0208">
          -215 125 -79 callgsubr
          -226 -677 -80 callgsubr
          endchar
        </CharString>
        <CharString name="uni0209">
          -251 102 -79 callsubr
          -98 -203 -88 callsubr
        </CharString>
        <CharString name="uni020A">
          -215 73 -72 callgsubr
          -69 -657 -80 callgsubr
          endchar
        </CharString>
        <CharString name="uni020B">
          -251 82 -74 callgsubr
          72 -164 -88 callsubr
        </CharString>
        <CharString name="uni020C">
          106 273 -79 callgsubr
          -98 -739 -105 callsubr
          endchar
        </CharString>
        <CharString name="uni020D">
          -75 196 -79 callsubr
          -118 -630 rmoveto
          -105 callgsubr
          endchar
        </CharString>
        <CharString name="uni020E">
          106 221 -72 callgsubr
          59 -719 -105 callsubr
          endchar
        </CharString>
        <CharString name="uni020F">
          -75 176 -74 callgsubr
          52 -591 rmoveto
          -105 callgsubr
          endchar
        </CharString>
        <CharString name="uni0210">
          -9 234 -79 callgsubr
          -342 -728 rmoveto
          -84 callsubr
          endchar
        </CharString>
        <CharString name="uni0211">
          -205 125 -79 callsubr
          -117 -203 -66 callgsubr
          endchar
        </CharString>
        <CharString name="uni0212">
          -9 182 -72 callgsubr
          -185 -708 rmoveto
          -84 callsubr
          endchar
        </CharString>
        <CharString name="uni0213">
          -205 105 -74 callgsubr
          53 -164 -66 callgsubr
          endchar
        </CharString>
        <CharString name="uni0214">
          85 281 -79 callgsubr
          -265 -145 -104 callgsubr
          endchar
        </CharString>
        <CharString name="uni0215">
          -8 224 -79 callsubr
          -223 -200 -104 callsubr
          endchar
        </CharString>
        <CharString name="uni0216">
          85 229 -72 callgsubr
          -108 -125 -104 callgsubr
          endchar
        </CharString>
        <CharString name="uni0217">
          -8 204 -74 callgsubr
          -53 -161 -104 callsubr
          endchar
        </CharString>
        <CharString name="uni021A">
          -50 89 51 rmoveto
          -6 -51 rlineto
          255 hlineto
          -41 callgsubr
          rlineto
          -28 -250 -4 callsubr
        </CharString>
        <CharString name="uni021B">
          -212 118 441 57 callgsubr
          25 -19 69 78 70 29 0 vhcurveto
          -52 callsubr
          -10 -66 rlineto
          45 -626 -33 callsubr
        </CharString>
        <CharString name="uni0232">
          -54 164 792 2 callsubr
          -393 -747 -93 callgsubr
          endchar
        </CharString>
        <CharString name="uni0232.loclGUA">
          88 229 792 2 callsubr
          -158 -144 -101 callsubr
        </CharString>
        <CharString name="uni0233">
          -130 114 -25 callgsubr
          -401 -856 -97 callsubr
          endchar
        </CharString>
        <CharString name="uni0233.loclGUA">
          -36 175 -25 callgsubr
          -342 -855 -100 callgsubr
        </CharString>
        <CharString name="uni0237">
          -270 52 489 rmoveto
          -53 vlineto
          -91 callsubr
          endchar
        </CharString>
        <CharString name="uni0259">
          -138 225 504 rmoveto
          -69 -78 -33 -46 -38 hvcurveto
          21 -34 rlineto
          23 31 44 16 30 hhcurveto
          69 30 -25 -87 hvcurveto
          -1 -28 rlineto
          -140 -28 -116 -31 -147 vvcurveto
          -51 42 -52 92 161 73 219 151 115 -48 38 -103 vhcurveto
          33 -264 rmoveto
          -6 -80 -26 -79 -16 -21 rrcurveto
          -6 -4 -19 -5 -22 hhcurveto
          -37 -14 22 33 63 12 36 132 37 hvcurveto
          endchar
        </CharString>
        <CharString name="uni0272">
          8 437 80 rmoveto
          43 259 rlineto
          3 19 8 44 25 vvcurveto
          48 -22 38 -70 -55 -62 -40 -35 -46 vhcurveto
          68 vlineto
          -183 -19 rlineto
          -53 vlineto
          77 -17 -63 -390 -9 -60 -14 -24 -7 -11 rlinecurve
          -5 -3 -22 -6 -28 hhcurveto
          -76 hlineto
          -1 -14 -17 -27 -34 19 -13 42 115 90 85 125 18 hvcurveto
          52 350 1 callsubr
          45 callgsubr
          54 vlineto
          endchar
        </CharString>
        <CharString name="uni02BC">
          -437 58 -33 callgsubr
          endchar
        </CharString>
        <CharString name="uni02C9">
          -203 76 -25 callgsubr
          endchar
        </CharString>
        <CharString name="uni0302">
          10 556 rmoveto
          -101 callgsubr
          endchar
        </CharString>
        <CharString name="uni0302.case">
          -226 720 -102 callsubr
          endchar
        </CharString>
        <CharString name="uni03020300">
          -67 746 -82 callgsubr
          35 -190 rmoveto
          -101 callgsubr
          endchar
        </CharString>
        <CharString name="uni03020300.case">
          -63 869 -84 callgsubr
          -163 -149 -102 callsubr
          endchar
        </CharString>
        <CharString name="uni03020301">
          -99 692 -80 callsubr
          29 -173 rmoveto
          -101 callgsubr
          endchar
        </CharString>
        <CharString name="uni03020301.case">
          -1 814 -91 callgsubr
          -201 -138 -102 callsubr
          endchar
        </CharString>
        <CharString name="uni03020303">
          -26 -75 callgsubr
          endchar
        </CharString>
        <CharString name="uni03020303.case">
          -252 -75 callsubr
          endchar
        </CharString>
        <CharString name="uni03020309">
          -95 674 -102 callgsubr
          -7 -118 rmoveto
          -101 callgsubr
          endchar
        </CharString>
        <CharString name="uni03020309.case">
          16 803 -103 callsubr
          -242 -83 -102 callsubr
          endchar
        </CharString>
        <CharString name="uni0304">
          -261 -25 callgsubr
          endchar
        </CharString>
        <CharString name="uni0304.case">
          -251 792 2 callsubr
          endchar
        </CharString>
        <CharString name="uni0306">
          -123 562 -58 callsubr
        </CharString>
        <CharString name="uni0306.case">
          79 813 -6 callgsubr
        </CharString>
        <CharString name="uni03060300">
          -143 768 -82 callgsubr
          15 -206 -58 callsubr
        </CharString>
        <CharString name="uni03060300.case">
          -171 878 -84 callgsubr
          250 -65 -6 callgsubr
        </CharString>
        <CharString name="uni03060301">
          -108 714 -80 callsubr
          10 -189 -58 callsubr
        </CharString>
        <CharString name="uni03060301.case">
          -101 823 -91 callgsubr
          204 -54 -6 callgsubr
        </CharString>
        <CharString name="uni03060303">
          -28 763 rmoveto
          20 20 13 23 20 hvcurveto
          43 45 -24 26 -75 -33 -88 27 rlineto
          7 -21 -22 5 -18 hhcurveto
          -25 -17 -12 -23 -19 hvcurveto
          -43 -47 24 -25 75 33 77 -25 rlineto
          -7 22 25 -7 26 hhcurveto
          -124 -201 -58 callsubr
        </CharString>
        <CharString name="uni03060303.case">
          -251 892 rmoveto
          27 -26 81 32 91 -27 rlineto
          -7 24 23 -7 23 hhcurveto
          21 21 13 22 21 hvcurveto
          46 46 -27 26 -82 -32 -91 26 rlineto
          8 -24 -23 7 -23 hhcurveto
          -21 -22 -13 -22 -20 hvcurveto
          285 -125 -6 callgsubr
        </CharString>
        <CharString name="uni03060309">
          -124 696 -102 callgsubr
          -4 -134 -58 callsubr
        </CharString>
        <CharString name="uni03060309.case">
          -103 813 -103 callsubr
          182 hmoveto
          -94 callsubr
          endchar
        </CharString>
        <CharString name="uni0307">
          -20 -55 callsubr
          endchar
        </CharString>
        <CharString name="uni0307.case">
          -1 -39 callgsubr
          endchar
        </CharString>
        <CharString name="uni0308">
          -216 582 -86 callgsubr
          endchar
        </CharString>
        <CharString name="uni0308.case">
          -215 693 -76 callgsubr
          endchar
        </CharString>
        <CharString name="uni030A">
          -54 559 -40 callsubr
          endchar
        </CharString>
        <CharString name="uni030A.case">
          -40 663 -55 callgsubr
          endchar
        </CharString>
        <CharString name="uni030B">
          -235 -21 callsubr
        </CharString>
        <CharString name="uni030B.case">
          -235 667 rmoveto
          88 61 rlineto
          23 16 23 23 24 vvcurveto
          -4 callgsubr
          endchar
        </CharString>
        <CharString name="uni030C">
          -224 701 -76 callsubr
          endchar
        </CharString>
        <CharString name="uni030C.case">
          -77 679 -69 callsubr
          endchar
        </CharString>
        <CharString name="uni030F">
          -176 -79 callsubr
          endchar
        </CharString>
        <CharString name="uni030F.case">
          -156 -79 callgsubr
          endchar
        </CharString>
        <CharString name="uni0311">
          -219 -74 callgsubr
          endchar
        </CharString>
        <CharString name="uni0311.case">
          -239 -72 callgsubr
          endchar
        </CharString>
        <CharString name="uni031B">
          -197 306 rmoveto
          169 85 46 69 49 vvcurveto
          41 -25 14 -8 6 vhcurveto
          -67 -44 rlineto
          -15 vlineto
          10 -8 7 -7 -16 vvcurveto
          -53 -74 -53 -59 -31 vhcurveto
          endchar
        </CharString>
        <CharString name="uni0326">
          -174 -185 -3 callgsubr
        </CharString>
        <CharString name="uni0327">
          -240 -27 callsubr
        </CharString>
        <CharString name="uni0328">
          -53 -11 callsubr
        </CharString>
        <CharString name="uni0335">
          -338 303 rmoveto
          324 hlineto
          10 62 rlineto
          -325 hlineto
          endchar
        </CharString>
        <CharString name="uni0336">
          -14 490 rmoveto
          -590 hlineto
          -9 -61 rlineto
          590 hlineto
          endchar
        </CharString>
        <CharString name="uni0394">
          -11 callgsubr
        </CharString>
        <CharString name="uni03A9">
          -48 callsubr
        </CharString>
        <CharString name="uni03BC">
          -56 callsubr
        </CharString>
        <CharString name="uni1E0C">
          -37 callgsubr
          75 -247 -99 callgsubr
        </CharString>
        <CharString name="uni1E0D">
          -36 304 105 -78 callsubr
          41 278 -62 callsubr
          -146 -567 -99 callgsubr
        </CharString>
        <CharString name="uni1E24">
          124 3 51 -65 callsubr
          198 -249 -99 callgsubr
        </CharString>
        <CharString name="uni1E25">
          -11 147 618 -67 callgsubr
          146 -816 -99 callgsubr
        </CharString>
        <CharString name="uni1E44">
          99 388 -39 callgsubr
          -386 -636 -96 callsubr
          endchar
        </CharString>
        <CharString name="uni1E45">
          2 326 -55 callsubr
          -202 -158 -77 callgsubr
        </CharString>
        <CharString name="uni1E5A">
          -9 -3 hmoveto
          -84 callsubr
          18 -517 -99 callgsubr
        </CharString>
        <CharString name="uni1E5B">
          -205 124 417 -66 callgsubr
          36 -618 -99 callgsubr
        </CharString>
        <CharString name="uni1E62">
          -100 177 -11 -81 callgsubr
          3 -173 -99 callgsubr
        </CharString>
        <CharString name="uni1E63">
          -147 160 -10 -90 callgsubr
          -17 -174 -99 callgsubr
        </CharString>
        <CharString name="uni1E6C">
          -24 callgsubr
          28 -249 -99 callgsubr
        </CharString>
        <CharString name="uni1E6D">
          -215 129 441 57 callgsubr
          25 -19 69 79 69 29 0 vhcurveto
          -52 callsubr
          -9 -66 rlineto
          84 -625 -99 callgsubr
        </CharString>
        <CharString name="uni1E92">
          -31 -8 60 -71 callgsubr
          -175 -754 -99 callgsubr
        </CharString>
        <CharString name="uni1E93">
          -149 253 373 rmoveto
          -280 -345 42 -35 48 32 114 -22 rlineto
          -8 41 36 -5 38 hhcurveto
          38 -96 callgsubr
          -111 -568 -99 callgsubr
        </CharString>
        <CharString name="uni1E9E">
          138 410 -11 rmoveto
          144 88 82 111 81 -51 55 -100 21 hvcurveto
          -4 7 178 236 -39 63 rlineto
          9 -47 -87 10 -58 hhcurveto
          -198 -125 -126 -195 -27 hvcurveto
          -39 -278 -71 -14 -6 -51 rlineto
          208 hlineto
          7 51 -23 14 42 304 rlineto
          144 19 44 82 141 hhcurveto
          37 37 -5 -8 31 hvcurveto
          8 -15 -173 -231 24 -60 rlineto
          131 -6 39 -60 -57 vvcurveto
          -63 -31 -40 -76 -37 -41 16 17 -14 vhcurveto
          -11 116 rlineto
          -64 hlineto
          -18 -165 rlineto
          -16 19 69 -29 74 hhcurveto
          endchar
        </CharString>
        <CharString name="uni1EA0">
          -15 -48 51 -107 callgsubr
          -70 -659 -99 callgsubr
        </CharString>
        <CharString name="uni1EA1">
          -35 298 105 rmoveto
          -107 callsubr
          -140 -568 -99 callgsubr
        </CharString>
        <CharString name="uni1EA2">
          -15 297 676 -103 callsubr
          -345 -625 -107 callgsubr
          endchar
        </CharString>
        <CharString name="uni1EA3">
          -35 266 536 -102 callgsubr
          32 -431 rmoveto
          -107 callsubr
          endchar
        </CharString>
        <CharString name="uni1EA4">
          -15 404 814 -91 callgsubr
          -201 -138 -102 callsubr
          -310 -735 -107 callgsubr
          endchar
        </CharString>
        <CharString name="uni1EA5">
          -35 374 692 -80 callsubr
          29 -173 rmoveto
          -101 callgsubr
          25 -524 rmoveto
          -107 callsubr
          endchar
        </CharString>
        <CharString name="uni1EA6">
          -15 344 869 -84 callgsubr
          -163 -149 -102 callsubr
          -312 -735 -107 callgsubr
          endchar
        </CharString>
        <CharString name="uni1EA7">
          -35 366 746 -82 callgsubr
          35 -190 rmoveto
          -101 callgsubr
          -3 -524 rmoveto
          -107 callsubr
          endchar
        </CharString>
        <CharString name="uni1EA8">
          -15 407 803 -103 callsubr
          -242 -83 -102 callsubr
          -296 -735 -107 callgsubr
          endchar
        </CharString>
        <CharString name="uni1EA9">
          -35 389 674 -102 callgsubr
          -7 -118 rmoveto
          -101 callgsubr
          16 -524 rmoveto
          -107 callsubr
          endchar
        </CharString>
        <CharString name="uni1EAA">
          -15 158 -75 callsubr
          -315 -735 -107 callgsubr
          endchar
        </CharString>
        <CharString name="uni1EAB">
          -35 398 -75 callgsubr
          -524 vmoveto
          -107 callsubr
          endchar
        </CharString>
        <CharString name="uni1EAC">
          -15 192 720 -102 callsubr
          -323 -735 -107 callgsubr
          -70 -659 -99 callgsubr
        </CharString>
        <CharString name="uni1EAD">
          -35 410 556 rmoveto
          -101 callgsubr
          -12 -524 rmoveto
          -107 callsubr
          -140 -568 -99 callgsubr
        </CharString>
        <CharString name="uni1EAE">
          -15 321 823 -91 callgsubr
          204 -54 -88 callgsubr
          -549 -762 -107 callgsubr
          endchar
        </CharString>
        <CharString name="uni1EAF">
          -35 313 714 -80 callsubr
          10 -189 -98 callgsubr
          5 -457 rmoveto
          -107 callsubr
          endchar
        </CharString>
        <CharString name="uni1EB0">
          -15 257 878 -84 callgsubr
          250 -65 -88 callgsubr
          -555 -762 -107 callgsubr
          endchar
        </CharString>
        <CharString name="uni1EB1">
          -35 282 768 -82 callgsubr
          15 -206 -98 callgsubr
          1 -457 rmoveto
          -107 callsubr
          endchar
        </CharString>
        <CharString name="uni1EB2">
          -15 325 813 -103 callsubr
          182 hmoveto
          -94 callsubr
          -555 -762 -107 callgsubr
          endchar
        </CharString>
        <CharString name="uni1EB3">
          -35 300 696 -102 callgsubr
          -4 -134 -98 callgsubr
          2 -457 rmoveto
          -107 callsubr
          endchar
        </CharString>
        <CharString name="uni1EB4">
          -15 159 892 rmoveto
          27 -26 81 32 91 -27 rlineto
          -7 24 23 -7 23 hhcurveto
          21 21 13 22 21 hvcurveto
          46 46 -27 26 -82 -32 -91 26 rlineto
          8 -24 -23 7 -23 hhcurveto
          -21 -22 -13 -22 -20 hvcurveto
          285 -125 -88 callgsubr
          -537 -762 -107 callgsubr
          endchar
        </CharString>
        <CharString name="uni1EB5">
          -35 398 763 rmoveto
          20 20 13 23 20 hvcurveto
          43 45 -24 26 -75 -33 -88 27 rlineto
          7 -21 -22 5 -18 hhcurveto
          -25 -17 -12 -23 -19 hvcurveto
          -43 -47 24 -25 75 33 77 -25 rlineto
          -7 22 25 -7 26 hhcurveto
          -124 -201 -98 callgsubr
          24 -457 rmoveto
          -107 callsubr
          endchar
        </CharString>
        <CharString name="uni1EB6">
          -15 497 813 -88 callgsubr
          -545 -762 -107 callgsubr
          -70 -659 -99 callgsubr
        </CharString>
        <CharString name="uni1EB7">
          -35 286 562 -98 callgsubr
          12 -457 rmoveto
          -107 callsubr
          -140 -568 -99 callgsubr
        </CharString>
        <CharString name="uni1EB8">
          -24 4 51 -106 callgsubr
          130 -249 -99 callgsubr
        </CharString>
        <CharString name="uni1EB9">
          -138 184 -10 rmoveto
          -106 callsubr
          14 -438 -99 callgsubr
        </CharString>
        <CharString name="uni1EBA">
          -24 293 676 -103 callsubr
          -289 -625 -106 callgsubr
          endchar
        </CharString>
        <CharString name="uni1EBB">
          -138 232 536 -102 callgsubr
          -48 -546 rmoveto
          -106 callsubr
          endchar
        </CharString>
        <CharString name="uni1EBC">
          -24 145 -90 callsubr
          -186 -732 -106 callgsubr
          endchar
        </CharString>
        <CharString name="uni1EBD">
          -138 351 -87 callgsubr
          -167 -593 rmoveto
          -106 callsubr
          endchar
        </CharString>
        <CharString name="uni1EBE">
          -24 400 814 -91 callgsubr
          -201 -138 -102 callsubr
          -254 -735 -106 callgsubr
          endchar
        </CharString>
        <CharString name="uni1EBF">
          -138 340 692 -80 callsubr
          29 -173 rmoveto
          -101 callgsubr
          -55 -639 rmoveto
          -106 callsubr
          endchar
        </CharString>
        <CharString name="uni1EC0">
          -24 340 869 -84 callgsubr
          -163 -149 -102 callsubr
          -256 -735 -106 callgsubr
          endchar
        </CharString>
        <CharString name="uni1EC1">
          -138 332 746 -82 callgsubr
          35 -190 rmoveto
          -101 callgsubr
          -83 -639 rmoveto
          -106 callsubr
          endchar
        </CharString>
        <CharString name="uni1EC2">
          -24 403 803 -103 callsubr
          -242 -83 -102 callsubr
          -240 -735 -106 callgsubr
          endchar
        </CharString>
        <CharString name="uni1EC3">
          -138 355 674 -102 callgsubr
          -7 -118 rmoveto
          -101 callgsubr
          -64 -639 rmoveto
          -106 callsubr
          endchar
        </CharString>
        <CharString name="uni1EC4">
          -24 154 -75 callsubr
          -259 -735 -106 callgsubr
          endchar
        </CharString>
        <CharString name="uni1EC5">
          -138 364 -75 callgsubr
          -80 -639 rmoveto
          -106 callsubr
          endchar
        </CharString>
        <CharString name="uni1EC6">
          -24 188 720 -102 callsubr
          -267 -735 -106 callgsubr
          130 -249 -99 callgsubr
        </CharString>
        <CharString name="uni1EC7">
          -138 376 556 rmoveto
          -101 callgsubr
          -92 -639 rmoveto
          -106 callsubr
          14 -438 -99 callgsubr
        </CharString>
        <CharString name="uni1EC8">
          -215 191 676 -103 callsubr
          -187 -625 -80 callgsubr
          endchar
        </CharString>
        <CharString name="uni1EC9">
          -251 158 536 -102 callgsubr
          -38 -119 -88 callsubr
        </CharString>
        <CharString name="uni1ECA">
          -215 4 51 -80 callgsubr
          29 -249 -99 callgsubr
        </CharString>
        <CharString name="uni1ECB">
          -32 callgsubr
          44 -617 -99 callgsubr
        </CharString>
        <CharString name="uni1ECC">
          106 280 -11 -105 callsubr
          -33 -234 -99 callgsubr
        </CharString>
        <CharString name="uni1ECD">
          -75 194 -10 rmoveto
          -105 callgsubr
          -49 -241 -99 callgsubr
        </CharString>
        <CharString name="uni1ECE">
          106 339 676 -103 callsubr
          -59 -687 -105 callsubr
          endchar
        </CharString>
        <CharString name="uni1ECF">
          -75 252 536 -102 callgsubr
          -58 -546 rmoveto
          -105 callgsubr
          endchar
        </CharString>
        <CharString name="uni1ED0">
          106 446 814 -91 callgsubr
          -201 -138 -102 callsubr
          -24 -797 -105 callsubr
          endchar
        </CharString>
        <CharString name="uni1ED1">
          -75 360 692 -80 callsubr
          29 -173 rmoveto
          -101 callgsubr
          -65 -639 rmoveto
          -105 callgsubr
          endchar
        </CharString>
        <CharString name="uni1ED2">
          106 386 869 -84 callgsubr
          -163 -149 -102 callsubr
          -26 -797 -105 callsubr
          endchar
        </CharString>
        <CharString name="uni1ED3">
          -75 352 746 -82 callgsubr
          35 -190 rmoveto
          -101 callgsubr
          -93 -639 rmoveto
          -105 callgsubr
          endchar
        </CharString>
        <CharString name="uni1ED4">
          106 449 803 -103 callsubr
          -242 -83 -102 callsubr
          -10 -797 -105 callsubr
          endchar
        </CharString>
        <CharString name="uni1ED5">
          -75 375 674 -102 callgsubr
          -7 -118 rmoveto
          -101 callgsubr
          -74 -639 rmoveto
          -105 callgsubr
          endchar
        </CharString>
        <CharString name="uni1ED6">
          106 200 -75 callsubr
          -29 -797 -105 callsubr
          endchar
        </CharString>
        <CharString name="uni1ED7">
          -75 384 -75 callgsubr
          -90 -639 rmoveto
          -105 callgsubr
          endchar
        </CharString>
        <CharString name="uni1ED8">
          106 234 720 -102 callsubr
          -37 -797 -105 callsubr
          -33 -234 -99 callgsubr
        </CharString>
        <CharString name="uni1ED9">
          -75 396 556 rmoveto
          -101 callgsubr
          -102 -639 rmoveto
          -105 callgsubr
          -49 -241 -99 callgsubr
        </CharString>
        <CharString name="uni1EDA">
          106 488 731 rmoveto
          37 14 10 13 -70 callgsubr
          24 -44 rlineto
          438 -13 -92 callgsubr
        </CharString>
        <CharString name="uni1EDB">
          -75 364 -32 callsubr
          309 -45 -97 callgsubr
          endchar
        </CharString>
        <CharString name="uni1EDC">
          106 271 731 -84 callgsubr
          508 -68 -92 callgsubr
        </CharString>
        <CharString name="uni1EDD">
          -75 233 608 -82 callgsubr
          344 -99 -97 callgsubr
          endchar
        </CharString>
        <CharString name="uni1EDE">
          106 375 782 rmoveto
          24 12 -6 -13 -11 -10 -9 -23 -9 hvcurveto
          -37 -14 -7 -9 -16 vvcurveto
          -5 2 -7 3 -7 vhcurveto
          63 4 1 14 5 4 21 8 rlinecurve
          35 12 37 23 37 vvcurveto
          43 -46 23 -75 -58 -19 -17 -21 -7 2 -12 9 -13 vhcurveto
          5 19 20 3 22 hhcurveto
          404 -119 -92 callgsubr
        </CharString>
        <CharString name="uni1EDF">
          -75 286 670 rmoveto
          27 12 -7 -15 -19 -14 -8 -19 -10 hvcurveto
          -34 -19 -12 -11 -17 vvcurveto
          -8 3 -9 3 -11 vhcurveto
          63 7 rlineto
          22 5 2 23 11 vhcurveto
          41 19 31 24 40 vvcurveto
          48 -45 23 -75 -58 -19 -13 -26 -8 1 -10 10 -13 vhcurveto
          5 19 21 3 17 hhcurveto
          291 -161 -97 callgsubr
          endchar
        </CharString>
        <CharString name="uni1EE0">
          106 299 737 rmoveto
          91 -31 rlineto
          -9 24 23 -7 23 hhcurveto
          21 21 15 25 21 hvcurveto
          46 53 -27 30 -82 -37 -91 30 rlineto
          9 -24 -23 8 -23 hhcurveto
          -21 -22 -15 -25 -20 hvcurveto
          -45 -53 27 -30 rlineto
          561 -37 -92 callgsubr
        </CharString>
        <CharString name="uni1EE1">
          -75 221 626 rmoveto
          -42 callgsubr
          20 20 14 25 20 hvcurveto
          43 45 callsubr
          -36 -88 30 rlineto
          7 -21 -22 6 -18 hhcurveto
          -25 -17 -13 -26 -19 hvcurveto
          -43 -51 24 -27 rlineto
          431 -81 -97 callgsubr
          endchar
        </CharString>
        <CharString name="uni1EE2">
          106 779 663 rmoveto
          41 -25 14 -8 6 vhcurveto
          -67 -44 rlineto
          -15 vlineto
          10 -8 7 -7 -16 vvcurveto
          -43 -48 -43 -50 -31 vhcurveto
          84 -32 -74 59 -128 hhcurveto
          -190 -139 -160 -253 -169 104 -89 141 226 112 178 235 28 -3 28 -6 26 hvcurveto
          132 74 38 61 44 vvcurveto
          -476 -613 rmoveto
          -90 -49 50 151 236 53 113 132 89 52 -47 -149 -238 -52 -116 -135 hvcurveto
          -22 -90 -7 callsubr
        </CharString>
        <CharString name="uni1EE3">
          -75 577 509 -97 callgsubr
          -92 -109 -7 callsubr
        </CharString>
        <CharString name="uni1EE4">
          85 121 583 -104 callgsubr
          207 -781 -99 callgsubr
        </CharString>
        <CharString name="uni1EE5">
          -8 117 420 -104 callsubr
          172 -621 -99 callgsubr
        </CharString>
        <CharString name="uni1EE6">
          85 347 676 -103 callsubr
          -226 -93 -104 callgsubr
          endchar
        </CharString>
        <CharString name="uni1EE7">
          -8 280 536 -102 callgsubr
          -163 -116 -104 callsubr
          endchar
        </CharString>
        <CharString name="uni1EE8">
          85 349 676 -91 callgsubr
          400 -3 -98 callsubr
          endchar
        </CharString>
        <CharString name="uni1EE9">
          -8 392 -32 callsubr
          348 -45 -100 callsubr
          endchar
        </CharString>
        <CharString name="uni1EEA">
          85 279 731 -84 callgsubr
          446 -14 -98 callsubr
          endchar
        </CharString>
        <CharString name="uni1EEB">
          -8 261 608 -82 callgsubr
          383 -99 -100 callsubr
          endchar
        </CharString>
        <CharString name="uni1EEC">
          85 347 676 -103 callsubr
          378 41 -98 callsubr
          endchar
        </CharString>
        <CharString name="uni1EED">
          -8 314 670 rmoveto
          27 12 -7 -15 -19 -14 -8 -19 -10 hvcurveto
          -34 -19 -12 -11 -17 vvcurveto
          -8 3 -9 3 -11 vhcurveto
          63 7 rlineto
          22 5 2 23 11 vhcurveto
          41 19 31 24 40 vvcurveto
          48 -45 23 -75 -58 -19 -13 -26 -8 1 -10 10 -13 vhcurveto
          5 19 21 3 17 hhcurveto
          330 -161 -100 callsubr
          endchar
        </CharString>
        <CharString name="uni1EEE">
          85 199 -90 callsubr
          481 -66 -98 callsubr
          endchar
        </CharString>
        <CharString name="uni1EEF">
          -8 249 626 rmoveto
          -42 callgsubr
          20 20 14 25 20 hvcurveto
          43 45 callsubr
          -36 -88 30 rlineto
          7 -21 -22 6 -18 hhcurveto
          -25 -17 -13 -26 -19 hvcurveto
          -43 -51 24 -27 rlineto
          470 -81 -100 callsubr
          endchar
        </CharString>
        <CharString name="uni1EF0">
          85 725 717 -98 callsubr
          -466 -901 -99 callgsubr
        </CharString>
        <CharString name="uni1EF1">
          -8 644 509 -100 callsubr
          -420 -549 -7 callsubr
        </CharString>
        <CharString name="uni1EF4">
          -54 97 45 -93 callgsubr
          27 -243 -99 callgsubr
        </CharString>
        <CharString name="uni1EF5">
          -130 26 -171 -97 callsubr
          241 -13 -99 callgsubr
        </CharString>
        <CharString name="uni1EF6">
          -54 282 676 -103 callsubr
          -185 -631 -93 callgsubr
          endchar
        </CharString>
        <CharString name="uni1EF7">
          -130 219 536 -102 callgsubr
          -193 -707 -97 callsubr
          endchar
        </CharString>
        <CharString name="uni1EF8">
          -54 134 -90 callsubr
          -82 -738 -93 callgsubr
          endchar
        </CharString>
        <CharString name="uni1EF8.loclGUA">
          88 199 -90 callsubr
          153 -135 -101 callsubr
        </CharString>
        <CharString name="uni1EF9">
          -130 338 -87 callgsubr
          -312 -754 -97 callsubr
          endchar
        </CharString>
        <CharString name="uni1EF9.loclGUA">
          -36 399 -87 callgsubr
          -253 -753 -100 callgsubr
        </CharString>
        <CharString name="uni20B2">
          37 313 288 rmoveto
          107 -17 -26 -184 rlineto
          -6 -11 -33 -21 -49 hhcurveto
          -102 -34 58 130 240 70 102 114 59 39 -20 -10 18 hvcurveto
          6 -97 rlineto
          59 hlineto
          25 166 -17 4 -52 12 -69 4 rlinecurve
          13 113 -67 12 -28 -126 rlineto
          -197 -21 -102 -183 -204 vvcurveto
          -144 70 -76 107 -17 vhcurveto
          -14 -123 65 -10 30 130 50 5 30 16 23 13 rlinecurve
          8 hlineto
          18 -24 rlineto
          69 hlineto
          43 329 rlineto
          -217 hlineto
          endchar
        </CharString>
</ttFont>
